<svg xmlns="http://www.w3.org/2000/svg" version="1.1" xmlns:xlink="http://www.w3.org/1999/xlink" xmlns:svgjs="http://svgjs.dev/svgjs" width="20" height="21"><svg width="20" height="21" viewBox="0 0 20 21" fill="none" xmlns="http://www.w3.org/2000/svg">
<path d="M17.073 18.0362V20.9633H2.92703C1.31052 20.9633 0 19.6527 0 18.0362V14.3342C0 12.7177 1.31052 11.4071 2.92703 11.4071H12.2959C13.9124 11.4071 15.223 12.7177 15.223 14.3342H15.2089L15.2219 14.3362V16.1872H12.2949V14.3332H2.92803V18.0352H17.073V18.0362Z" fill="#017DC0"></path>
<path d="M17.073 4.77906V2.92803H2.92803V6.6301H17.073C18.6895 6.6301 20 7.94061 20 9.55712V18.0372C20 19.5179 18.9009 20.7418 17.4756 20.9351C17.3447 20.9542 17.2109 20.9643 17.075 20.9643H17.074V9.55612H2.92803C1.31153 9.55612 0 8.2456 0 6.62909V2.92703C0 1.31052 1.31153 0 2.92803 0H17.073C18.6895 0 20 1.31052 20 2.92703V4.77806H17.073V4.77906Z" fill="#00B5E8"></path>
<path d="M20 2.92803H17.073V4.77906H20V2.92803Z" fill="#00B5E8"></path>
<path d="M17.073 2.92803H20L17.073 3.74635V2.92803Z" fill="#2495E1"></path>
<path opacity="0.4" d="M12.296 14.3322H15.222L12.296 15.1515V14.3322Z" fill="#014199"></path>
<path opacity="0.4" d="M17.073 18.0362V20.9633H16.1681L17.073 18.0362Z" fill="#014199"></path>
<path opacity="0.5" d="M2.77807 11.9044C2.11173 11.9044 1.50378 12.159 1.0448 12.5747C1.51385 12.0705 2.18421 11.7554 2.92603 11.7554H12.2949C13.7172 11.7554 14.8747 12.9129 14.8747 14.3352L14.8737 14.3372V15.841H14.7257V14.4852L14.7267 14.4831C14.7267 13.0609 13.5692 11.9044 12.147 11.9044H2.77807Z" fill="white"></path>
<path opacity="0.5" d="M16.7257 18.3835V20.617H16.5767V18.5325H2.43176V14.1359H2.58073V18.3835H16.7257Z" fill="white"></path>
<path opacity="0.5" d="M19.6528 2.92703V4.43181H19.5048V3.07499C19.5048 1.65375 18.3473 0.496227 16.9251 0.496227H2.77912C2.0987 0.496227 1.47967 0.760949 1.01868 1.19276C1.49075 0.674387 2.17117 0.34726 2.92708 0.34726H17.072C18.4953 0.348266 19.6528 1.50478 19.6528 2.92703Z" fill="white"></path>
<path opacity="0.5" d="M19.6527 9.55612V18.0362C19.6527 18.7771 19.3346 19.4555 18.8213 19.9285C19.2471 19.4665 19.5037 18.8495 19.5037 18.1842V9.70409C19.5037 8.28184 18.3462 7.12532 16.924 7.12532H2.43176V2.72774H2.57972V6.97636H17.0719C18.4952 6.97636 19.6527 8.13388 19.6527 9.55612Z" fill="white"></path>
</svg><style>@media (prefers-color-scheme: light) { :root { filter: none; } }
@media (prefers-color-scheme: dark) { :root { filter: none; } }
</style></svg>