<svg width="43" height="44" viewBox="0 0 43 44" fill="none" xmlns="http://www.w3.org/2000/svg">
<mask id="mask0_9710_9830" style="mask-type:alpha" maskUnits="userSpaceOnUse" x="4" y="4" width="34" height="36">
<path opacity="0.4" d="M26.7801 8.67424C26.7801 7.91204 27.2707 7.23646 27.9955 7.00062L35.0355 4.70982C36.1728 4.33975 37.3401 5.18744 37.3401 6.38345L37.3401 37.6164C37.3401 38.8124 36.1728 39.6601 35.0355 39.29L27.9955 36.9992C27.2707 36.7634 26.7801 36.0878 26.7801 35.3256L26.7801 30.634C28.7051 28.2824 29.8601 25.276 29.8601 21.9999C29.8601 18.7238 28.7051 15.7175 26.7801 13.3658L26.7801 8.67424Z" fill="url(#paint0_linear_9710_9830)"/>
<path d="M16.2201 10.5599C9.90197 10.5599 4.7801 15.6818 4.7801 21.9999C4.7801 28.3181 9.90196 33.4399 16.2201 33.4399L16.6601 33.4399C22.9782 33.4399 28.1001 28.3181 28.1001 21.9999C28.1001 15.6818 22.9782 10.5599 16.6601 10.5599L16.2201 10.5599Z" fill="url(#paint1_linear_9710_9830)"/>
</mask>
<g mask="url(#mask0_9710_9830)">
<rect width="44" height="44" transform="matrix(4.37114e-08 -1 -1 -4.37114e-08 43.5 44)" fill="#10C59A"/>
</g>
<defs>
<linearGradient id="paint0_linear_9710_9830" x1="37.3401" y1="21.9999" x2="26.7801" y2="21.9999" gradientUnits="userSpaceOnUse">
<stop stop-color="#203BC7"/>
<stop offset="0.333333" stop-color="#A820D6"/>
<stop offset="0.666667" stop-color="#E5249A"/>
<stop offset="1" stop-color="#E38025"/>
</linearGradient>
<linearGradient id="paint1_linear_9710_9830" x1="4.7801" y1="21.9999" x2="28.1001" y2="21.9999" gradientUnits="userSpaceOnUse">
<stop stop-color="#203BC7"/>
<stop offset="0.333333" stop-color="#A820D6"/>
<stop offset="0.666667" stop-color="#E5249A"/>
<stop offset="1" stop-color="#E38025"/>
</linearGradient>
</defs>
</svg>
