<svg width="43" height="44" viewBox="0 0 43 44" fill="none" xmlns="http://www.w3.org/2000/svg">
<g clip-path="url(#clip0_9710_9816)">
<mask id="mask0_9710_9816" style="mask-type:alpha" maskUnits="userSpaceOnUse" x="-6" y="-6" width="55" height="56">
<g clip-path="url(#clip1_9710_9816)">
<g opacity="0.5">
<path d="M35.9363 22.2724L21.5001 7.83621L15.5077 13.8286C15.2069 14.1295 14.7191 14.1295 14.4182 13.8286C14.1173 13.5277 14.1173 13.0399 14.4182 12.7391L20.4106 6.74669L19.3211 5.65717C19.0202 5.3563 19.0202 4.86851 19.3211 4.56764C19.6219 4.26678 20.1097 4.26678 20.4106 4.56764L21.573 5.73004C21.83 5.66141 22.1156 5.7279 22.3172 5.92955C22.5189 6.13118 22.5854 6.41679 22.5168 6.67381L37.0258 21.1829C37.3267 21.4837 37.3267 21.9715 37.0258 22.2724C36.725 22.5733 36.2372 22.5733 35.9363 22.2724Z" fill="#52AEFF"/>
<path d="M13.6011 14.101C13.9019 13.8001 14.3897 13.8001 14.6906 14.101L29.3992 28.8095C29.7 29.1104 29.7 29.5982 29.3992 29.8991C29.0983 30.1999 28.6105 30.1999 28.3096 29.8991L13.6011 15.1905C13.3002 14.8896 13.3002 14.4018 13.6011 14.101Z" fill="#52AEFF"/>
<path d="M28.582 31.261C28.8829 30.9601 28.8829 30.4723 28.582 30.1714C28.2811 29.8706 27.7933 29.8706 27.4925 30.1714L21.5001 36.1638L7.3363 22C7.03543 21.6992 6.54764 21.6992 6.24677 22C5.94591 22.3009 5.94591 22.7887 6.24677 23.0895L20.4106 37.2534C20.4344 37.2772 20.4594 37.2991 20.4854 37.3192C20.4136 37.578 20.4795 37.867 20.683 38.0705C20.9838 38.3714 21.4716 38.3714 21.7725 38.0705L28.582 31.261Z" fill="#52AEFF"/>
</g>
<path d="M32.3952 17.6418C34.2004 15.8367 34.2004 12.9099 32.3952 11.1047C30.59 9.29952 27.6632 9.29952 25.858 11.1047C24.0529 12.9099 24.0529 15.8367 25.858 17.6418C27.6632 19.447 30.59 19.447 32.3952 17.6418Z" fill="#52AEFF"/>
<path d="M40.0218 25.2685C41.827 23.4633 41.827 20.5366 40.0218 18.7314C38.2167 16.9262 35.2899 16.9262 33.4847 18.7314C31.6795 20.5366 31.6795 23.4633 33.4847 25.2685C35.2899 27.0737 38.2167 27.0737 40.0218 25.2685Z" fill="#52AEFF"/>
<path d="M24.7685 3.47805C26.5737 5.28323 26.5737 8.21001 24.7685 10.0152C22.9633 11.8204 20.0366 11.8204 18.2314 10.0152C16.4262 8.21001 16.4262 5.28323 18.2314 3.47805C20.0366 1.67287 22.9633 1.67287 24.7685 3.47805Z" fill="#52AEFF"/>
<path d="M32.3952 32.8952C34.2004 31.09 34.2004 28.1632 32.3952 26.3581C30.59 24.5529 27.6632 24.5529 25.858 26.3581C24.0529 28.1632 24.0529 31.09 25.858 32.8952C27.6632 34.7004 30.59 34.7004 32.3952 32.8952Z" fill="#52AEFF"/>
<path d="M24.7685 18.7314C26.5737 20.5366 26.5737 23.4633 24.7685 25.2685C22.9633 27.0737 20.0366 27.0737 18.2314 25.2685C16.4262 23.4633 16.4262 20.5366 18.2314 18.7314C20.0366 16.9262 22.9633 16.9262 24.7685 18.7314Z" fill="#52AEFF"/>
<path d="M17.1419 17.6418C18.947 15.8367 18.947 12.9099 17.1419 11.1047C15.3367 9.29952 12.4099 9.29952 10.6047 11.1047C8.79953 12.9099 8.79953 15.8367 10.6047 17.6418C12.4099 19.447 15.3367 19.447 17.1419 17.6418Z" fill="#52AEFF"/>
<path d="M24.7685 33.9847C26.5737 35.7899 26.5737 38.7167 24.7685 40.5218C22.9633 42.327 20.0366 42.327 18.2314 40.5218C16.4262 38.7167 16.4262 35.7899 18.2314 33.9847C20.0366 32.1795 22.9633 32.1795 24.7685 33.9847Z" fill="#52AEFF"/>
<path d="M17.1419 32.8952C18.947 31.09 18.947 28.1632 17.1419 26.3581C15.3367 24.5529 12.4099 24.5529 10.6047 26.3581C8.79953 28.1632 8.79953 31.09 10.6047 32.8952C12.4099 34.7004 15.3367 34.7004 17.1419 32.8952Z" fill="#52AEFF"/>
<path d="M9.51519 18.7314C11.3204 20.5366 11.3204 23.4633 9.51519 25.2685C7.71 27.0737 4.78322 27.0737 2.97804 25.2685C1.17286 23.4633 1.17286 20.5366 2.97804 18.7314C4.78322 16.9262 7.71 16.9262 9.51519 18.7314Z" fill="#52AEFF"/>
</g>
</mask>
<g mask="url(#mask0_9710_9816)">
<rect width="44" height="44" transform="matrix(4.37114e-08 -1 -1 -4.37114e-08 43.5 44)" fill="#10C59A"/>
</g>
</g>
<defs>
<clipPath id="clip0_9710_9816">
<rect width="44" height="44" fill="white" transform="matrix(4.37114e-08 -1 -1 -4.37114e-08 43.5 44)"/>
</clipPath>
<clipPath id="clip1_9710_9816">
<rect width="38.5205" height="38.5205" fill="white" transform="matrix(-0.707107 0.707107 0.707107 0.707107 21.5 -5.23816)"/>
</clipPath>
</defs>
</svg>
