<svg width="10" height="10" viewBox="0 0 10 10" fill="none" xmlns="http://www.w3.org/2000/svg">
<path d="M9.8936 0.874146V7.57886C9.8936 7.71564 9.83926 7.84682 9.74254 7.94355C9.64582 8.04027 9.51464 8.0946 9.37785 8.0946C9.24107 8.0946 9.10988 8.04027 9.01316 7.94355C8.91644 7.84682 8.8621 7.71564 8.8621 7.57886V2.11903L1.49079 9.49099C1.39401 9.58777 1.26276 9.64213 1.1259 9.64213C0.989036 9.64213 0.857781 9.58777 0.761006 9.49099C0.664231 9.39421 0.609863 9.26296 0.609863 9.1261C0.609863 8.98924 0.664231 8.85798 0.761006 8.76121L8.13297 1.38989H2.67314C2.53635 1.38989 2.40517 1.33555 2.30845 1.23883C2.21173 1.14211 2.15739 1.01093 2.15739 0.874146C2.15739 0.737361 2.21173 0.606179 2.30845 0.509457C2.40517 0.412736 2.53635 0.358398 2.67314 0.358398H9.37785C9.51464 0.358398 9.64582 0.412736 9.74254 0.509457C9.83926 0.606179 9.8936 0.737361 9.8936 0.874146Z" fill="black"/>
</svg>
