<svg width="170" height="39" viewBox="0 0 170 39" fill="none" xmlns="http://www.w3.org/2000/svg">
<path d="M17.073 18.0363V20.9633H2.92703C1.31052 20.9633 0 19.6528 0 18.0363V14.3343C0 12.7177 1.31052 11.4072 2.92703 11.4072H12.2959C13.9124 11.4072 15.223 12.7177 15.223 14.3343H15.2089L15.2219 14.3363V16.1873H12.2949V14.3332H2.92803V18.0353H17.073V18.0363Z" fill="#017DC0"/>
<path d="M17.073 4.77906V2.92803H2.92803V6.6301H17.073C18.6895 6.6301 20 7.94061 20 9.55712V18.0372C20 19.5179 18.9009 20.7418 17.4756 20.9351C17.3447 20.9542 17.2109 20.9643 17.075 20.9643H17.074V9.55612H2.92803C1.31153 9.55612 0 8.2456 0 6.62909V2.92703C0 1.31052 1.31153 0 2.92803 0H17.073C18.6895 0 20 1.31052 20 2.92703V4.77806H17.073V4.77906Z" fill="#00B5E8"/>
<path d="M20 2.92822H17.073V4.77925H20V2.92822Z" fill="#00B5E8"/>
<path d="M17.073 2.92822H20L17.073 3.74654V2.92822Z" fill="#2495E1"/>
<path opacity="0.4" d="M12.296 14.332H15.222L12.296 15.1514V14.332Z" fill="#014199"/>
<path opacity="0.4" d="M17.073 18.0361V20.9632H16.1681L17.073 18.0361Z" fill="#014199"/>
<path opacity="0.5" d="M2.77807 11.9043C2.11173 11.9043 1.50378 12.159 1.0448 12.5747C1.51385 12.0704 2.18421 11.7554 2.92603 11.7554H12.2949C13.7172 11.7554 14.8747 12.9129 14.8747 14.3351L14.8737 14.3372V15.8409H14.7257V14.4851L14.7267 14.4831C14.7267 13.0609 13.5692 11.9043 12.147 11.9043H2.77807Z" fill="#1F2937"/>
<path opacity="0.5" d="M16.7257 18.3834V20.6169H16.5767V18.5323H2.43176V14.1357H2.58073V18.3834H16.7257Z" fill="#1F2937"/>
<path opacity="0.5" d="M19.6528 2.92694V4.43172H19.5048V3.0749C19.5048 1.65366 18.3473 0.496136 16.9251 0.496136H2.77912C2.0987 0.496136 1.47967 0.760858 1.01868 1.19266C1.49075 0.674295 2.17117 0.347168 2.92708 0.347168H17.072C18.4953 0.348175 19.6528 1.50469 19.6528 2.92694Z" fill="#1F2937"/>
<path opacity="0.5" d="M19.6527 9.55592V18.036C19.6527 18.7769 19.3346 19.4553 18.8213 19.9283C19.2471 19.4663 19.5037 18.8493 19.5037 18.184V9.70388C19.5037 8.28164 18.3462 7.12512 16.924 7.12512H2.43176V2.72754H2.57972V6.97615H17.0719C18.4952 6.97615 19.6527 8.13368 19.6527 9.55592Z" fill="#1F2937"/>
<path d="M28.8603 16.7069C27.9903 16.7069 27.2503 16.5919 26.6403 16.3619C26.0303 16.1219 25.5303 15.8069 25.1403 15.4169C24.7503 15.0169 24.4603 14.5769 24.2703 14.0969C24.0803 13.6169 23.9703 13.1319 23.9403 12.6419H26.0853C26.1153 13.0219 26.2353 13.3919 26.4453 13.7519C26.6553 14.1019 26.9653 14.3919 27.3753 14.6219C27.7953 14.8419 28.3153 14.9519 28.9353 14.9519C29.6153 14.9519 30.1253 14.8119 30.4653 14.5319C30.8153 14.2519 30.9903 13.8769 30.9903 13.4069C30.9903 12.9469 30.8353 12.5819 30.5253 12.3119C30.2153 12.0419 29.8103 11.8219 29.3103 11.6519L27.7653 11.1419C27.2153 10.9519 26.6903 10.7269 26.1903 10.4669C25.6903 10.2069 25.2803 9.86193 24.9603 9.43193C24.6403 9.00193 24.4803 8.44693 24.4803 7.76693C24.4803 7.07693 24.6503 6.49693 24.9903 6.02693C25.3403 5.54693 25.8203 5.18193 26.4303 4.93193C27.0403 4.68193 27.7403 4.55693 28.5303 4.55693C29.5403 4.55693 30.3453 4.73193 30.9453 5.08193C31.5453 5.42193 31.9853 5.85693 32.2653 6.38693C32.5453 6.91693 32.7103 7.48193 32.7603 8.08193H30.6153C30.5853 7.78193 30.4953 7.49693 30.3453 7.22693C30.2053 6.94693 29.9803 6.72193 29.6703 6.55193C29.3703 6.37193 28.9603 6.28193 28.4403 6.28193C27.8703 6.28193 27.4353 6.40693 27.1353 6.65693C26.8453 6.89693 26.7003 7.21193 26.7003 7.60193C26.7003 8.03193 26.8553 8.37193 27.1653 8.62193C27.4853 8.86193 27.9003 9.06693 28.4103 9.23693L29.9553 9.76193C30.5153 9.94193 31.0403 10.1669 31.5303 10.4369C32.0203 10.6969 32.4203 11.0469 32.7303 11.4869C33.0503 11.9269 33.2103 12.5069 33.2103 13.2269C33.2103 14.3169 32.8253 15.1719 32.0553 15.7919C31.2953 16.4019 30.2303 16.7069 28.8603 16.7069ZM35.0241 16.4819V7.48193H37.0641V8.83193H37.4241C37.5941 8.38193 37.8641 8.00693 38.2341 7.70693C38.6141 7.40693 39.1441 7.25693 39.8241 7.25693C40.4441 7.25693 40.9591 7.39693 41.3691 7.67693C41.7891 7.95693 42.1041 8.34193 42.3141 8.83193H42.6741C42.8541 8.37193 43.1391 7.99693 43.5291 7.70693C43.9191 7.40693 44.4441 7.25693 45.1041 7.25693C46.0841 7.25693 46.8091 7.57693 47.2791 8.21693C47.7491 8.84693 47.9841 9.69193 47.9841 10.7519V16.4819H45.7641V11.1419C45.7641 10.4919 45.6541 9.98693 45.4341 9.62693C45.2241 9.26693 44.8791 9.08693 44.3991 9.08693C43.8191 9.08693 43.3741 9.33193 43.0641 9.82193C42.7641 10.3119 42.6141 10.9119 42.6141 11.6219V16.4819H40.3941V11.1419C40.3941 10.4919 40.2841 9.98693 40.0641 9.62693C39.8541 9.26693 39.5141 9.08693 39.0441 9.08693C38.4641 9.08693 38.0191 9.33193 37.7091 9.82193C37.3991 10.3119 37.2441 10.9119 37.2441 11.6219V16.4819H35.0241ZM53.2215 16.6769C52.4015 16.6769 51.7215 16.4769 51.1815 16.0769C50.6415 15.6769 50.2365 15.1219 49.9665 14.4119C49.7065 13.7019 49.5765 12.8869 49.5765 11.9669C49.5765 11.0269 49.7115 10.2069 49.9815 9.50693C50.2515 8.80693 50.6565 8.26193 51.1965 7.87193C51.7365 7.48193 52.4115 7.28693 53.2215 7.28693C53.8615 7.28693 54.3815 7.41693 54.7815 7.67693C55.1915 7.92693 55.4965 8.25193 55.6965 8.65193H56.0565V7.48193H58.0965V16.4819H56.0565V15.3119H55.6965C55.4965 15.6819 55.1965 16.0019 54.7965 16.2719C54.3965 16.5419 53.8715 16.6769 53.2215 16.6769ZM53.7615 15.0569C54.4115 15.0569 54.9265 14.7819 55.3065 14.2319C55.6965 13.6719 55.8915 12.9219 55.8915 11.9819C55.8915 11.0419 55.6965 10.2969 55.3065 9.74693C54.9265 9.18693 54.4115 8.90693 53.7615 8.90693C53.1715 8.90693 52.7065 9.16693 52.3665 9.68693C52.0365 10.2069 51.8715 10.9719 51.8715 11.9819C51.8715 12.9919 52.0365 13.7569 52.3665 14.2769C52.7065 14.7969 53.1715 15.0569 53.7615 15.0569ZM60.392 16.4819V7.48193H62.417V9.10193H62.777C62.837 8.81193 62.947 8.53693 63.107 8.27693C63.267 8.01693 63.517 7.80693 63.857 7.64693C64.197 7.47693 64.652 7.39193 65.222 7.39193H65.657V9.41693H65.057C64.197 9.41693 63.572 9.63693 63.182 10.0769C62.802 10.5169 62.612 11.1819 62.612 12.0719V16.4819H60.392ZM68.5374 16.4819C68.3074 16.2119 68.1224 15.8869 67.9824 15.5069C67.8524 15.1269 67.7874 14.5569 67.7874 13.7969V9.07193H66.5574V7.48193H67.8174V5.23193H69.9924V7.48193H71.4624V9.07193H70.0074V13.5419C70.0074 14.3419 70.0924 14.9519 70.2624 15.3719C70.4424 15.7819 70.6574 16.1219 70.9074 16.3919V16.4819H68.5374ZM75.6617 16.4819V16.3919L79.2617 4.78193H82.8917L86.4917 16.3919V16.4819H84.1217L81.1817 6.56693H80.8217L77.8517 16.4819H75.6617ZM78.4667 13.4369L78.9767 11.6669H83.0117L83.5217 13.4369H78.4667ZM90.4948 16.6769C89.6848 16.6769 89.0148 16.4769 88.4848 16.0769C87.9548 15.6769 87.5548 15.1219 87.2848 14.4119C87.0148 13.7019 86.8798 12.8869 86.8798 11.9669C86.8798 11.0269 87.0148 10.2069 87.2848 9.50693C87.5548 8.80693 87.9548 8.26193 88.4848 7.87193C89.0248 7.48193 89.6898 7.28693 90.4798 7.28693C91.0798 7.28693 91.5648 7.39693 91.9348 7.61693C92.3148 7.83693 92.6148 8.13193 92.8348 8.50193H93.1948V4.48193H95.4148V16.4819H93.3748V15.3119H93.0148C92.8148 15.6819 92.5098 16.0019 92.0998 16.2719C91.6998 16.5419 91.1648 16.6769 90.4948 16.6769ZM91.0798 15.0569C91.7198 15.0569 92.2298 14.7819 92.6098 14.2319C92.9998 13.6719 93.1948 12.9219 93.1948 11.9819C93.1948 11.0419 92.9998 10.2969 92.6098 9.74693C92.2298 9.18693 91.7198 8.90693 91.0798 8.90693C90.4798 8.90693 90.0148 9.16693 89.6848 9.68693C89.3548 10.2069 89.1898 10.9719 89.1898 11.9819C89.1898 12.9919 89.3548 13.7569 89.6848 14.2769C90.0148 14.7969 90.4798 15.0569 91.0798 15.0569ZM97.7253 16.4819V7.48193H99.7653V8.83193H100.125C100.295 8.38193 100.565 8.00693 100.935 7.70693C101.315 7.40693 101.845 7.25693 102.525 7.25693C103.145 7.25693 103.66 7.39693 104.07 7.67693C104.49 7.95693 104.805 8.34193 105.015 8.83193H105.375C105.555 8.37193 105.84 7.99693 106.23 7.70693C106.62 7.40693 107.145 7.25693 107.805 7.25693C108.785 7.25693 109.51 7.57693 109.98 8.21693C110.45 8.84693 110.685 9.69193 110.685 10.7519V16.4819H108.465V11.1419C108.465 10.4919 108.355 9.98693 108.135 9.62693C107.925 9.26693 107.58 9.08693 107.1 9.08693C106.52 9.08693 106.075 9.33193 105.765 9.82193C105.465 10.3119 105.315 10.9119 105.315 11.6219V16.4819H103.095V11.1419C103.095 10.4919 102.985 9.98693 102.765 9.62693C102.555 9.26693 102.215 9.08693 101.745 9.08693C101.165 9.08693 100.72 9.33193 100.41 9.82193C100.1 10.3119 99.9453 10.9119 99.9453 11.6219V16.4819H97.7253ZM112.878 16.4819V7.48193H115.098V16.4819H112.878ZM113.988 6.38693C113.588 6.38693 113.283 6.28193 113.073 6.07193C112.863 5.85193 112.758 5.57193 112.758 5.23193C112.758 4.89193 112.863 4.61693 113.073 4.40693C113.283 4.18693 113.588 4.07693 113.988 4.07693C114.388 4.07693 114.693 4.18693 114.903 4.40693C115.113 4.61693 115.218 4.89193 115.218 5.23193C115.218 5.57193 115.113 5.85193 114.903 6.07193C114.693 6.28193 114.388 6.38693 113.988 6.38693ZM120.668 16.7069C119.708 16.7069 118.938 16.5519 118.358 16.2419C117.778 15.9319 117.348 15.5369 117.068 15.0569C116.798 14.5769 116.648 14.0919 116.618 13.6019H118.733C118.783 13.8719 118.888 14.1269 119.048 14.3669C119.218 14.5969 119.443 14.7819 119.723 14.9219C120.003 15.0519 120.353 15.1169 120.773 15.1169C121.263 15.1169 121.623 15.0269 121.853 14.8469C122.083 14.6669 122.198 14.4319 122.198 14.1419C122.198 13.8819 122.093 13.6619 121.883 13.4819C121.683 13.3019 121.363 13.1369 120.923 12.9869L119.843 12.6269C119.333 12.4469 118.863 12.2519 118.433 12.0419C118.013 11.8219 117.673 11.5419 117.413 11.2019C117.163 10.8619 117.038 10.4269 117.038 9.89693C117.038 9.10693 117.333 8.47193 117.923 7.99193C118.523 7.50193 119.358 7.25693 120.428 7.25693C121.208 7.25693 121.848 7.38193 122.348 7.63193C122.848 7.87193 123.223 8.20193 123.473 8.62193C123.733 9.03193 123.883 9.49193 123.923 10.0019H121.883C121.833 9.63193 121.683 9.33693 121.433 9.11693C121.183 8.89693 120.823 8.78693 120.353 8.78693C119.943 8.78693 119.633 8.87193 119.423 9.04193C119.213 9.20193 119.108 9.42193 119.108 9.70193C119.108 9.98193 119.213 10.2169 119.423 10.4069C119.643 10.5869 119.978 10.7519 120.428 10.9019L121.493 11.2469C122.003 11.4069 122.468 11.5969 122.888 11.8169C123.318 12.0269 123.653 12.3019 123.893 12.6419C124.143 12.9819 124.268 13.4219 124.268 13.9619C124.268 14.7819 123.958 15.4469 123.338 15.9569C122.728 16.4569 121.838 16.7069 120.668 16.7069ZM129.105 16.7069C128.145 16.7069 127.375 16.5519 126.795 16.2419C126.215 15.9319 125.785 15.5369 125.505 15.0569C125.235 14.5769 125.085 14.0919 125.055 13.6019H127.17C127.22 13.8719 127.325 14.1269 127.485 14.3669C127.655 14.5969 127.88 14.7819 128.16 14.9219C128.44 15.0519 128.79 15.1169 129.21 15.1169C129.7 15.1169 130.06 15.0269 130.29 14.8469C130.52 14.6669 130.635 14.4319 130.635 14.1419C130.635 13.8819 130.53 13.6619 130.32 13.4819C130.12 13.3019 129.8 13.1369 129.36 12.9869L128.28 12.6269C127.77 12.4469 127.3 12.2519 126.87 12.0419C126.45 11.8219 126.11 11.5419 125.85 11.2019C125.6 10.8619 125.475 10.4269 125.475 9.89693C125.475 9.10693 125.77 8.47193 126.36 7.99193C126.96 7.50193 127.795 7.25693 128.865 7.25693C129.645 7.25693 130.285 7.38193 130.785 7.63193C131.285 7.87193 131.66 8.20193 131.91 8.62193C132.17 9.03193 132.32 9.49193 132.36 10.0019H130.32C130.27 9.63193 130.12 9.33693 129.87 9.11693C129.62 8.89693 129.26 8.78693 128.79 8.78693C128.38 8.78693 128.07 8.87193 127.86 9.04193C127.65 9.20193 127.545 9.42193 127.545 9.70193C127.545 9.98193 127.65 10.2169 127.86 10.4069C128.08 10.5869 128.415 10.7519 128.865 10.9019L129.93 11.2469C130.44 11.4069 130.905 11.5969 131.325 11.8169C131.755 12.0269 132.09 12.3019 132.33 12.6419C132.58 12.9819 132.705 13.4219 132.705 13.9619C132.705 14.7819 132.395 15.4469 131.775 15.9569C131.165 16.4569 130.275 16.7069 129.105 16.7069ZM134.288 16.4819V7.48193H136.508V16.4819H134.288ZM135.398 6.38693C134.998 6.38693 134.693 6.28193 134.483 6.07193C134.273 5.85193 134.168 5.57193 134.168 5.23193C134.168 4.89193 134.273 4.61693 134.483 4.40693C134.693 4.18693 134.998 4.07693 135.398 4.07693C135.798 4.07693 136.103 4.18693 136.313 4.40693C136.523 4.61693 136.628 4.89193 136.628 5.23193C136.628 5.57193 136.523 5.85193 136.313 6.07193C136.103 6.28193 135.798 6.38693 135.398 6.38693ZM142.558 16.7069C141.098 16.7069 140.008 16.2819 139.288 15.4319C138.578 14.5719 138.223 13.4219 138.223 11.9819C138.223 10.5419 138.578 9.39693 139.288 8.54693C140.008 7.68693 141.098 7.25693 142.558 7.25693C144.018 7.25693 145.108 7.68693 145.828 8.54693C146.548 9.39693 146.908 10.5419 146.908 11.9819C146.908 13.4219 146.548 14.5719 145.828 15.4319C145.108 16.2819 144.018 16.7069 142.558 16.7069ZM142.558 15.1619C143.268 15.1619 143.783 14.8919 144.103 14.3519C144.433 13.8119 144.598 13.0219 144.598 11.9819C144.598 10.9419 144.433 10.1519 144.103 9.61193C143.783 9.07193 143.268 8.80193 142.558 8.80193C141.858 8.80193 141.343 9.07193 141.013 9.61193C140.683 10.1519 140.518 10.9419 140.518 11.9819C140.518 13.0219 140.683 13.8119 141.013 14.3519C141.343 14.8919 141.858 15.1619 142.558 15.1619ZM148.596 16.4819V7.48193H150.636V8.83193H150.996C151.176 8.37193 151.456 7.99693 151.836 7.70693C152.226 7.40693 152.776 7.25693 153.486 7.25693C154.506 7.25693 155.261 7.57693 155.751 8.21693C156.241 8.84693 156.486 9.69193 156.486 10.7519V16.4819H154.266V11.1419C154.266 10.4819 154.146 9.97693 153.906 9.62693C153.676 9.26693 153.301 9.08693 152.781 9.08693C152.161 9.08693 151.676 9.33193 151.326 9.82193C150.986 10.3019 150.816 10.9019 150.816 11.6219V16.4819H148.596ZM161.924 16.7069C160.964 16.7069 160.194 16.5519 159.614 16.2419C159.034 15.9319 158.604 15.5369 158.324 15.0569C158.054 14.5769 157.904 14.0919 157.874 13.6019H159.989C160.039 13.8719 160.144 14.1269 160.304 14.3669C160.474 14.5969 160.699 14.7819 160.979 14.9219C161.259 15.0519 161.609 15.1169 162.029 15.1169C162.519 15.1169 162.879 15.0269 163.109 14.8469C163.339 14.6669 163.454 14.4319 163.454 14.1419C163.454 13.8819 163.349 13.6619 163.139 13.4819C162.939 13.3019 162.619 13.1369 162.179 12.9869L161.099 12.6269C160.589 12.4469 160.119 12.2519 159.689 12.0419C159.269 11.8219 158.929 11.5419 158.669 11.2019C158.419 10.8619 158.294 10.4269 158.294 9.89693C158.294 9.10693 158.589 8.47193 159.179 7.99193C159.779 7.50193 160.614 7.25693 161.684 7.25693C162.464 7.25693 163.104 7.38193 163.604 7.63193C164.104 7.87193 164.479 8.20193 164.729 8.62193C164.989 9.03193 165.139 9.49193 165.179 10.0019H163.139C163.089 9.63193 162.939 9.33693 162.689 9.11693C162.439 8.89693 162.079 8.78693 161.609 8.78693C161.199 8.78693 160.889 8.87193 160.679 9.04193C160.469 9.20193 160.364 9.42193 160.364 9.70193C160.364 9.98193 160.469 10.2169 160.679 10.4069C160.899 10.5869 161.234 10.7519 161.684 10.9019L162.749 11.2469C163.259 11.4069 163.724 11.5969 164.144 11.8169C164.574 12.0269 164.909 12.3019 165.149 12.6419C165.399 12.9819 165.524 13.4219 165.524 13.9619C165.524 14.7819 165.214 15.4469 164.594 15.9569C163.984 16.4569 163.094 16.7069 161.924 16.7069Z" fill="#1F2937"/>
<path d="M25.0797 35.4189V28.9561H27.7809C28.6094 28.9561 29.2143 29.1329 29.5954 29.4864C29.9766 29.8344 30.1671 30.3039 30.1671 30.895C30.1671 31.486 29.9766 31.9583 29.5954 32.3118C29.2198 32.6654 28.615 32.8421 27.7809 32.8421H26.4552V35.4189H25.0797ZM26.4552 31.7981H27.5737C27.9493 31.7981 28.2421 31.7346 28.452 31.6075C28.6674 31.475 28.7751 31.2402 28.7751 30.9033C28.7751 30.5718 28.6674 30.3398 28.452 30.2073C28.2421 30.0692 27.9493 30.0001 27.5737 30.0001H26.4552V31.7981ZM33.1461 35.5432C32.323 35.5432 31.7071 35.3085 31.2984 34.839C30.8951 34.3639 30.6935 33.7287 30.6935 32.9333C30.6935 32.1378 30.8951 31.5054 31.2984 31.0358C31.7071 30.5608 32.323 30.3233 33.1461 30.3233C33.9691 30.3233 34.5823 30.5608 34.9855 31.0358C35.3942 31.5054 35.5986 32.1378 35.5986 32.9333C35.5986 33.7287 35.3942 34.3639 34.9855 34.839C34.5823 35.3085 33.9691 35.5432 33.1461 35.5432ZM33.1461 34.6484C33.5106 34.6484 33.7785 34.5048 33.9498 34.2175C34.121 33.9303 34.2066 33.4994 34.2066 32.925C34.2066 32.356 34.121 31.9307 33.9498 31.649C33.7785 31.3617 33.5106 31.2181 33.1461 31.2181C32.7815 31.2181 32.5136 31.3617 32.3424 31.649C32.1711 31.9307 32.0855 32.356 32.0855 32.925C32.0855 33.4994 32.1711 33.9303 32.3424 34.2175C32.5136 34.5048 32.7815 34.6484 33.1461 34.6484ZM36.9472 35.4189L36.1933 30.4558V30.4476H37.4361L38.0244 34.4247H38.2232L38.9109 30.4476H41.0486L41.7363 34.4247H41.9352L42.5235 30.4476H43.6835V30.4558L42.9295 35.4189H40.7421L40.0378 31.417H39.8389L39.1347 35.4189H36.9472ZM46.6886 35.5432C45.9042 35.5432 45.3049 35.3085 44.8906 34.839C44.4818 34.3694 44.2774 33.7314 44.2774 32.925C44.2774 32.3836 44.3686 31.9196 44.5509 31.533C44.7387 31.1463 45.0093 30.848 45.3629 30.6381C45.7219 30.4282 46.1583 30.3233 46.672 30.3233C47.4122 30.3233 47.9784 30.547 48.3706 30.9944C48.7683 31.4418 48.9671 32.0992 48.9671 32.9664V33.2481H45.5866C45.6142 33.6679 45.7219 33.9993 45.9097 34.2424C46.1031 34.4799 46.3627 34.5987 46.6886 34.5987C46.9482 34.5987 47.1553 34.5213 47.31 34.3667C47.4702 34.212 47.5751 34.0325 47.6248 33.8281H48.9008C48.8511 34.1319 48.7406 34.4136 48.5694 34.6732C48.3982 34.9329 48.1579 35.1428 47.8486 35.3029C47.5392 35.4631 47.1526 35.5432 46.6886 35.5432ZM45.5866 32.403H47.658C47.6359 32.0274 47.542 31.7374 47.3763 31.533C47.2106 31.3231 46.973 31.2181 46.6637 31.2181C46.3599 31.2181 46.1141 31.3176 45.9263 31.5164C45.744 31.7097 45.6308 32.0053 45.5866 32.403ZM49.8161 35.4189V30.4476H51.0424V31.359H51.2413C51.2744 31.1933 51.3352 31.0386 51.4236 30.895C51.5175 30.7458 51.6583 30.6271 51.8461 30.5387C52.0339 30.4448 52.2853 30.3978 52.6001 30.3978H52.8653V31.6075H52.5007C52.0312 31.6075 51.6887 31.7263 51.4733 31.9638C51.2634 32.2014 51.1584 32.5576 51.1584 33.0327V35.4189H49.8161ZM55.5536 35.5432C54.7692 35.5432 54.1699 35.3085 53.7556 34.839C53.3468 34.3694 53.1424 33.7314 53.1424 32.925C53.1424 32.3836 53.2336 31.9196 53.4159 31.533C53.6037 31.1463 53.8743 30.848 54.2279 30.6381C54.5869 30.4282 55.0233 30.3233 55.537 30.3233C56.2772 30.3233 56.8434 30.547 57.2355 30.9944C57.6333 31.4418 57.8321 32.0992 57.8321 32.9664V33.2481H54.4516C54.4792 33.6679 54.5869 33.9993 54.7747 34.2424C54.968 34.4799 55.2277 34.5987 55.5536 34.5987C55.8132 34.5987 56.0203 34.5213 56.175 34.3667C56.3352 34.212 56.4401 34.0325 56.4898 33.8281H57.7658C57.7161 34.1319 57.6056 34.4136 57.4344 34.6732C57.2632 34.9329 57.0229 35.1428 56.7136 35.3029C56.4042 35.4631 56.0176 35.5432 55.5536 35.5432ZM54.4516 32.403H56.523C56.5009 32.0274 56.407 31.7374 56.2413 31.533C56.0756 31.3231 55.838 31.2181 55.5287 31.2181C55.2249 31.2181 54.9791 31.3176 54.7913 31.5164C54.609 31.7097 54.4958 32.0053 54.4516 32.403ZM60.3548 35.5184C59.9019 35.5184 59.529 35.4079 59.2363 35.1869C58.9435 34.9605 58.7253 34.6511 58.5817 34.259C58.4381 33.8668 58.3663 33.4221 58.3663 32.925C58.3663 32.4113 58.4381 31.9611 58.5817 31.5744C58.7308 31.1877 58.9518 30.8867 59.2446 30.6713C59.5428 30.4558 59.9129 30.3481 60.3548 30.3481C60.6807 30.3481 60.9459 30.4061 61.1503 30.5221C61.3602 30.6381 61.5259 30.7956 61.6474 30.9944H61.8462V28.7904H63.1885V35.4189H61.9457V34.7727H61.7468C61.6308 34.9826 61.4623 35.1593 61.2414 35.3029C61.0204 35.4466 60.7249 35.5184 60.3548 35.5184ZM60.736 34.5738C61.0729 34.5738 61.3408 34.4274 61.5397 34.1347C61.7441 33.8364 61.8462 33.4359 61.8462 32.9333C61.8462 32.4251 61.7441 32.0246 61.5397 31.7318C61.3408 31.4391 61.0729 31.2927 60.736 31.2927C60.4322 31.2927 60.1919 31.4308 60.0151 31.707C59.8439 31.9776 59.7583 32.3864 59.7583 32.9333C59.7583 33.4801 59.8439 33.8916 60.0151 34.1678C60.1919 34.4385 60.4322 34.5738 60.736 34.5738ZM69.2409 35.5184C68.8708 35.5184 68.5753 35.4466 68.3544 35.3029C68.1334 35.1593 67.9649 34.9826 67.8489 34.7727H67.6501V35.4189H66.4072V28.7904H67.7495V30.9944H67.9484C68.0699 30.7956 68.2356 30.6381 68.4455 30.5221C68.6554 30.4061 68.9205 30.3481 69.2409 30.3481C69.6828 30.3481 70.0502 30.4558 70.3429 30.6713C70.6412 30.8867 70.8621 31.1877 71.0058 31.5744C71.1549 31.9611 71.2295 32.4113 71.2295 32.925C71.2295 33.4221 71.1577 33.8668 71.014 34.259C70.8704 34.6511 70.6522 34.9605 70.3595 35.1869C70.0667 35.4079 69.6939 35.5184 69.2409 35.5184ZM68.8598 34.5738C69.1636 34.5738 69.4011 34.4385 69.5723 34.1678C69.7491 33.8916 69.8375 33.4801 69.8375 32.9333C69.8375 32.3864 69.7491 31.9776 69.5723 31.707C69.4011 31.4308 69.1636 31.2927 68.8598 31.2927C68.5228 31.2927 68.2522 31.4391 68.0478 31.7318C67.8489 32.0246 67.7495 32.4251 67.7495 32.9333C67.7495 33.4359 67.8489 33.8364 68.0478 34.1347C68.2522 34.4274 68.5228 34.5738 68.8598 34.5738ZM72.3454 37.0761V37.0595C72.4835 36.833 72.6327 36.5706 72.7929 36.2724C72.9531 35.9741 73.0939 35.6896 73.2154 35.4189L71.5086 30.4973V30.4476H72.8343L73.348 31.939C73.4309 32.1765 73.5137 32.4306 73.5966 32.7013C73.6794 32.9719 73.7623 33.3144 73.8452 33.7287H74.044C74.1269 33.3144 74.2097 32.9719 74.2926 32.7013C74.3754 32.4306 74.4583 32.1765 74.5411 31.939L75.0549 30.4476H76.3143V30.4973L74.7897 34.7395C74.5909 35.2974 74.3975 35.7725 74.2097 36.1647C74.0274 36.5624 73.8728 36.8662 73.7457 37.0761H72.3454Z" fill="#1F2937"/>
<path d="M97.3669 34.0285C96.7262 34.6305 96.2179 35.1093 95.7966 35.5039C94.78 34.5555 93.6618 33.6768 92.7589 32.616C91.9457 31.661 91.9898 30.4625 92.6653 29.4005C93.0345 28.82 93.5775 28.3518 94.0805 27.79C94.6663 28.3398 95.1907 28.8307 95.7498 29.355C95.604 29.5142 95.4769 29.6573 95.3458 29.7964C94.6101 30.5722 94.5941 31.3627 95.3538 32.1318C95.9731 32.7605 96.6379 33.345 97.3669 34.0285Z" fill="#1F2937"/>
<path d="M87.2214 25.5909C87.7016 25.9079 88.0654 26.2623 88.4988 26.4068C89.0231 26.582 89.5715 26.4616 89.9862 26.0135C90.6108 25.3381 91.2421 24.6679 91.8989 23.9644C92.5102 24.5409 93.0131 25.0144 93.5294 25.5012C92.5476 26.4911 91.6501 27.4956 90.6483 28.3797C89.6424 29.2665 88.0346 29.1756 86.9913 28.3021C85.7072 27.2281 85.7086 27.2294 86.8388 26.0162C86.9752 25.8704 87.105 25.7206 87.2214 25.5909Z" fill="#1F2937"/>
<path d="M92.3188 37.2466C91.8386 36.9296 91.4748 36.5752 91.0414 36.4307C90.5171 36.2555 89.9687 36.3759 89.554 36.824C88.9294 37.4994 88.298 38.1696 87.6413 38.8732C87.03 38.2967 86.5271 37.8231 86.0107 37.3363C86.9925 36.3464 87.89 35.3419 88.8919 34.4578C89.8978 33.571 91.5055 33.6619 92.5489 34.5354C93.8329 35.6094 93.8316 35.6081 92.7013 36.8213C92.5649 36.9658 92.4352 37.1169 92.3188 37.2466Z" fill="#1F2937"/>
<path d="M83.7369 34.0139C85.0156 32.3847 85.0022 32.1426 83.5884 30.6859C83.2259 30.3128 82.834 29.965 82.5009 29.5677C82.4073 29.4554 82.3953 29.1451 82.4836 29.0354C82.834 28.6007 83.2379 28.2087 83.5924 27.8315C84.621 28.82 85.7178 29.7109 86.6073 30.7742C87.4727 31.8095 87.2935 33.2942 86.4 34.3148C86.071 34.6907 85.7178 35.0451 85.3219 35.4665C84.7802 34.9689 84.2719 34.5034 83.7369 34.0139Z" fill="#1F2937"/>
<path d="M91.1738 33.1012C90.0275 32.4659 89.0056 32.3897 87.8539 33.12C88.4706 31.9509 88.5334 30.9089 87.7764 29.7426C88.9401 30.4033 89.9887 30.4889 91.2073 29.7158C90.4823 30.8969 90.477 31.9456 91.1738 33.1012Z" fill="#01AEE0"/>
<path d="M101.999 35.4189V30.0498H100.085V28.9561H105.305V30.0498H103.391V35.4189H101.999ZM107.363 35.5184C106.899 35.5184 106.518 35.4079 106.22 35.1869C105.922 34.9605 105.701 34.6511 105.557 34.259C105.414 33.8668 105.342 33.4221 105.342 32.925C105.342 32.4113 105.414 31.9611 105.557 31.5744C105.706 31.1877 105.93 30.8867 106.228 30.6713C106.527 30.4558 106.902 30.3481 107.355 30.3481C107.703 30.3481 107.988 30.4172 108.209 30.5553C108.435 30.6878 108.606 30.8674 108.722 31.0938H108.921V30.4476H110.164V35.4189H108.921V34.7727H108.722C108.606 34.9826 108.438 35.1593 108.217 35.3029C107.996 35.4466 107.711 35.5184 107.363 35.5184ZM107.711 34.5738C108.048 34.5738 108.316 34.4274 108.515 34.1347C108.72 33.8364 108.822 33.4359 108.822 32.9333C108.822 32.4251 108.72 32.0246 108.515 31.7318C108.316 31.4391 108.048 31.2927 107.711 31.2927C107.408 31.2927 107.167 31.4308 106.991 31.707C106.819 31.9776 106.734 32.3864 106.734 32.9333C106.734 33.4801 106.819 33.8916 106.991 34.1678C107.167 34.4385 107.408 34.5738 107.711 34.5738ZM111.798 35.4189C111.644 35.2422 111.533 35.0433 111.467 34.8224C111.406 34.5959 111.376 34.3004 111.376 33.9358V28.7904H112.718V33.795C112.718 34.2148 112.765 34.5434 112.859 34.781C112.953 35.0129 113.077 35.209 113.232 35.3692V35.4189H111.798ZM116.074 35.5432C115.29 35.5432 114.69 35.3085 114.276 34.839C113.867 34.3694 113.663 33.7314 113.663 32.925C113.663 32.3836 113.754 31.9196 113.936 31.533C114.124 31.1463 114.395 30.848 114.748 30.6381C115.107 30.4282 115.544 30.3233 116.058 30.3233C116.798 30.3233 117.364 30.547 117.756 30.9944C118.154 31.4418 118.353 32.0992 118.353 32.9664V33.2481H114.972C115 33.6679 115.107 33.9993 115.295 34.2424C115.489 34.4799 115.748 34.5987 116.074 34.5987C116.334 34.5987 116.541 34.5213 116.696 34.3667C116.856 34.212 116.961 34.0325 117.01 33.8281H118.286C118.237 34.1319 118.126 34.4136 117.955 34.6732C117.784 34.9329 117.543 35.1428 117.234 35.3029C116.925 35.4631 116.538 35.5432 116.074 35.5432ZM114.972 32.403H117.044C117.021 32.0274 116.928 31.7374 116.762 31.533C116.596 31.3231 116.359 31.2181 116.049 31.2181C115.745 31.2181 115.5 31.3176 115.312 31.5164C115.13 31.7097 115.016 32.0053 114.972 32.403ZM119.218 35.4189V30.4476H120.461V31.1933H120.66C120.759 30.9447 120.911 30.7376 121.116 30.5718C121.326 30.4061 121.632 30.3233 122.035 30.3233C122.588 30.3233 123.002 30.4973 123.278 30.8453C123.554 31.1933 123.693 31.6655 123.693 32.2621V35.4189H122.35V32.4858C122.35 32.1434 122.289 31.881 122.168 31.6987C122.046 31.5109 121.848 31.417 121.571 31.417C121.251 31.417 121.002 31.544 120.826 31.7981C120.649 32.0467 120.561 32.3588 120.561 32.7344V35.4189H119.218ZM125.579 35.4189C125.452 35.2698 125.35 35.0903 125.272 34.8804C125.201 34.6705 125.165 34.3556 125.165 33.9358V31.3921H124.485V30.4476H125.181V29.2047H126.499V30.4476H127.302V31.3921H126.499V33.795C126.499 34.2313 126.548 34.5655 126.648 34.7975C126.747 35.0295 126.866 35.2201 127.004 35.3692V35.4189H125.579ZM128.567 35.4189C128.412 35.2422 128.302 35.0433 128.236 34.8224C128.175 34.5959 128.144 34.3004 128.144 33.9358V28.7904H129.487V33.795C129.487 34.2148 129.534 34.5434 129.627 34.781C129.721 35.0129 129.846 35.209 130 35.3692V35.4189H128.567ZM131.07 37.0761V37.0595C131.208 36.833 131.357 36.5706 131.517 36.2724C131.677 35.9741 131.818 35.6896 131.94 35.4189L130.233 30.4973V30.4476H131.559L132.072 31.939C132.155 32.1765 132.238 32.4306 132.321 32.7013C132.404 32.9719 132.487 33.3144 132.569 33.7287H132.768C132.851 33.3144 132.934 32.9719 133.017 32.7013C133.1 32.4306 133.183 32.1765 133.265 31.939L133.779 30.4476H135.039V30.4973L133.514 34.7395C133.315 35.2974 133.122 35.7725 132.934 36.1647C132.752 36.5624 132.597 36.8662 132.47 37.0761H131.07ZM135.79 35.4687C135.53 35.4687 135.331 35.3969 135.193 35.2532C135.055 35.1041 134.986 34.9108 134.986 34.6732C134.986 34.4302 135.055 34.2369 135.193 34.0932C135.331 33.9496 135.53 33.8778 135.79 33.8778C136.05 33.8778 136.246 33.9496 136.378 34.0932C136.511 34.2369 136.577 34.4302 136.577 34.6732C136.577 34.9108 136.511 35.1041 136.378 35.2532C136.246 35.3969 136.05 35.4687 135.79 35.4687ZM139.328 35.5184C138.864 35.5184 138.483 35.4079 138.184 35.1869C137.886 34.9605 137.665 34.6511 137.522 34.259C137.378 33.8668 137.306 33.4221 137.306 32.925C137.306 32.4113 137.378 31.9611 137.522 31.5744C137.671 31.1877 137.894 30.8867 138.193 30.6713C138.491 30.4558 138.867 30.3481 139.32 30.3481C139.668 30.3481 139.952 30.4172 140.173 30.5553C140.4 30.6878 140.571 30.8674 140.687 31.0938H140.886V30.4476H142.128V35.4189H140.886V34.7727H140.687C140.571 34.9826 140.402 35.1593 140.181 35.3029C139.96 35.4466 139.676 35.5184 139.328 35.5184ZM139.676 34.5738C140.013 34.5738 140.281 34.4274 140.48 34.1347C140.684 33.8364 140.786 33.4359 140.786 32.9333C140.786 32.4251 140.684 32.0246 140.48 31.7318C140.281 31.4391 140.013 31.2927 139.676 31.2927C139.372 31.2927 139.132 31.4308 138.955 31.707C138.784 31.9776 138.698 32.3864 138.698 32.9333C138.698 33.4801 138.784 33.8916 138.955 34.1678C139.132 34.4385 139.372 34.5738 139.676 34.5738ZM143.357 35.4189V30.4476H144.699V35.4189H143.357ZM144.028 29.8759C143.79 29.8759 143.611 29.8151 143.489 29.6936C143.368 29.5665 143.307 29.4036 143.307 29.2047C143.307 29.0059 143.368 28.8457 143.489 28.7241C143.611 28.5971 143.79 28.5336 144.028 28.5336C144.265 28.5336 144.445 28.5971 144.566 28.7241C144.688 28.8457 144.749 29.0059 144.749 29.2047C144.749 29.4036 144.688 29.5665 144.566 29.6936C144.445 29.8151 144.265 29.8759 144.028 29.8759Z" fill="#1F2937"/>
</svg>
