<svg width="19" height="21" viewBox="0 0 19 21" fill="none" xmlns="http://www.w3.org/2000/svg">
<g clip-path="url(#clip0_1_2970)">
<path d="M16.875 1.75H1.87109C1.18359 1.75 0.625 2.31641 0.625 3.01172V17.9883C0.625 18.6836 1.18359 19.25 1.87109 19.25H16.875C17.5625 19.25 18.125 18.6836 18.125 17.9883V3.01172C18.125 2.31641 17.5625 1.75 16.875 1.75ZM5.91406 16.75H3.32031V8.39844H5.91797V16.75H5.91406ZM4.61719 7.25781C3.78516 7.25781 3.11328 6.58203 3.11328 5.75391C3.11328 4.92578 3.78516 4.25 4.61719 4.25C5.44531 4.25 6.12109 4.92578 6.12109 5.75391C6.12109 6.58594 5.44922 7.25781 4.61719 7.25781ZM15.6367 16.75H13.043V12.6875C13.043 11.7188 13.0234 10.4727 11.6953 10.4727C10.3438 10.4727 10.1367 11.5273 10.1367 12.6172V16.75H7.54297V8.39844H10.0312V9.53906H10.0664C10.4141 8.88281 11.2617 8.19141 12.5234 8.19141C15.1484 8.19141 15.6367 9.92188 15.6367 12.1719V16.75Z" fill="#7A7B85"/>
</g>
<defs>
<clipPath id="clip0_1_2970">
<rect width="17.5" height="20" fill="white" transform="translate(0.625 0.5)"/>
</clipPath>
</defs>
</svg>
