<svg width="199" height="43" viewBox="0 0 199 43" fill="none" xmlns="http://www.w3.org/2000/svg">
<path fill-rule="evenodd" clip-rule="evenodd" d="M14.8323 6.20002C12.3141 6.45564 10.2975 12.995 10.2975 21.0246C10.2975 29.0541 12.3141 35.5935 14.8323 35.8491V35.8567C6.64064 35.8567 0 29.2161 0 21.0244C0 12.8328 6.64064 6.19212 14.8323 6.19212V6.20002Z" fill="url(#paint0_linear_1_233)"/>
<path fill-rule="evenodd" clip-rule="evenodd" d="M18.9043 34.7812C20.0001 34.7812 20.9683 32.4541 21.5518 28.8963C21.9695 30.9168 22.5485 32.168 23.1884 32.168C24.0599 32.168 24.8185 29.8467 25.2105 26.4218C25.6134 27.7885 26.1685 28.6331 26.7814 28.6331C28.0122 28.6331 29.01 25.2267 29.01 21.0248C29.01 16.8228 28.0122 13.4165 26.7814 13.4165C26.162 13.4165 25.6017 14.279 25.1977 15.6713C24.8023 12.3067 24.0506 10.0349 23.1884 10.0349C22.5556 10.0349 21.9824 11.2584 21.5658 13.2394C20.9839 9.63309 20.0089 7.26842 18.9043 7.26842C17.1217 7.26842 15.6766 13.4274 15.6766 21.0248C15.6766 28.6222 17.1217 34.7812 18.9043 34.7812Z" fill="url(#paint1_linear_1_233)"/>
<path fill-rule="evenodd" clip-rule="evenodd" d="M68.304 29.0315C67.6962 29.0315 67.1045 28.963 66.5361 28.8332C70.0544 28.0302 72.6797 24.8817 72.6797 21.12C72.6797 17.3583 70.0544 14.2098 66.5361 13.4067C67.1045 13.277 67.6962 13.2084 68.304 13.2084C72.6734 13.2084 76.2155 16.7505 76.2155 21.12C76.2155 25.4894 72.6734 29.0315 68.304 29.0315ZM62.417 21.1199C62.417 18.7482 64.0085 16.7547 66.1641 16.1849C65.7533 16.0781 65.3225 16.0214 64.8783 16.0214C62.0625 16.0214 59.7798 18.3041 59.7798 21.1199C59.7798 23.9358 62.0625 26.2185 64.8783 26.2185C65.3225 26.2185 65.7533 26.1617 66.1641 26.055C64.0085 25.4851 62.417 23.4916 62.417 21.1199Z" fill="white"/>
<path d="M184.65 29.0317V13.0179H187.761V19.3548L193.732 13.0179H197.827L191.65 19.4234L198.399 29.0317H194.51L189.523 21.6653L187.761 23.4726V29.0317H184.65Z" fill="white"/>
<path d="M174.635 29.2141C173.186 29.2141 171.859 28.9015 170.654 28.2762C169.449 27.6509 168.481 26.7206 167.749 25.4852C167.032 24.2499 166.674 22.7629 166.674 21.0243C166.674 19.2856 167.04 17.7986 167.772 16.5633C168.504 15.328 169.472 14.3976 170.677 13.7723C171.882 13.147 173.201 12.8344 174.635 12.8344C175.9 12.8344 177.037 13.0555 178.043 13.4978C179.05 13.9248 179.873 14.5425 180.514 15.3508C181.155 16.1591 181.566 17.0971 181.749 18.1647L178.661 18.8052C178.463 17.7834 177.998 16.9827 177.265 16.4032C176.549 15.8084 175.672 15.511 174.635 15.511C173.72 15.511 172.896 15.7245 172.164 16.1515C171.447 16.5786 170.875 17.2115 170.448 18.0503C170.036 18.8739 169.831 19.8652 169.831 21.0243C169.831 22.1834 170.036 23.1823 170.448 24.0211C170.86 24.8447 171.432 25.47 172.164 25.897C172.896 26.3088 173.72 26.5147 174.635 26.5147C175.672 26.5147 176.533 26.2478 177.22 25.714C177.906 25.1802 178.356 24.4405 178.569 23.495L181.704 24.1813C181.307 25.7521 180.483 26.9875 179.233 27.8873C177.998 28.7719 176.465 29.2141 174.635 29.2141Z" fill="white"/>
<path d="M157.144 29.2147C155.222 29.2147 153.689 28.6961 152.546 27.6591C151.402 26.622 150.83 25.1426 150.83 23.221V13.0179H153.758V23.2438C153.758 24.2962 154.063 25.1045 154.673 25.6688C155.283 26.2178 156.107 26.4923 157.144 26.4923C158.181 26.4923 159.005 26.2178 159.615 25.6688C160.24 25.1045 160.553 24.2962 160.553 23.2438V13.0179H163.458V23.221C163.458 25.1426 162.886 26.622 161.742 27.6591C160.598 28.6961 159.066 29.2147 157.144 29.2147Z" fill="white"/>
<path d="M146.896 13.0179V29.0317H143.785V22.0543H136.762V29.0317H133.65V13.0179H136.762V19.3777H143.785V13.0179H146.896Z" fill="white"/>
<path d="M123.635 29.2141C122.186 29.2141 120.859 28.9015 119.654 28.2762C118.449 27.6509 117.481 26.7206 116.749 25.4852C116.032 24.2499 115.674 22.7629 115.674 21.0243C115.674 19.2856 116.04 17.7986 116.772 16.5633C117.504 15.328 118.472 14.3976 119.677 13.7723C120.882 13.147 122.201 12.8344 123.635 12.8344C124.9 12.8344 126.037 13.0555 127.043 13.4978C128.05 13.9248 128.873 14.5425 129.514 15.3508C130.154 16.1591 130.566 17.0971 130.749 18.1647L127.661 18.8052C127.463 17.7834 126.998 16.9827 126.265 16.4032C125.549 15.8084 124.672 15.511 123.635 15.511C122.72 15.511 121.896 15.7245 121.164 16.1515C120.447 16.5786 119.875 17.2115 119.448 18.0503C119.036 18.8739 118.83 19.8652 118.83 21.0243C118.83 22.1834 119.036 23.1823 119.448 24.0211C119.86 24.8447 120.432 25.47 121.164 25.897C121.896 26.3088 122.72 26.5147 123.635 26.5147C124.672 26.5147 125.533 26.2478 126.22 25.714C126.906 25.1802 127.356 24.4405 127.569 23.495L130.704 24.1813C130.307 25.7521 129.483 26.9875 128.233 27.8873C126.998 28.7719 125.465 29.2141 123.635 29.2141Z" fill="white"/>
<path d="M99.4932 13.0179H102.65L109.513 24.136V13.0179H112.419V29.0317H109.262L102.421 17.9364V29.0317H99.4932V13.0179Z" fill="white"/>
<path d="M88.1617 29.2141C86.6213 29.2141 85.2335 28.8634 83.9981 28.1618C82.7628 27.445 81.7943 26.4689 81.0928 25.2336C80.3912 23.983 80.0404 22.5799 80.0404 21.0243C80.0404 19.4686 80.3912 18.0732 81.0928 16.8378C81.7943 15.5872 82.7628 14.6112 83.9981 13.9096C85.2335 13.1928 86.6213 12.8344 88.1617 12.8344C89.7021 12.8344 91.0823 13.1928 92.3024 13.9096C93.5377 14.6112 94.5062 15.5872 95.2077 16.8378C95.9093 18.0732 96.2601 19.4686 96.2601 21.0243C96.2601 22.5799 95.9093 23.983 95.2077 25.2336C94.5062 26.4689 93.5377 27.445 92.3024 28.1618C91.0823 28.8634 89.7021 29.2141 88.1617 29.2141ZM88.1617 26.5147C89.1225 26.5147 89.9766 26.2783 90.7239 25.8055C91.4712 25.3327 92.0584 24.6845 92.4854 23.861C92.9124 23.0222 93.1259 22.0766 93.1259 21.0243C93.1259 19.9719 92.9124 19.0264 92.4854 18.1875C92.0584 17.3487 91.4712 16.6929 90.7239 16.2201C89.9766 15.7474 89.1225 15.511 88.1617 15.511C87.2009 15.511 86.3392 15.7474 85.5766 16.2201C84.8293 16.6929 84.2421 17.3487 83.8151 18.1875C83.3881 19.0264 83.1746 19.9719 83.1746 21.0243C83.1746 22.0766 83.3881 23.0222 83.8151 23.861C84.2421 24.6845 84.8293 25.3327 85.5766 25.8055C86.3392 26.2783 87.2009 26.5147 88.1617 26.5147Z" fill="white"/>
<path d="M38.2261 13.0179H41.7262L46.6218 24.6164L51.5175 13.0179H55.0176V29.0317H52.0894V18.8058L47.7886 29.0317H45.4551L41.1543 18.8058V29.0317H38.2261V13.0179Z" fill="white"/>
<defs>
<linearGradient id="paint0_linear_1_233" x1="-1.53703" y1="22.7151" x2="10.4518" y2="22.7151" gradientUnits="userSpaceOnUse">
<stop stop-color="#8F5AF3"/>
<stop offset="1" stop-color="#ADEEFF"/>
</linearGradient>
<linearGradient id="paint1_linear_1_233" x1="27.973" y1="21.1016" x2="15.6766" y2="21.1016" gradientUnits="userSpaceOnUse">
<stop stop-color="#8F5AF3"/>
<stop offset="1" stop-color="#ADEEFF"/>
</linearGradient>
</defs>
</svg>
