<svg width="170" height="39" viewBox="0 0 170 39" fill="none" xmlns="http://www.w3.org/2000/svg">
<path d="M17.073 18.0362V20.9633H2.92703C1.31052 20.9633 0 19.6527 0 18.0362V14.3342C0 12.7177 1.31052 11.4071 2.92703 11.4071H12.2959C13.9124 11.4071 15.223 12.7177 15.223 14.3342H15.2089L15.2219 14.3362V16.1872H12.2949V14.3332H2.92803V18.0352H17.073V18.0362Z" fill="#017DC0"/>
<path d="M17.073 4.77906V2.92803H2.92803V6.6301H17.073C18.6895 6.6301 20 7.94061 20 9.55712V18.0372C20 19.5179 18.9009 20.7418 17.4756 20.9351C17.3447 20.9542 17.2109 20.9643 17.075 20.9643H17.074V9.55612H2.92803C1.31153 9.55612 0 8.2456 0 6.62909V2.92703C0 1.31052 1.31153 0 2.92803 0H17.073C18.6895 0 20 1.31052 20 2.92703V4.77806H17.073V4.77906Z" fill="#00B5E8"/>
<path d="M20 2.92803H17.073V4.77906H20V2.92803Z" fill="#00B5E8"/>
<path d="M17.073 2.92803H20L17.073 3.74635V2.92803Z" fill="#2495E1"/>
<path opacity="0.4" d="M12.296 14.3322H15.222L12.296 15.1515V14.3322Z" fill="#014199"/>
<path opacity="0.4" d="M17.073 18.0362V20.9633H16.1681L17.073 18.0362Z" fill="#014199"/>
<path opacity="0.5" d="M2.77807 11.9044C2.11173 11.9044 1.50378 12.159 1.0448 12.5747C1.51385 12.0705 2.18421 11.7554 2.92603 11.7554H12.2949C13.7172 11.7554 14.8747 12.9129 14.8747 14.3352L14.8737 14.3372V15.841H14.7257V14.4852L14.7267 14.4831C14.7267 13.0609 13.5692 11.9044 12.147 11.9044H2.77807Z" fill="white"/>
<path opacity="0.5" d="M16.7257 18.3835V20.617H16.5767V18.5325H2.43176V14.1359H2.58073V18.3835H16.7257Z" fill="white"/>
<path opacity="0.5" d="M19.6528 2.92703V4.43181H19.5048V3.07499C19.5048 1.65375 18.3473 0.496227 16.9251 0.496227H2.77912C2.0987 0.496227 1.47967 0.760949 1.01868 1.19276C1.49075 0.674387 2.17117 0.34726 2.92708 0.34726H17.072C18.4953 0.348266 19.6528 1.50478 19.6528 2.92703Z" fill="white"/>
<path opacity="0.5" d="M19.6527 9.55612V18.0362C19.6527 18.7771 19.3346 19.4555 18.8213 19.9285C19.2471 19.4665 19.5037 18.8495 19.5037 18.1842V9.70409C19.5037 8.28184 18.3462 7.12532 16.924 7.12532H2.43176V2.72774H2.57972V6.97636H17.0719C18.4952 6.97636 19.6527 8.13388 19.6527 9.55612Z" fill="white"/>
<path d="M28.8603 16.7071C27.9903 16.7071 27.2503 16.5921 26.6403 16.3621C26.0303 16.1221 25.5303 15.8071 25.1403 15.4171C24.7503 15.0171 24.4603 14.5771 24.2703 14.0971C24.0803 13.6171 23.9703 13.1321 23.9403 12.6421H26.0853C26.1153 13.0221 26.2353 13.3921 26.4453 13.7521C26.6553 14.1021 26.9653 14.3921 27.3753 14.6221C27.7953 14.8421 28.3153 14.9521 28.9353 14.9521C29.6153 14.9521 30.1253 14.8121 30.4653 14.5321C30.8153 14.2521 30.9903 13.8771 30.9903 13.4071C30.9903 12.9471 30.8353 12.5821 30.5253 12.3121C30.2153 12.0421 29.8103 11.8221 29.3103 11.6521L27.7653 11.1421C27.2153 10.9521 26.6903 10.7271 26.1903 10.4671C25.6903 10.2071 25.2803 9.86214 24.9603 9.43214C24.6403 9.00214 24.4803 8.44714 24.4803 7.76714C24.4803 7.07714 24.6503 6.49714 24.9903 6.02714C25.3403 5.54714 25.8203 5.18214 26.4303 4.93213C27.0403 4.68214 27.7403 4.55714 28.5303 4.55714C29.5403 4.55714 30.3453 4.73214 30.9453 5.08214C31.5453 5.42214 31.9853 5.85714 32.2653 6.38714C32.5453 6.91714 32.7103 7.48214 32.7603 8.08214H30.6153C30.5853 7.78214 30.4953 7.49714 30.3453 7.22714C30.2053 6.94714 29.9803 6.72214 29.6703 6.55214C29.3703 6.37214 28.9603 6.28214 28.4403 6.28214C27.8703 6.28214 27.4353 6.40714 27.1353 6.65714C26.8453 6.89714 26.7003 7.21214 26.7003 7.60214C26.7003 8.03214 26.8553 8.37214 27.1653 8.62214C27.4853 8.86214 27.9003 9.06714 28.4103 9.23714L29.9553 9.76214C30.5153 9.94214 31.0403 10.1671 31.5303 10.4371C32.0203 10.6971 32.4203 11.0471 32.7303 11.4871C33.0503 11.9271 33.2103 12.5071 33.2103 13.2271C33.2103 14.3171 32.8253 15.1721 32.0553 15.7921C31.2953 16.4021 30.2303 16.7071 28.8603 16.7071ZM35.0241 16.4821V7.48214H37.0641V8.83214H37.4241C37.5941 8.38214 37.8641 8.00714 38.2341 7.70714C38.6141 7.40714 39.1441 7.25714 39.8241 7.25714C40.4441 7.25714 40.9591 7.39714 41.3691 7.67714C41.7891 7.95714 42.1041 8.34214 42.3141 8.83214H42.6741C42.8541 8.37214 43.1391 7.99714 43.5291 7.70714C43.9191 7.40714 44.4441 7.25714 45.1041 7.25714C46.0841 7.25714 46.8091 7.57714 47.2791 8.21714C47.7491 8.84714 47.9841 9.69214 47.9841 10.7521V16.4821H45.7641V11.1421C45.7641 10.4921 45.6541 9.98714 45.4341 9.62714C45.2241 9.26714 44.8791 9.08714 44.3991 9.08714C43.8191 9.08714 43.3741 9.33214 43.0641 9.82214C42.7641 10.3121 42.6141 10.9121 42.6141 11.6221V16.4821H40.3941V11.1421C40.3941 10.4921 40.2841 9.98714 40.0641 9.62714C39.8541 9.26714 39.5141 9.08714 39.0441 9.08714C38.4641 9.08714 38.0191 9.33214 37.7091 9.82214C37.3991 10.3121 37.2441 10.9121 37.2441 11.6221V16.4821H35.0241ZM53.2215 16.6771C52.4015 16.6771 51.7215 16.4771 51.1815 16.0771C50.6415 15.6771 50.2365 15.1221 49.9665 14.4121C49.7065 13.7021 49.5765 12.8871 49.5765 11.9671C49.5765 11.0271 49.7115 10.2071 49.9815 9.50714C50.2515 8.80714 50.6565 8.26214 51.1965 7.87214C51.7365 7.48214 52.4115 7.28714 53.2215 7.28714C53.8615 7.28714 54.3815 7.41714 54.7815 7.67714C55.1915 7.92714 55.4965 8.25214 55.6965 8.65214H56.0565V7.48214H58.0965V16.4821H56.0565V15.3121H55.6965C55.4965 15.6821 55.1965 16.0021 54.7965 16.2721C54.3965 16.5421 53.8715 16.6771 53.2215 16.6771ZM53.7615 15.0571C54.4115 15.0571 54.9265 14.7821 55.3065 14.2321C55.6965 13.6721 55.8915 12.9221 55.8915 11.9821C55.8915 11.0421 55.6965 10.2971 55.3065 9.74714C54.9265 9.18714 54.4115 8.90714 53.7615 8.90714C53.1715 8.90714 52.7065 9.16714 52.3665 9.68714C52.0365 10.2071 51.8715 10.9721 51.8715 11.9821C51.8715 12.9921 52.0365 13.7571 52.3665 14.2771C52.7065 14.7971 53.1715 15.0571 53.7615 15.0571ZM60.392 16.4821V7.48214H62.417V9.10214H62.777C62.837 8.81214 62.947 8.53714 63.107 8.27714C63.267 8.01714 63.517 7.80714 63.857 7.64714C64.197 7.47714 64.652 7.39214 65.222 7.39214H65.657V9.41714H65.057C64.197 9.41714 63.572 9.63714 63.182 10.0771C62.802 10.5171 62.612 11.1821 62.612 12.0721V16.4821H60.392ZM68.5374 16.4821C68.3074 16.2121 68.1224 15.8871 67.9824 15.5071C67.8524 15.1271 67.7874 14.5571 67.7874 13.7971V9.07214H66.5574V7.48214H67.8174V5.23214H69.9924V7.48214H71.4624V9.07214H70.0074V13.5421C70.0074 14.3421 70.0924 14.9521 70.2624 15.3721C70.4424 15.7821 70.6574 16.1221 70.9074 16.3921V16.4821H68.5374ZM75.6617 16.4821V16.3921L79.2617 4.78214H82.8917L86.4917 16.3921V16.4821H84.1217L81.1817 6.56714H80.8217L77.8517 16.4821H75.6617ZM78.4667 13.4371L78.9767 11.6671H83.0117L83.5217 13.4371H78.4667ZM90.4948 16.6771C89.6848 16.6771 89.0148 16.4771 88.4848 16.0771C87.9548 15.6771 87.5548 15.1221 87.2848 14.4121C87.0148 13.7021 86.8798 12.8871 86.8798 11.9671C86.8798 11.0271 87.0148 10.2071 87.2848 9.50714C87.5548 8.80714 87.9548 8.26214 88.4848 7.87214C89.0248 7.48214 89.6898 7.28714 90.4798 7.28714C91.0798 7.28714 91.5648 7.39714 91.9348 7.61714C92.3148 7.83714 92.6148 8.13214 92.8348 8.50214H93.1948V4.48214H95.4148V16.4821H93.3748V15.3121H93.0148C92.8148 15.6821 92.5098 16.0021 92.0998 16.2721C91.6998 16.5421 91.1648 16.6771 90.4948 16.6771ZM91.0798 15.0571C91.7198 15.0571 92.2298 14.7821 92.6098 14.2321C92.9998 13.6721 93.1948 12.9221 93.1948 11.9821C93.1948 11.0421 92.9998 10.2971 92.6098 9.74714C92.2298 9.18714 91.7198 8.90714 91.0798 8.90714C90.4798 8.90714 90.0148 9.16714 89.6848 9.68714C89.3548 10.2071 89.1898 10.9721 89.1898 11.9821C89.1898 12.9921 89.3548 13.7571 89.6848 14.2771C90.0148 14.7971 90.4798 15.0571 91.0798 15.0571ZM97.7253 16.4821V7.48214H99.7653V8.83214H100.125C100.295 8.38214 100.565 8.00714 100.935 7.70714C101.315 7.40714 101.845 7.25714 102.525 7.25714C103.145 7.25714 103.66 7.39714 104.07 7.67714C104.49 7.95714 104.805 8.34214 105.015 8.83214H105.375C105.555 8.37214 105.84 7.99714 106.23 7.70714C106.62 7.40714 107.145 7.25714 107.805 7.25714C108.785 7.25714 109.51 7.57714 109.98 8.21714C110.45 8.84714 110.685 9.69214 110.685 10.7521V16.4821H108.465V11.1421C108.465 10.4921 108.355 9.98714 108.135 9.62714C107.925 9.26714 107.58 9.08714 107.1 9.08714C106.52 9.08714 106.075 9.33214 105.765 9.82214C105.465 10.3121 105.315 10.9121 105.315 11.6221V16.4821H103.095V11.1421C103.095 10.4921 102.985 9.98714 102.765 9.62714C102.555 9.26714 102.215 9.08714 101.745 9.08714C101.165 9.08714 100.72 9.33214 100.41 9.82214C100.1 10.3121 99.9453 10.9121 99.9453 11.6221V16.4821H97.7253ZM112.878 16.4821V7.48214H115.098V16.4821H112.878ZM113.988 6.38714C113.588 6.38714 113.283 6.28214 113.073 6.07214C112.863 5.85214 112.758 5.57214 112.758 5.23214C112.758 4.89214 112.863 4.61714 113.073 4.40714C113.283 4.18714 113.588 4.07714 113.988 4.07714C114.388 4.07714 114.693 4.18714 114.903 4.40714C115.113 4.61714 115.218 4.89214 115.218 5.23214C115.218 5.57214 115.113 5.85214 114.903 6.07214C114.693 6.28214 114.388 6.38714 113.988 6.38714ZM120.668 16.7071C119.708 16.7071 118.938 16.5521 118.358 16.2421C117.778 15.9321 117.348 15.5371 117.068 15.0571C116.798 14.5771 116.648 14.0921 116.618 13.6021H118.733C118.783 13.8721 118.888 14.1271 119.048 14.3671C119.218 14.5971 119.443 14.7821 119.723 14.9221C120.003 15.0521 120.353 15.1171 120.773 15.1171C121.263 15.1171 121.623 15.0271 121.853 14.8471C122.083 14.6671 122.198 14.4321 122.198 14.1421C122.198 13.8821 122.093 13.6621 121.883 13.4821C121.683 13.3021 121.363 13.1371 120.923 12.9871L119.843 12.6271C119.333 12.4471 118.863 12.2521 118.433 12.0421C118.013 11.8221 117.673 11.5421 117.413 11.2021C117.163 10.8621 117.038 10.4271 117.038 9.89714C117.038 9.10714 117.333 8.47214 117.923 7.99214C118.523 7.50214 119.358 7.25714 120.428 7.25714C121.208 7.25714 121.848 7.38214 122.348 7.63214C122.848 7.87214 123.223 8.20214 123.473 8.62214C123.733 9.03214 123.883 9.49214 123.923 10.0021H121.883C121.833 9.63214 121.683 9.33714 121.433 9.11714C121.183 8.89714 120.823 8.78714 120.353 8.78714C119.943 8.78714 119.633 8.87214 119.423 9.04214C119.213 9.20214 119.108 9.42214 119.108 9.70214C119.108 9.98214 119.213 10.2171 119.423 10.4071C119.643 10.5871 119.978 10.7521 120.428 10.9021L121.493 11.2471C122.003 11.4071 122.468 11.5971 122.888 11.8171C123.318 12.0271 123.653 12.3021 123.893 12.6421C124.143 12.9821 124.268 13.4221 124.268 13.9621C124.268 14.7821 123.958 15.4471 123.338 15.9571C122.728 16.4571 121.838 16.7071 120.668 16.7071ZM129.105 16.7071C128.145 16.7071 127.375 16.5521 126.795 16.2421C126.215 15.9321 125.785 15.5371 125.505 15.0571C125.235 14.5771 125.085 14.0921 125.055 13.6021H127.17C127.22 13.8721 127.325 14.1271 127.485 14.3671C127.655 14.5971 127.88 14.7821 128.16 14.9221C128.44 15.0521 128.79 15.1171 129.21 15.1171C129.7 15.1171 130.06 15.0271 130.29 14.8471C130.52 14.6671 130.635 14.4321 130.635 14.1421C130.635 13.8821 130.53 13.6621 130.32 13.4821C130.12 13.3021 129.8 13.1371 129.36 12.9871L128.28 12.6271C127.77 12.4471 127.3 12.2521 126.87 12.0421C126.45 11.8221 126.11 11.5421 125.85 11.2021C125.6 10.8621 125.475 10.4271 125.475 9.89714C125.475 9.10714 125.77 8.47214 126.36 7.99214C126.96 7.50214 127.795 7.25714 128.865 7.25714C129.645 7.25714 130.285 7.38214 130.785 7.63214C131.285 7.87214 131.66 8.20214 131.91 8.62214C132.17 9.03214 132.32 9.49214 132.36 10.0021H130.32C130.27 9.63214 130.12 9.33714 129.87 9.11714C129.62 8.89714 129.26 8.78714 128.79 8.78714C128.38 8.78714 128.07 8.87214 127.86 9.04214C127.65 9.20214 127.545 9.42214 127.545 9.70214C127.545 9.98214 127.65 10.2171 127.86 10.4071C128.08 10.5871 128.415 10.7521 128.865 10.9021L129.93 11.2471C130.44 11.4071 130.905 11.5971 131.325 11.8171C131.755 12.0271 132.09 12.3021 132.33 12.6421C132.58 12.9821 132.705 13.4221 132.705 13.9621C132.705 14.7821 132.395 15.4471 131.775 15.9571C131.165 16.4571 130.275 16.7071 129.105 16.7071ZM134.288 16.4821V7.48214H136.508V16.4821H134.288ZM135.398 6.38714C134.998 6.38714 134.693 6.28214 134.483 6.07214C134.273 5.85214 134.168 5.57214 134.168 5.23214C134.168 4.89214 134.273 4.61714 134.483 4.40714C134.693 4.18714 134.998 4.07714 135.398 4.07714C135.798 4.07714 136.103 4.18714 136.313 4.40714C136.523 4.61714 136.628 4.89214 136.628 5.23214C136.628 5.57214 136.523 5.85214 136.313 6.07214C136.103 6.28214 135.798 6.38714 135.398 6.38714ZM142.558 16.7071C141.098 16.7071 140.008 16.2821 139.288 15.4321C138.578 14.5721 138.223 13.4221 138.223 11.9821C138.223 10.5421 138.578 9.39714 139.288 8.54714C140.008 7.68714 141.098 7.25714 142.558 7.25714C144.018 7.25714 145.108 7.68714 145.828 8.54714C146.548 9.39714 146.908 10.5421 146.908 11.9821C146.908 13.4221 146.548 14.5721 145.828 15.4321C145.108 16.2821 144.018 16.7071 142.558 16.7071ZM142.558 15.1621C143.268 15.1621 143.783 14.8921 144.103 14.3521C144.433 13.8121 144.598 13.0221 144.598 11.9821C144.598 10.9421 144.433 10.1521 144.103 9.61214C143.783 9.07214 143.268 8.80214 142.558 8.80214C141.858 8.80214 141.343 9.07214 141.013 9.61214C140.683 10.1521 140.518 10.9421 140.518 11.9821C140.518 13.0221 140.683 13.8121 141.013 14.3521C141.343 14.8921 141.858 15.1621 142.558 15.1621ZM148.596 16.4821V7.48214H150.636V8.83214H150.996C151.176 8.37214 151.456 7.99714 151.836 7.70714C152.226 7.40714 152.776 7.25714 153.486 7.25714C154.506 7.25714 155.261 7.57714 155.751 8.21714C156.241 8.84714 156.486 9.69214 156.486 10.7521V16.4821H154.266V11.1421C154.266 10.4821 154.146 9.97714 153.906 9.62714C153.676 9.26714 153.301 9.08714 152.781 9.08714C152.161 9.08714 151.676 9.33214 151.326 9.82214C150.986 10.3021 150.816 10.9021 150.816 11.6221V16.4821H148.596ZM161.924 16.7071C160.964 16.7071 160.194 16.5521 159.614 16.2421C159.034 15.9321 158.604 15.5371 158.324 15.0571C158.054 14.5771 157.904 14.0921 157.874 13.6021H159.989C160.039 13.8721 160.144 14.1271 160.304 14.3671C160.474 14.5971 160.699 14.7821 160.979 14.9221C161.259 15.0521 161.609 15.1171 162.029 15.1171C162.519 15.1171 162.879 15.0271 163.109 14.8471C163.339 14.6671 163.454 14.4321 163.454 14.1421C163.454 13.8821 163.349 13.6621 163.139 13.4821C162.939 13.3021 162.619 13.1371 162.179 12.9871L161.099 12.6271C160.589 12.4471 160.119 12.2521 159.689 12.0421C159.269 11.8221 158.929 11.5421 158.669 11.2021C158.419 10.8621 158.294 10.4271 158.294 9.89714C158.294 9.10714 158.589 8.47214 159.179 7.99214C159.779 7.50214 160.614 7.25714 161.684 7.25714C162.464 7.25714 163.104 7.38214 163.604 7.63214C164.104 7.87214 164.479 8.20214 164.729 8.62214C164.989 9.03214 165.139 9.49214 165.179 10.0021H163.139C163.089 9.63214 162.939 9.33714 162.689 9.11714C162.439 8.89714 162.079 8.78714 161.609 8.78714C161.199 8.78714 160.889 8.87214 160.679 9.04214C160.469 9.20214 160.364 9.42214 160.364 9.70214C160.364 9.98214 160.469 10.2171 160.679 10.4071C160.899 10.5871 161.234 10.7521 161.684 10.9021L162.749 11.2471C163.259 11.4071 163.724 11.5971 164.144 11.8171C164.574 12.0271 164.909 12.3021 165.149 12.6421C165.399 12.9821 165.524 13.4221 165.524 13.9621C165.524 14.7821 165.214 15.4471 164.594 15.9571C163.984 16.4571 163.094 16.7071 161.924 16.7071Z" fill="white"/>
<path d="M25.0797 35.4186V28.9558H27.7809C28.6094 28.9558 29.2143 29.1326 29.5954 29.4861C29.9766 29.8341 30.1671 30.3036 30.1671 30.8947C30.1671 31.4857 29.9766 31.958 29.5954 32.3115C29.2198 32.665 28.615 32.8418 27.7809 32.8418H26.4552V35.4186H25.0797ZM26.4552 31.7978H27.5737C27.9493 31.7978 28.2421 31.7343 28.452 31.6072C28.6674 31.4747 28.7751 31.2399 28.7751 30.903C28.7751 30.5715 28.6674 30.3395 28.452 30.207C28.2421 30.0689 27.9493 29.9998 27.5737 29.9998H26.4552V31.7978ZM33.1461 35.5429C32.323 35.5429 31.7071 35.3082 31.2984 34.8386C30.8951 34.3636 30.6935 33.7284 30.6935 32.9329C30.6935 32.1375 30.8951 31.505 31.2984 31.0355C31.7071 30.5605 32.323 30.323 33.1461 30.323C33.9691 30.323 34.5823 30.5605 34.9855 31.0355C35.3942 31.505 35.5986 32.1375 35.5986 32.9329C35.5986 33.7284 35.3942 34.3636 34.9855 34.8386C34.5823 35.3082 33.9691 35.5429 33.1461 35.5429ZM33.1461 34.6481C33.5106 34.6481 33.7785 34.5045 33.9498 34.2172C34.121 33.93 34.2066 33.4991 34.2066 32.9247C34.2066 32.3557 34.121 31.9304 33.9498 31.6487C33.7785 31.3614 33.5106 31.2178 33.1461 31.2178C32.7815 31.2178 32.5136 31.3614 32.3424 31.6487C32.1711 31.9304 32.0855 32.3557 32.0855 32.9247C32.0855 33.4991 32.1711 33.93 32.3424 34.2172C32.5136 34.5045 32.7815 34.6481 33.1461 34.6481ZM36.9472 35.4186L36.1933 30.4555V30.4472H37.4361L38.0244 34.4244H38.2232L38.9109 30.4472H41.0486L41.7363 34.4244H41.9352L42.5235 30.4472H43.6835V30.4555L42.9295 35.4186H40.7421L40.0378 31.4167H39.8389L39.1347 35.4186H36.9472ZM46.6886 35.5429C45.9042 35.5429 45.3049 35.3082 44.8906 34.8386C44.4818 34.3691 44.2774 33.7311 44.2774 32.9247C44.2774 32.3833 44.3686 31.9193 44.5509 31.5327C44.7387 31.146 45.0093 30.8477 45.3629 30.6378C45.7219 30.4279 46.1583 30.323 46.672 30.323C47.4122 30.323 47.9784 30.5467 48.3706 30.9941C48.7683 31.4415 48.9671 32.0989 48.9671 32.9661V33.2478H45.5866C45.6142 33.6676 45.7219 33.999 45.9097 34.2421C46.1031 34.4796 46.3627 34.5984 46.6886 34.5984C46.9482 34.5984 47.1553 34.521 47.31 34.3664C47.4702 34.2117 47.5751 34.0322 47.6248 33.8278H48.9008C48.8511 34.1316 48.7406 34.4133 48.5694 34.6729C48.3982 34.9325 48.1579 35.1424 47.8486 35.3026C47.5392 35.4628 47.1526 35.5429 46.6886 35.5429ZM45.5866 32.4027H47.658C47.6359 32.027 47.542 31.737 47.3763 31.5327C47.2106 31.3228 46.973 31.2178 46.6637 31.2178C46.3599 31.2178 46.1141 31.3172 45.9263 31.5161C45.744 31.7094 45.6308 32.0049 45.5866 32.4027ZM49.8161 35.4186V30.4472H51.0424V31.3587H51.2413C51.2744 31.193 51.3352 31.0383 51.4236 30.8947C51.5175 30.7455 51.6583 30.6268 51.8461 30.5384C52.0339 30.4445 52.2853 30.3975 52.6001 30.3975H52.8653V31.6072H52.5007C52.0312 31.6072 51.6887 31.726 51.4733 31.9635C51.2634 32.201 51.1584 32.5573 51.1584 33.0324V35.4186H49.8161ZM55.5536 35.5429C54.7692 35.5429 54.1699 35.3082 53.7556 34.8386C53.3468 34.3691 53.1424 33.7311 53.1424 32.9247C53.1424 32.3833 53.2336 31.9193 53.4159 31.5327C53.6037 31.146 53.8743 30.8477 54.2279 30.6378C54.5869 30.4279 55.0233 30.323 55.537 30.323C56.2772 30.323 56.8434 30.5467 57.2355 30.9941C57.6333 31.4415 57.8321 32.0989 57.8321 32.9661V33.2478H54.4516C54.4792 33.6676 54.5869 33.999 54.7747 34.2421C54.968 34.4796 55.2277 34.5984 55.5536 34.5984C55.8132 34.5984 56.0203 34.521 56.175 34.3664C56.3352 34.2117 56.4401 34.0322 56.4898 33.8278H57.7658C57.7161 34.1316 57.6056 34.4133 57.4344 34.6729C57.2632 34.9325 57.0229 35.1424 56.7136 35.3026C56.4042 35.4628 56.0176 35.5429 55.5536 35.5429ZM54.4516 32.4027H56.523C56.5009 32.027 56.407 31.737 56.2413 31.5327C56.0756 31.3228 55.838 31.2178 55.5287 31.2178C55.2249 31.2178 54.9791 31.3172 54.7913 31.5161C54.609 31.7094 54.4958 32.0049 54.4516 32.4027ZM60.3548 35.5181C59.9019 35.5181 59.529 35.4076 59.2363 35.1866C58.9435 34.9602 58.7253 34.6508 58.5817 34.2586C58.4381 33.8665 58.3663 33.4218 58.3663 32.9247C58.3663 32.4109 58.4381 31.9608 58.5817 31.5741C58.7308 31.1874 58.9518 30.8864 59.2446 30.671C59.5428 30.4555 59.9129 30.3478 60.3548 30.3478C60.6807 30.3478 60.9459 30.4058 61.1503 30.5218C61.3602 30.6378 61.5259 30.7952 61.6474 30.9941H61.8462V28.7901H63.1885V35.4186H61.9457V34.7724H61.7468C61.6308 34.9823 61.4623 35.159 61.2414 35.3026C61.0204 35.4463 60.7249 35.5181 60.3548 35.5181ZM60.736 34.5735C61.0729 34.5735 61.3408 34.4271 61.5397 34.1344C61.7441 33.8361 61.8462 33.4356 61.8462 32.9329C61.8462 32.4248 61.7441 32.0243 61.5397 31.7315C61.3408 31.4388 61.0729 31.2924 60.736 31.2924C60.4322 31.2924 60.1919 31.4305 60.0151 31.7067C59.8439 31.9773 59.7583 32.3861 59.7583 32.9329C59.7583 33.4798 59.8439 33.8913 60.0151 34.1675C60.1919 34.4382 60.4322 34.5735 60.736 34.5735ZM69.2409 35.5181C68.8708 35.5181 68.5753 35.4463 68.3544 35.3026C68.1334 35.159 67.9649 34.9823 67.8489 34.7724H67.6501V35.4186H66.4072V28.7901H67.7495V30.9941H67.9484C68.0699 30.7952 68.2356 30.6378 68.4455 30.5218C68.6554 30.4058 68.9205 30.3478 69.2409 30.3478C69.6828 30.3478 70.0502 30.4555 70.3429 30.671C70.6412 30.8864 70.8621 31.1874 71.0058 31.5741C71.1549 31.9608 71.2295 32.4109 71.2295 32.9247C71.2295 33.4218 71.1577 33.8665 71.014 34.2586C70.8704 34.6508 70.6522 34.9602 70.3595 35.1866C70.0667 35.4076 69.6939 35.5181 69.2409 35.5181ZM68.8598 34.5735C69.1636 34.5735 69.4011 34.4382 69.5723 34.1675C69.7491 33.8913 69.8375 33.4798 69.8375 32.9329C69.8375 32.3861 69.7491 31.9773 69.5723 31.7067C69.4011 31.4305 69.1636 31.2924 68.8598 31.2924C68.5228 31.2924 68.2522 31.4388 68.0478 31.7315C67.8489 32.0243 67.7495 32.4248 67.7495 32.9329C67.7495 33.4356 67.8489 33.8361 68.0478 34.1344C68.2522 34.4271 68.5228 34.5735 68.8598 34.5735ZM72.3454 37.0758V37.0592C72.4835 36.8327 72.6327 36.5703 72.7929 36.2721C72.9531 35.9738 73.0939 35.6893 73.2154 35.4186L71.5086 30.497V30.4472H72.8343L73.348 31.9387C73.4309 32.1762 73.5137 32.4303 73.5966 32.7009C73.6794 32.9716 73.7623 33.3141 73.8452 33.7284H74.044C74.1269 33.3141 74.2097 32.9716 74.2926 32.7009C74.3754 32.4303 74.4583 32.1762 74.5411 31.9387L75.0549 30.4472H76.3143V30.497L74.7897 34.7392C74.5909 35.2971 74.3975 35.7722 74.2097 36.1643C74.0274 36.5621 73.8728 36.8659 73.7457 37.0758H72.3454Z" fill="white"/>
<path d="M97.3669 34.0283C96.7262 34.6302 96.2179 35.1091 95.7966 35.5037C94.78 34.5553 93.6618 33.6765 92.7589 32.6158C91.9457 31.6608 91.9898 30.4623 92.6653 29.4003C93.0345 28.8198 93.5775 28.3516 94.0805 27.7898C94.6663 28.3396 95.1907 28.8305 95.7498 29.3548C95.604 29.514 95.4769 29.6571 95.3458 29.7962C94.6101 30.572 94.5941 31.3625 95.3538 32.1316C95.9731 32.7603 96.6379 33.3448 97.3669 34.0283Z" fill="white"/>
<path d="M87.2214 25.5908C87.7016 25.9078 88.0654 26.2623 88.4988 26.4067C89.0231 26.582 89.5715 26.4616 89.9862 26.0135C90.6108 25.338 91.2421 24.6679 91.8989 23.9643C92.5102 24.5408 93.0131 25.0143 93.5294 25.5012C92.5476 26.491 91.6501 27.4955 90.6483 28.3797C89.6424 29.2665 88.0346 29.1756 86.9913 28.3021C85.7072 27.228 85.7086 27.2294 86.8388 26.0162C86.9752 25.8704 87.105 25.7206 87.2214 25.5908Z" fill="white"/>
<path d="M92.3188 37.2465C91.8386 36.9295 91.4748 36.5751 91.0414 36.4306C90.5171 36.2554 89.9687 36.3758 89.554 36.8239C88.9294 37.4993 88.298 38.1695 87.6413 38.873C87.03 38.2965 86.5271 37.823 86.0107 37.3362C86.9925 36.3463 87.89 35.3418 88.8919 34.4577C89.8978 33.5709 91.5055 33.6618 92.5489 34.5353C93.8329 35.6093 93.8316 35.608 92.7013 36.8212C92.5649 36.9656 92.4352 37.1168 92.3188 37.2465Z" fill="white"/>
<path d="M83.7369 34.0135C85.0156 32.3844 85.0022 32.1423 83.5884 30.6856C83.2259 30.3124 82.834 29.9647 82.5009 29.5674C82.4073 29.4551 82.3953 29.1447 82.4836 29.035C82.834 28.6003 83.2379 28.2084 83.5924 27.8312C84.621 28.8197 85.7178 29.7105 86.6073 30.7739C87.4727 31.8092 87.2935 33.2939 86.4 34.3145C86.071 34.6904 85.7178 35.0448 85.3219 35.4662C84.7802 34.9686 84.2719 34.5031 83.7369 34.0135Z" fill="white"/>
<path d="M91.1738 33.1014C90.0275 32.466 89.0056 32.3898 87.8539 33.1201C88.4706 31.9511 88.5334 30.9091 87.7764 29.7427C88.9401 30.4035 89.9887 30.4891 91.2073 29.716C90.4823 30.897 90.477 31.9457 91.1738 33.1014Z" fill="#01AEE0"/>
<path d="M101.999 35.4186V30.0495H100.085V28.9558H105.305V30.0495H103.391V35.4186H101.999ZM107.363 35.5181C106.899 35.5181 106.518 35.4076 106.22 35.1866C105.922 34.9602 105.701 34.6508 105.557 34.2586C105.414 33.8665 105.342 33.4218 105.342 32.9247C105.342 32.4109 105.414 31.9608 105.557 31.5741C105.706 31.1874 105.93 30.8864 106.228 30.671C106.527 30.4555 106.902 30.3478 107.355 30.3478C107.703 30.3478 107.988 30.4169 108.209 30.555C108.435 30.6875 108.606 30.8671 108.722 31.0935H108.921V30.4472H110.164V35.4186H108.921V34.7724H108.722C108.606 34.9823 108.438 35.159 108.217 35.3026C107.996 35.4463 107.711 35.5181 107.363 35.5181ZM107.711 34.5735C108.048 34.5735 108.316 34.4271 108.515 34.1344C108.72 33.8361 108.822 33.4356 108.822 32.9329C108.822 32.4248 108.72 32.0243 108.515 31.7315C108.316 31.4388 108.048 31.2924 107.711 31.2924C107.408 31.2924 107.167 31.4305 106.991 31.7067C106.819 31.9773 106.734 32.3861 106.734 32.9329C106.734 33.4798 106.819 33.8913 106.991 34.1675C107.167 34.4382 107.408 34.5735 107.711 34.5735ZM111.798 35.4186C111.644 35.2419 111.533 35.043 111.467 34.8221C111.406 34.5956 111.376 34.3001 111.376 33.9355V28.7901H112.718V33.7946C112.718 34.2145 112.765 34.5431 112.859 34.7806C112.953 35.0126 113.077 35.2087 113.232 35.3689V35.4186H111.798ZM116.074 35.5429C115.29 35.5429 114.69 35.3082 114.276 34.8386C113.867 34.3691 113.663 33.7311 113.663 32.9247C113.663 32.3833 113.754 31.9193 113.936 31.5327C114.124 31.146 114.395 30.8477 114.748 30.6378C115.107 30.4279 115.544 30.323 116.058 30.323C116.798 30.323 117.364 30.5467 117.756 30.9941C118.154 31.4415 118.353 32.0989 118.353 32.9661V33.2478H114.972C115 33.6676 115.107 33.999 115.295 34.2421C115.489 34.4796 115.748 34.5984 116.074 34.5984C116.334 34.5984 116.541 34.521 116.696 34.3664C116.856 34.2117 116.961 34.0322 117.01 33.8278H118.286C118.237 34.1316 118.126 34.4133 117.955 34.6729C117.784 34.9325 117.543 35.1424 117.234 35.3026C116.925 35.4628 116.538 35.5429 116.074 35.5429ZM114.972 32.4027H117.044C117.021 32.027 116.928 31.737 116.762 31.5327C116.596 31.3228 116.359 31.2178 116.049 31.2178C115.745 31.2178 115.5 31.3172 115.312 31.5161C115.13 31.7094 115.016 32.0049 114.972 32.4027ZM119.218 35.4186V30.4472H120.461V31.193H120.66C120.759 30.9444 120.911 30.7372 121.116 30.5715C121.326 30.4058 121.632 30.323 122.035 30.323C122.588 30.323 123.002 30.497 123.278 30.845C123.554 31.193 123.693 31.6652 123.693 32.2618V35.4186H122.35V32.4855C122.35 32.143 122.289 31.8807 122.168 31.6984C122.046 31.5106 121.848 31.4167 121.571 31.4167C121.251 31.4167 121.002 31.5437 120.826 31.7978C120.649 32.0464 120.561 32.3585 120.561 32.7341V35.4186H119.218ZM125.579 35.4186C125.452 35.2695 125.35 35.09 125.272 34.8801C125.201 34.6702 125.165 34.3553 125.165 33.9355V31.3918H124.485V30.4472H125.181V29.2044H126.499V30.4472H127.302V31.3918H126.499V33.7946C126.499 34.231 126.548 34.5652 126.648 34.7972C126.747 35.0292 126.866 35.2198 127.004 35.3689V35.4186H125.579ZM128.567 35.4186C128.412 35.2419 128.302 35.043 128.236 34.8221C128.175 34.5956 128.144 34.3001 128.144 33.9355V28.7901H129.487V33.7946C129.487 34.2145 129.534 34.5431 129.627 34.7806C129.721 35.0126 129.846 35.2087 130 35.3689V35.4186H128.567ZM131.07 37.0758V37.0592C131.208 36.8327 131.357 36.5703 131.517 36.2721C131.677 35.9738 131.818 35.6893 131.94 35.4186L130.233 30.497V30.4472H131.559L132.072 31.9387C132.155 32.1762 132.238 32.4303 132.321 32.7009C132.404 32.9716 132.487 33.3141 132.569 33.7284H132.768C132.851 33.3141 132.934 32.9716 133.017 32.7009C133.1 32.4303 133.183 32.1762 133.265 31.9387L133.779 30.4472H135.039V30.497L133.514 34.7392C133.315 35.2971 133.122 35.7722 132.934 36.1643C132.752 36.5621 132.597 36.8659 132.47 37.0758H131.07ZM135.79 35.4683C135.53 35.4683 135.331 35.3965 135.193 35.2529C135.055 35.1038 134.986 34.9104 134.986 34.6729C134.986 34.4299 135.055 34.2365 135.193 34.0929C135.331 33.9493 135.53 33.8775 135.79 33.8775C136.05 33.8775 136.246 33.9493 136.378 34.0929C136.511 34.2365 136.577 34.4299 136.577 34.6729C136.577 34.9104 136.511 35.1038 136.378 35.2529C136.246 35.3965 136.05 35.4683 135.79 35.4683ZM139.328 35.5181C138.864 35.5181 138.483 35.4076 138.184 35.1866C137.886 34.9602 137.665 34.6508 137.522 34.2586C137.378 33.8665 137.306 33.4218 137.306 32.9247C137.306 32.4109 137.378 31.9608 137.522 31.5741C137.671 31.1874 137.894 30.8864 138.193 30.671C138.491 30.4555 138.867 30.3478 139.32 30.3478C139.668 30.3478 139.952 30.4169 140.173 30.555C140.4 30.6875 140.571 30.8671 140.687 31.0935H140.886V30.4472H142.128V35.4186H140.886V34.7724H140.687C140.571 34.9823 140.402 35.159 140.181 35.3026C139.96 35.4463 139.676 35.5181 139.328 35.5181ZM139.676 34.5735C140.013 34.5735 140.281 34.4271 140.48 34.1344C140.684 33.8361 140.786 33.4356 140.786 32.9329C140.786 32.4248 140.684 32.0243 140.48 31.7315C140.281 31.4388 140.013 31.2924 139.676 31.2924C139.372 31.2924 139.132 31.4305 138.955 31.7067C138.784 31.9773 138.698 32.3861 138.698 32.9329C138.698 33.4798 138.784 33.8913 138.955 34.1675C139.132 34.4382 139.372 34.5735 139.676 34.5735ZM143.357 35.4186V30.4472H144.699V35.4186H143.357ZM144.028 29.8755C143.79 29.8755 143.611 29.8148 143.489 29.6933C143.368 29.5662 143.307 29.4033 143.307 29.2044C143.307 29.0055 143.368 28.8454 143.489 28.7238C143.611 28.5968 143.79 28.5333 144.028 28.5333C144.265 28.5333 144.445 28.5968 144.566 28.7238C144.688 28.8454 144.749 29.0055 144.749 29.2044C144.749 29.4033 144.688 29.5662 144.566 29.6933C144.445 29.8148 144.265 29.8755 144.028 29.8755Z" fill="white"/>
</svg>
