<svg width="170" height="39" viewBox="0 0 170 39" fill="none" xmlns="http://www.w3.org/2000/svg">
<path d="M17.073 18.0363V20.9633H2.92703C1.31052 20.9633 0 19.6528 0 18.0363V14.3343C0 12.7177 1.31052 11.4072 2.92703 11.4072H12.2959C13.9124 11.4072 15.223 12.7177 15.223 14.3343H15.2089L15.2219 14.3363V16.1873H12.2949V14.3332H2.92803V18.0353H17.073V18.0363Z" fill="#017DC0"/>
<path d="M17.073 4.77906V2.92803H2.92803V6.6301H17.073C18.6895 6.6301 20 7.94061 20 9.55712V18.0372C20 19.5179 18.9009 20.7418 17.4756 20.9351C17.3447 20.9542 17.2109 20.9643 17.075 20.9643H17.074V9.55612H2.92803C1.31153 9.55612 0 8.2456 0 6.62909V2.92703C0 1.31052 1.31153 0 2.92803 0H17.073C18.6895 0 20 1.31052 20 2.92703V4.77806H17.073V4.77906Z" fill="#00B5E8"/>
<path d="M20 2.92822H17.073V4.77925H20V2.92822Z" fill="#00B5E8"/>
<path d="M17.073 2.92822H20L17.073 3.74654V2.92822Z" fill="#2495E1"/>
<path opacity="0.4" d="M12.296 14.332H15.222L12.296 15.1514V14.332Z" fill="#014199"/>
<path opacity="0.4" d="M17.073 18.0361V20.9632H16.1681L17.073 18.0361Z" fill="#014199"/>
<path opacity="0.5" d="M2.77807 11.9043C2.11173 11.9043 1.50378 12.159 1.0448 12.5747C1.51385 12.0704 2.18421 11.7554 2.92603 11.7554H12.2949C13.7172 11.7554 14.8747 12.9129 14.8747 14.3351L14.8737 14.3372V15.8409H14.7257V14.4851L14.7267 14.4831C14.7267 13.0609 13.5692 11.9043 12.147 11.9043H2.77807Z" fill="#1F2937"/>
<path opacity="0.5" d="M16.7257 18.3834V20.6169H16.5767V18.5323H2.43176V14.1357H2.58073V18.3834H16.7257Z" fill="#1F2937"/>
<path opacity="0.5" d="M19.6528 2.92694V4.43172H19.5048V3.0749C19.5048 1.65366 18.3473 0.496136 16.9251 0.496136H2.77912C2.0987 0.496136 1.47967 0.760858 1.01868 1.19266C1.49075 0.674295 2.17117 0.347168 2.92708 0.347168H17.072C18.4953 0.348175 19.6528 1.50469 19.6528 2.92694Z" fill="#1F2937"/>
<path opacity="0.5" d="M19.6527 9.55592V18.036C19.6527 18.7769 19.3346 19.4553 18.8213 19.9283C19.2471 19.4663 19.5037 18.8493 19.5037 18.184V9.70388C19.5037 8.28164 18.3462 7.12512 16.924 7.12512H2.43176V2.72754H2.57972V6.97615H17.0719C18.4952 6.97615 19.6527 8.13368 19.6527 9.55592Z" fill="#1F2937"/>
<path d="M28.8603 16.7069C27.9903 16.7069 27.2503 16.5919 26.6403 16.3619C26.0303 16.1219 25.5303 15.8069 25.1403 15.4169C24.7503 15.0169 24.4603 14.5769 24.2703 14.0969C24.0803 13.6169 23.9703 13.1319 23.9403 12.6419H26.0853C26.1153 13.0219 26.2353 13.3919 26.4453 13.7519C26.6553 14.1019 26.9653 14.3919 27.3753 14.6219C27.7953 14.8419 28.3153 14.9519 28.9353 14.9519C29.6153 14.9519 30.1253 14.8119 30.4653 14.5319C30.8153 14.2519 30.9903 13.8769 30.9903 13.4069C30.9903 12.9469 30.8353 12.5819 30.5253 12.3119C30.2153 12.0419 29.8103 11.8219 29.3103 11.6519L27.7653 11.1419C27.2153 10.9519 26.6903 10.7269 26.1903 10.4669C25.6903 10.2069 25.2803 9.86193 24.9603 9.43193C24.6403 9.00193 24.4803 8.44693 24.4803 7.76693C24.4803 7.07693 24.6503 6.49693 24.9903 6.02693C25.3403 5.54693 25.8203 5.18193 26.4303 4.93193C27.0403 4.68193 27.7403 4.55693 28.5303 4.55693C29.5403 4.55693 30.3453 4.73193 30.9453 5.08193C31.5453 5.42193 31.9853 5.85693 32.2653 6.38693C32.5453 6.91693 32.7103 7.48193 32.7603 8.08193H30.6153C30.5853 7.78193 30.4953 7.49693 30.3453 7.22693C30.2053 6.94693 29.9803 6.72193 29.6703 6.55193C29.3703 6.37193 28.9603 6.28193 28.4403 6.28193C27.8703 6.28193 27.4353 6.40693 27.1353 6.65693C26.8453 6.89693 26.7003 7.21193 26.7003 7.60193C26.7003 8.03193 26.8553 8.37193 27.1653 8.62193C27.4853 8.86193 27.9003 9.06693 28.4103 9.23693L29.9553 9.76193C30.5153 9.94193 31.0403 10.1669 31.5303 10.4369C32.0203 10.6969 32.4203 11.0469 32.7303 11.4869C33.0503 11.9269 33.2103 12.5069 33.2103 13.2269C33.2103 14.3169 32.8253 15.1719 32.0553 15.7919C31.2953 16.4019 30.2303 16.7069 28.8603 16.7069ZM35.0241 16.4819V7.48193H37.0641V8.83193H37.4241C37.5941 8.38193 37.8641 8.00693 38.2341 7.70693C38.6141 7.40693 39.1441 7.25693 39.8241 7.25693C40.4441 7.25693 40.9591 7.39693 41.3691 7.67693C41.7891 7.95693 42.1041 8.34193 42.3141 8.83193H42.6741C42.8541 8.37193 43.1391 7.99693 43.5291 7.70693C43.9191 7.40693 44.4441 7.25693 45.1041 7.25693C46.0841 7.25693 46.8091 7.57693 47.2791 8.21693C47.7491 8.84693 47.9841 9.69193 47.9841 10.7519V16.4819H45.7641V11.1419C45.7641 10.4919 45.6541 9.98693 45.4341 9.62693C45.2241 9.26693 44.8791 9.08693 44.3991 9.08693C43.8191 9.08693 43.3741 9.33193 43.0641 9.82193C42.7641 10.3119 42.6141 10.9119 42.6141 11.6219V16.4819H40.3941V11.1419C40.3941 10.4919 40.2841 9.98693 40.0641 9.62693C39.8541 9.26693 39.5141 9.08693 39.0441 9.08693C38.4641 9.08693 38.0191 9.33193 37.7091 9.82193C37.3991 10.3119 37.2441 10.9119 37.2441 11.6219V16.4819H35.0241ZM53.2215 16.6769C52.4015 16.6769 51.7215 16.4769 51.1815 16.0769C50.6415 15.6769 50.2365 15.1219 49.9665 14.4119C49.7065 13.7019 49.5765 12.8869 49.5765 11.9669C49.5765 11.0269 49.7115 10.2069 49.9815 9.50693C50.2515 8.80693 50.6565 8.26193 51.1965 7.87193C51.7365 7.48193 52.4115 7.28693 53.2215 7.28693C53.8615 7.28693 54.3815 7.41693 54.7815 7.67693C55.1915 7.92693 55.4965 8.25193 55.6965 8.65193H56.0565V7.48193H58.0965V16.4819H56.0565V15.3119H55.6965C55.4965 15.6819 55.1965 16.0019 54.7965 16.2719C54.3965 16.5419 53.8715 16.6769 53.2215 16.6769ZM53.7615 15.0569C54.4115 15.0569 54.9265 14.7819 55.3065 14.2319C55.6965 13.6719 55.8915 12.9219 55.8915 11.9819C55.8915 11.0419 55.6965 10.2969 55.3065 9.74693C54.9265 9.18693 54.4115 8.90693 53.7615 8.90693C53.1715 8.90693 52.7065 9.16693 52.3665 9.68693C52.0365 10.2069 51.8715 10.9719 51.8715 11.9819C51.8715 12.9919 52.0365 13.7569 52.3665 14.2769C52.7065 14.7969 53.1715 15.0569 53.7615 15.0569ZM60.392 16.4819V7.48193H62.417V9.10193H62.777C62.837 8.81193 62.947 8.53693 63.107 8.27693C63.267 8.01693 63.517 7.80693 63.857 7.64693C64.197 7.47693 64.652 7.39193 65.222 7.39193H65.657V9.41693H65.057C64.197 9.41693 63.572 9.63693 63.182 10.0769C62.802 10.5169 62.612 11.1819 62.612 12.0719V16.4819H60.392ZM68.5374 16.4819C68.3074 16.2119 68.1224 15.8869 67.9824 15.5069C67.8524 15.1269 67.7874 14.5569 67.7874 13.7969V9.07193H66.5574V7.48193H67.8174V5.23193H69.9924V7.48193H71.4624V9.07193H70.0074V13.5419C70.0074 14.3419 70.0924 14.9519 70.2624 15.3719C70.4424 15.7819 70.6574 16.1219 70.9074 16.3919V16.4819H68.5374ZM75.6617 16.4819V16.3919L79.2617 4.78193H82.8917L86.4917 16.3919V16.4819H84.1217L81.1817 6.56693H80.8217L77.8517 16.4819H75.6617ZM78.4667 13.4369L78.9767 11.6669H83.0117L83.5217 13.4369H78.4667ZM90.4948 16.6769C89.6848 16.6769 89.0148 16.4769 88.4848 16.0769C87.9548 15.6769 87.5548 15.1219 87.2848 14.4119C87.0148 13.7019 86.8798 12.8869 86.8798 11.9669C86.8798 11.0269 87.0148 10.2069 87.2848 9.50693C87.5548 8.80693 87.9548 8.26193 88.4848 7.87193C89.0248 7.48193 89.6898 7.28693 90.4798 7.28693C91.0798 7.28693 91.5648 7.39693 91.9348 7.61693C92.3148 7.83693 92.6148 8.13193 92.8348 8.50193H93.1948V4.48193H95.4148V16.4819H93.3748V15.3119H93.0148C92.8148 15.6819 92.5098 16.0019 92.0998 16.2719C91.6998 16.5419 91.1648 16.6769 90.4948 16.6769ZM91.0798 15.0569C91.7198 15.0569 92.2298 14.7819 92.6098 14.2319C92.9998 13.6719 93.1948 12.9219 93.1948 11.9819C93.1948 11.0419 92.9998 10.2969 92.6098 9.74693C92.2298 9.18693 91.7198 8.90693 91.0798 8.90693C90.4798 8.90693 90.0148 9.16693 89.6848 9.68693C89.3548 10.2069 89.1898 10.9719 89.1898 11.9819C89.1898 12.9919 89.3548 13.7569 89.6848 14.2769C90.0148 14.7969 90.4798 15.0569 91.0798 15.0569ZM97.7253 16.4819V7.48193H99.7653V8.83193H100.125C100.295 8.38193 100.565 8.00693 100.935 7.70693C101.315 7.40693 101.845 7.25693 102.525 7.25693C103.145 7.25693 103.66 7.39693 104.07 7.67693C104.49 7.95693 104.805 8.34193 105.015 8.83193H105.375C105.555 8.37193 105.84 7.99693 106.23 7.70693C106.62 7.40693 107.145 7.25693 107.805 7.25693C108.785 7.25693 109.51 7.57693 109.98 8.21693C110.45 8.84693 110.685 9.69193 110.685 10.7519V16.4819H108.465V11.1419C108.465 10.4919 108.355 9.98693 108.135 9.62693C107.925 9.26693 107.58 9.08693 107.1 9.08693C106.52 9.08693 106.075 9.33193 105.765 9.82193C105.465 10.3119 105.315 10.9119 105.315 11.6219V16.4819H103.095V11.1419C103.095 10.4919 102.985 9.98693 102.765 9.62693C102.555 9.26693 102.215 9.08693 101.745 9.08693C101.165 9.08693 100.72 9.33193 100.41 9.82193C100.1 10.3119 99.9453 10.9119 99.9453 11.6219V16.4819H97.7253ZM112.878 16.4819V7.48193H115.098V16.4819H112.878ZM113.988 6.38693C113.588 6.38693 113.283 6.28193 113.073 6.07193C112.863 5.85193 112.758 5.57193 112.758 5.23193C112.758 4.89193 112.863 4.61693 113.073 4.40693C113.283 4.18693 113.588 4.07693 113.988 4.07693C114.388 4.07693 114.693 4.18693 114.903 4.40693C115.113 4.61693 115.218 4.89193 115.218 5.23193C115.218 5.57193 115.113 5.85193 114.903 6.07193C114.693 6.28193 114.388 6.38693 113.988 6.38693ZM120.668 16.7069C119.708 16.7069 118.938 16.5519 118.358 16.2419C117.778 15.9319 117.348 15.5369 117.068 15.0569C116.798 14.5769 116.648 14.0919 116.618 13.6019H118.733C118.783 13.8719 118.888 14.1269 119.048 14.3669C119.218 14.5969 119.443 14.7819 119.723 14.9219C120.003 15.0519 120.353 15.1169 120.773 15.1169C121.263 15.1169 121.623 15.0269 121.853 14.8469C122.083 14.6669 122.198 14.4319 122.198 14.1419C122.198 13.8819 122.093 13.6619 121.883 13.4819C121.683 13.3019 121.363 13.1369 120.923 12.9869L119.843 12.6269C119.333 12.4469 118.863 12.2519 118.433 12.0419C118.013 11.8219 117.673 11.5419 117.413 11.2019C117.163 10.8619 117.038 10.4269 117.038 9.89693C117.038 9.10693 117.333 8.47193 117.923 7.99193C118.523 7.50193 119.358 7.25693 120.428 7.25693C121.208 7.25693 121.848 7.38193 122.348 7.63193C122.848 7.87193 123.223 8.20193 123.473 8.62193C123.733 9.03193 123.883 9.49193 123.923 10.0019H121.883C121.833 9.63193 121.683 9.33693 121.433 9.11693C121.183 8.89693 120.823 8.78693 120.353 8.78693C119.943 8.78693 119.633 8.87193 119.423 9.04193C119.213 9.20193 119.108 9.42193 119.108 9.70193C119.108 9.98193 119.213 10.2169 119.423 10.4069C119.643 10.5869 119.978 10.7519 120.428 10.9019L121.493 11.2469C122.003 11.4069 122.468 11.5969 122.888 11.8169C123.318 12.0269 123.653 12.3019 123.893 12.6419C124.143 12.9819 124.268 13.4219 124.268 13.9619C124.268 14.7819 123.958 15.4469 123.338 15.9569C122.728 16.4569 121.838 16.7069 120.668 16.7069ZM129.105 16.7069C128.145 16.7069 127.375 16.5519 126.795 16.2419C126.215 15.9319 125.785 15.5369 125.505 15.0569C125.235 14.5769 125.085 14.0919 125.055 13.6019H127.17C127.22 13.8719 127.325 14.1269 127.485 14.3669C127.655 14.5969 127.88 14.7819 128.16 14.9219C128.44 15.0519 128.79 15.1169 129.21 15.1169C129.7 15.1169 130.06 15.0269 130.29 14.8469C130.52 14.6669 130.635 14.4319 130.635 14.1419C130.635 13.8819 130.53 13.6619 130.32 13.4819C130.12 13.3019 129.8 13.1369 129.36 12.9869L128.28 12.6269C127.77 12.4469 127.3 12.2519 126.87 12.0419C126.45 11.8219 126.11 11.5419 125.85 11.2019C125.6 10.8619 125.475 10.4269 125.475 9.89693C125.475 9.10693 125.77 8.47193 126.36 7.99193C126.96 7.50193 127.795 7.25693 128.865 7.25693C129.645 7.25693 130.285 7.38193 130.785 7.63193C131.285 7.87193 131.66 8.20193 131.91 8.62193C132.17 9.03193 132.32 9.49193 132.36 10.0019H130.32C130.27 9.63193 130.12 9.33693 129.87 9.11693C129.62 8.89693 129.26 8.78693 128.79 8.78693C128.38 8.78693 128.07 8.87193 127.86 9.04193C127.65 9.20193 127.545 9.42193 127.545 9.70193C127.545 9.98193 127.65 10.2169 127.86 10.4069C128.08 10.5869 128.415 10.7519 128.865 10.9019L129.93 11.2469C130.44 11.4069 130.905 11.5969 131.325 11.8169C131.755 12.0269 132.09 12.3019 132.33 12.6419C132.58 12.9819 132.705 13.4219 132.705 13.9619C132.705 14.7819 132.395 15.4469 131.775 15.9569C131.165 16.4569 130.275 16.7069 129.105 16.7069ZM134.288 16.4819V7.48193H136.508V16.4819H134.288ZM135.398 6.38693C134.998 6.38693 134.693 6.28193 134.483 6.07193C134.273 5.85193 134.168 5.57193 134.168 5.23193C134.168 4.89193 134.273 4.61693 134.483 4.40693C134.693 4.18693 134.998 4.07693 135.398 4.07693C135.798 4.07693 136.103 4.18693 136.313 4.40693C136.523 4.61693 136.628 4.89193 136.628 5.23193C136.628 5.57193 136.523 5.85193 136.313 6.07193C136.103 6.28193 135.798 6.38693 135.398 6.38693ZM142.558 16.7069C141.098 16.7069 140.008 16.2819 139.288 15.4319C138.578 14.5719 138.223 13.4219 138.223 11.9819C138.223 10.5419 138.578 9.39693 139.288 8.54693C140.008 7.68693 141.098 7.25693 142.558 7.25693C144.018 7.25693 145.108 7.68693 145.828 8.54693C146.548 9.39693 146.908 10.5419 146.908 11.9819C146.908 13.4219 146.548 14.5719 145.828 15.4319C145.108 16.2819 144.018 16.7069 142.558 16.7069ZM142.558 15.1619C143.268 15.1619 143.783 14.8919 144.103 14.3519C144.433 13.8119 144.598 13.0219 144.598 11.9819C144.598 10.9419 144.433 10.1519 144.103 9.61193C143.783 9.07193 143.268 8.80193 142.558 8.80193C141.858 8.80193 141.343 9.07193 141.013 9.61193C140.683 10.1519 140.518 10.9419 140.518 11.9819C140.518 13.0219 140.683 13.8119 141.013 14.3519C141.343 14.8919 141.858 15.1619 142.558 15.1619ZM148.596 16.4819V7.48193H150.636V8.83193H150.996C151.176 8.37193 151.456 7.99693 151.836 7.70693C152.226 7.40693 152.776 7.25693 153.486 7.25693C154.506 7.25693 155.261 7.57693 155.751 8.21693C156.241 8.84693 156.486 9.69193 156.486 10.7519V16.4819H154.266V11.1419C154.266 10.4819 154.146 9.97693 153.906 9.62693C153.676 9.26693 153.301 9.08693 152.781 9.08693C152.161 9.08693 151.676 9.33193 151.326 9.82193C150.986 10.3019 150.816 10.9019 150.816 11.6219V16.4819H148.596ZM161.924 16.7069C160.964 16.7069 160.194 16.5519 159.614 16.2419C159.034 15.9319 158.604 15.5369 158.324 15.0569C158.054 14.5769 157.904 14.0919 157.874 13.6019H159.989C160.039 13.8719 160.144 14.1269 160.304 14.3669C160.474 14.5969 160.699 14.7819 160.979 14.9219C161.259 15.0519 161.609 15.1169 162.029 15.1169C162.519 15.1169 162.879 15.0269 163.109 14.8469C163.339 14.6669 163.454 14.4319 163.454 14.1419C163.454 13.8819 163.349 13.6619 163.139 13.4819C162.939 13.3019 162.619 13.1369 162.179 12.9869L161.099 12.6269C160.589 12.4469 160.119 12.2519 159.689 12.0419C159.269 11.8219 158.929 11.5419 158.669 11.2019C158.419 10.8619 158.294 10.4269 158.294 9.89693C158.294 9.10693 158.589 8.47193 159.179 7.99193C159.779 7.50193 160.614 7.25693 161.684 7.25693C162.464 7.25693 163.104 7.38193 163.604 7.63193C164.104 7.87193 164.479 8.20193 164.729 8.62193C164.989 9.03193 165.139 9.49193 165.179 10.0019H163.139C163.089 9.63193 162.939 9.33693 162.689 9.11693C162.439 8.89693 162.079 8.78693 161.609 8.78693C161.199 8.78693 160.889 8.87193 160.679 9.04193C160.469 9.20193 160.364 9.42193 160.364 9.70193C160.364 9.98193 160.469 10.2169 160.679 10.4069C160.899 10.5869 161.234 10.7519 161.684 10.9019L162.749 11.2469C163.259 11.4069 163.724 11.5969 164.144 11.8169C164.574 12.0269 164.909 12.3019 165.149 12.6419C165.399 12.9819 165.524 13.4219 165.524 13.9619C165.524 14.7819 165.214 15.4469 164.594 15.9569C163.984 16.4569 163.094 16.7069 161.924 16.7069Z" fill="#1F2937"/>
<path d="M31.4202 35.4189V28.9561H34.1213C34.9499 28.9561 35.5547 29.1329 35.9359 29.4864C36.317 29.8344 36.5076 30.3039 36.5076 30.895C36.5076 31.486 36.317 31.9583 35.9359 32.3118C35.5603 32.6654 34.9554 32.8421 34.1213 32.8421H32.7956V35.4189H31.4202ZM32.7956 31.7981H33.9142C34.2898 31.7981 34.5826 31.7346 34.7925 31.6075C35.0079 31.475 35.1156 31.2402 35.1156 30.9033C35.1156 30.5718 35.0079 30.3398 34.7925 30.2073C34.5826 30.0692 34.2898 30.0001 33.9142 30.0001H32.7956V31.7981ZM39.4865 35.5432C38.6635 35.5432 38.0476 35.3085 37.6388 34.839C37.2356 34.3639 37.034 33.7287 37.034 32.9333C37.034 32.1378 37.2356 31.5054 37.6388 31.0358C38.0476 30.5608 38.6635 30.3233 39.4865 30.3233C40.3096 30.3233 40.9227 30.5608 41.3259 31.0358C41.7347 31.5054 41.9391 32.1378 41.9391 32.9333C41.9391 33.7287 41.7347 34.3639 41.3259 34.839C40.9227 35.3085 40.3096 35.5432 39.4865 35.5432ZM39.4865 34.6484C39.8511 34.6484 40.119 34.5048 40.2902 34.2175C40.4615 33.9303 40.5471 33.4994 40.5471 32.925C40.5471 32.356 40.4615 31.9307 40.2902 31.649C40.119 31.3617 39.8511 31.2181 39.4865 31.2181C39.122 31.2181 38.8541 31.3617 38.6828 31.649C38.5116 31.9307 38.426 32.356 38.426 32.925C38.426 33.4994 38.5116 33.9303 38.6828 34.2175C38.8541 34.5048 39.122 34.6484 39.4865 34.6484ZM43.2877 35.4189L42.5337 30.4558V30.4476H43.7766L44.3648 34.4247H44.5637L45.2514 30.4476H47.3891L48.0768 34.4247H48.2757L48.8639 30.4476H50.0239V30.4558L49.2699 35.4189H47.0825L46.3782 31.417H46.1794L45.4751 35.4189H43.2877ZM53.029 35.5432C52.2447 35.5432 51.6453 35.3085 51.231 34.839C50.8223 34.3694 50.6179 33.7314 50.6179 32.925C50.6179 32.3836 50.709 31.9196 50.8913 31.533C51.0791 31.1463 51.3498 30.848 51.7033 30.6381C52.0624 30.4282 52.4987 30.3233 53.0125 30.3233C53.7526 30.3233 54.3188 30.547 54.711 30.9944C55.1087 31.4418 55.3076 32.0992 55.3076 32.9664V33.2481H51.927C51.9547 33.6679 52.0624 33.9993 52.2502 34.2424C52.4435 34.4799 52.7031 34.5987 53.029 34.5987C53.2886 34.5987 53.4958 34.5213 53.6505 34.3667C53.8106 34.212 53.9156 34.0325 53.9653 33.8281H55.2413C55.1916 34.1319 55.0811 34.4136 54.9099 34.6732C54.7386 34.9329 54.4983 35.1428 54.189 35.3029C53.8797 35.4631 53.493 35.5432 53.029 35.5432ZM51.927 32.403H53.9984C53.9764 32.0274 53.8824 31.7374 53.7167 31.533C53.551 31.3231 53.3135 31.2181 53.0042 31.2181C52.7004 31.2181 52.4546 31.3176 52.2667 31.5164C52.0845 31.7097 51.9712 32.0053 51.927 32.403ZM56.1566 35.4189V30.4476H57.3829V31.359H57.5817C57.6149 31.1933 57.6756 31.0386 57.764 30.895C57.8579 30.7458 57.9988 30.6271 58.1866 30.5387C58.3744 30.4448 58.6257 30.3978 58.9406 30.3978H59.2057V31.6075H58.8411C58.3716 31.6075 58.0292 31.7263 57.8137 31.9638C57.6038 32.2014 57.4989 32.5576 57.4989 33.0327V35.4189H56.1566ZM62.9005 35.5184C62.5304 35.5184 62.2349 35.4466 62.0139 35.3029C61.793 35.1593 61.6245 34.9826 61.5085 34.7727H61.3096V35.4189H60.0668V28.7904H61.409V30.9944H61.6079C61.7294 30.7956 61.8951 30.6381 62.105 30.5221C62.3149 30.4061 62.5801 30.3481 62.9005 30.3481C63.3424 30.3481 63.7097 30.4558 64.0025 30.6713C64.3007 30.8867 64.5217 31.1877 64.6653 31.5744C64.8144 31.9611 64.889 32.4113 64.889 32.925C64.889 33.4221 64.8172 33.8668 64.6736 34.259C64.53 34.6511 64.3118 34.9605 64.019 35.1869C63.7263 35.4079 63.3534 35.5184 62.9005 35.5184ZM62.5193 34.5738C62.8231 34.5738 63.0607 34.4385 63.2319 34.1678C63.4087 33.8916 63.497 33.4801 63.497 32.9333C63.497 32.3864 63.4087 31.9776 63.2319 31.707C63.0607 31.4308 62.8231 31.2927 62.5193 31.2927C62.1824 31.2927 61.9117 31.4391 61.7073 31.7318C61.5085 32.0246 61.409 32.4251 61.409 32.9333C61.409 33.4359 61.5085 33.8364 61.7073 34.1347C61.9117 34.4274 62.1824 34.5738 62.5193 34.5738ZM66.005 37.0761V37.0595C66.1431 36.833 66.2922 36.5706 66.4524 36.2724C66.6126 35.9741 66.7535 35.6896 66.875 35.4189L65.1681 30.4973V30.4476H66.4938L67.0076 31.939C67.0904 32.1765 67.1733 32.4306 67.2561 32.7013C67.339 32.9719 67.4218 33.3144 67.5047 33.7287H67.7035C67.7864 33.3144 67.8693 32.9719 67.9521 32.7013C68.035 32.4306 68.1178 32.1765 68.2007 31.939L68.7144 30.4476H69.9738V30.4973L68.4493 34.7395C68.2504 35.2974 68.0571 35.7725 67.8693 36.1647C67.687 36.5624 67.5323 36.8662 67.4053 37.0761H66.005Z" fill="#1F2937"/>
<path d="M91.3669 34.0285C90.7262 34.6305 90.2179 35.1093 89.7966 35.5039C88.78 34.5555 87.6618 33.6768 86.7589 32.616C85.9457 31.661 85.9898 30.4625 86.6653 29.4005C87.0345 28.82 87.5775 28.3518 88.0805 27.79C88.6663 28.3398 89.1907 28.8307 89.7498 29.355C89.604 29.5142 89.4769 29.6573 89.3458 29.7964C88.6101 30.5722 88.5941 31.3627 89.3538 32.1318C89.9731 32.7605 90.6379 33.345 91.3669 34.0285Z" fill="#1F2937"/>
<path d="M81.2214 25.5909C81.7016 25.9079 82.0654 26.2623 82.4988 26.4068C83.0231 26.582 83.5715 26.4616 83.9862 26.0135C84.6108 25.3381 85.2421 24.6679 85.8989 23.9644C86.5102 24.5409 87.0131 25.0144 87.5294 25.5012C86.5476 26.4911 85.6501 27.4956 84.6483 28.3797C83.6424 29.2665 82.0346 29.1756 80.9913 28.3021C79.7072 27.2281 79.7086 27.2294 80.8388 26.0162C80.9752 25.8704 81.105 25.7206 81.2214 25.5909Z" fill="#1F2937"/>
<path d="M86.3188 37.2466C85.8386 36.9296 85.4748 36.5752 85.0414 36.4307C84.5171 36.2555 83.9687 36.3759 83.554 36.824C82.9294 37.4994 82.298 38.1696 81.6413 38.8732C81.03 38.2967 80.5271 37.8231 80.0107 37.3363C80.9925 36.3464 81.89 35.3419 82.8919 34.4578C83.8978 33.571 85.5055 33.6619 86.5489 34.5354C87.8329 35.6094 87.8316 35.6081 86.7013 36.8213C86.5649 36.9658 86.4352 37.1169 86.3188 37.2466Z" fill="#1F2937"/>
<path d="M77.7369 34.0139C79.0156 32.3847 79.0022 32.1426 77.5884 30.6859C77.2259 30.3128 76.834 29.965 76.5009 29.5677C76.4073 29.4554 76.3953 29.1451 76.4836 29.0354C76.834 28.6007 77.2379 28.2087 77.5924 27.8315C78.621 28.82 79.7178 29.7109 80.6073 30.7742C81.4727 31.8095 81.2935 33.2942 80.4 34.3148C80.071 34.6907 79.7178 35.0451 79.3219 35.4665C78.7802 34.9689 78.2719 34.5034 77.7369 34.0139Z" fill="#1F2937"/>
<path d="M85.1738 33.1012C84.0275 32.4659 83.0056 32.3897 81.8539 33.12C82.4706 31.9509 82.5334 30.9089 81.7764 29.7426C82.9401 30.4033 83.9887 30.4889 85.2073 29.7158C84.4823 30.8969 84.477 31.9456 85.1738 33.1012Z" fill="#01AEE0"/>
<path d="M95.9988 35.4189V30.0498H94.0848V28.9561H99.3047V30.0498H97.3908V35.4189H95.9988ZM101.363 35.5184C100.899 35.5184 100.518 35.4079 100.22 35.1869C99.9218 34.9605 99.7008 34.6511 99.5572 34.259C99.4136 33.8668 99.3418 33.4221 99.3418 32.925C99.3418 32.4113 99.4136 31.9611 99.5572 31.5744C99.7063 31.1877 99.93 30.8867 100.228 30.6713C100.527 30.4558 100.902 30.3481 101.355 30.3481C101.703 30.3481 101.988 30.4172 102.209 30.5553C102.435 30.6878 102.606 30.8674 102.722 31.0938H102.921V30.4476H104.164V35.4189H102.921V34.7727H102.722C102.606 34.9826 102.438 35.1593 102.217 35.3029C101.996 35.4466 101.711 35.5184 101.363 35.5184ZM101.711 34.5738C102.048 34.5738 102.316 34.4274 102.515 34.1347C102.72 33.8364 102.822 33.4359 102.822 32.9333C102.822 32.4251 102.72 32.0246 102.515 31.7318C102.316 31.4391 102.048 31.2927 101.711 31.2927C101.408 31.2927 101.167 31.4308 100.991 31.707C100.819 31.9776 100.734 32.3864 100.734 32.9333C100.734 33.4801 100.819 33.8916 100.991 34.1678C101.167 34.4385 101.408 34.5738 101.711 34.5738ZM105.798 35.4189C105.644 35.2422 105.533 35.0433 105.467 34.8224C105.406 34.5959 105.376 34.3004 105.376 33.9358V28.7904H106.718V33.795C106.718 34.2148 106.765 34.5434 106.859 34.781C106.953 35.0129 107.077 35.209 107.232 35.3692V35.4189H105.798ZM110.074 35.5432C109.29 35.5432 108.69 35.3085 108.276 34.839C107.867 34.3694 107.663 33.7314 107.663 32.925C107.663 32.3836 107.754 31.9196 107.936 31.533C108.124 31.1463 108.395 30.848 108.748 30.6381C109.107 30.4282 109.544 30.3233 110.058 30.3233C110.798 30.3233 111.364 30.547 111.756 30.9944C112.154 31.4418 112.353 32.0992 112.353 32.9664V33.2481H108.972C109 33.6679 109.107 33.9993 109.295 34.2424C109.489 34.4799 109.748 34.5987 110.074 34.5987C110.334 34.5987 110.541 34.5213 110.696 34.3667C110.856 34.212 110.961 34.0325 111.01 33.8281H112.286C112.237 34.1319 112.126 34.4136 111.955 34.6732C111.784 34.9329 111.543 35.1428 111.234 35.3029C110.925 35.4631 110.538 35.5432 110.074 35.5432ZM108.972 32.403H111.044C111.021 32.0274 110.928 31.7374 110.762 31.533C110.596 31.3231 110.359 31.2181 110.049 31.2181C109.745 31.2181 109.5 31.3176 109.312 31.5164C109.13 31.7097 109.016 32.0053 108.972 32.403ZM113.218 35.4189V30.4476H114.461V31.1933H114.66C114.759 30.9447 114.911 30.7376 115.116 30.5718C115.326 30.4061 115.632 30.3233 116.035 30.3233C116.588 30.3233 117.002 30.4973 117.278 30.8453C117.554 31.1933 117.693 31.6655 117.693 32.2621V35.4189H116.35V32.4858C116.35 32.1434 116.289 31.881 116.168 31.6987C116.046 31.5109 115.848 31.417 115.571 31.417C115.251 31.417 115.002 31.544 114.826 31.7981C114.649 32.0467 114.561 32.3588 114.561 32.7344V35.4189H113.218ZM119.579 35.4189C119.452 35.2698 119.35 35.0903 119.272 34.8804C119.201 34.6705 119.165 34.3556 119.165 33.9358V31.3921H118.485V30.4476H119.181V29.2047H120.499V30.4476H121.302V31.3921H120.499V33.795C120.499 34.2313 120.548 34.5655 120.648 34.7975C120.747 35.0295 120.866 35.2201 121.004 35.3692V35.4189H119.579ZM122.567 35.4189C122.412 35.2422 122.302 35.0433 122.236 34.8224C122.175 34.5959 122.144 34.3004 122.144 33.9358V28.7904H123.487V33.795C123.487 34.2148 123.534 34.5434 123.627 34.781C123.721 35.0129 123.846 35.209 124 35.3692V35.4189H122.567ZM125.07 37.0761V37.0595C125.208 36.833 125.357 36.5706 125.517 36.2724C125.677 35.9741 125.818 35.6896 125.94 35.4189L124.233 30.4973V30.4476H125.559L126.072 31.939C126.155 32.1765 126.238 32.4306 126.321 32.7013C126.404 32.9719 126.487 33.3144 126.569 33.7287H126.768C126.851 33.3144 126.934 32.9719 127.017 32.7013C127.1 32.4306 127.183 32.1765 127.265 31.939L127.779 30.4476H129.039V30.4973L127.514 34.7395C127.315 35.2974 127.122 35.7725 126.934 36.1647C126.752 36.5624 126.597 36.8662 126.47 37.0761H125.07ZM129.79 35.4687C129.53 35.4687 129.331 35.3969 129.193 35.2532C129.055 35.1041 128.986 34.9108 128.986 34.6732C128.986 34.4302 129.055 34.2369 129.193 34.0932C129.331 33.9496 129.53 33.8778 129.79 33.8778C130.05 33.8778 130.246 33.9496 130.378 34.0932C130.511 34.2369 130.577 34.4302 130.577 34.6732C130.577 34.9108 130.511 35.1041 130.378 35.2532C130.246 35.3969 130.05 35.4687 129.79 35.4687ZM133.328 35.5184C132.864 35.5184 132.483 35.4079 132.184 35.1869C131.886 34.9605 131.665 34.6511 131.522 34.259C131.378 33.8668 131.306 33.4221 131.306 32.925C131.306 32.4113 131.378 31.9611 131.522 31.5744C131.671 31.1877 131.894 30.8867 132.193 30.6713C132.491 30.4558 132.867 30.3481 133.32 30.3481C133.668 30.3481 133.952 30.4172 134.173 30.5553C134.4 30.6878 134.571 30.8674 134.687 31.0938H134.886V30.4476H136.128V35.4189H134.886V34.7727H134.687C134.571 34.9826 134.402 35.1593 134.181 35.3029C133.96 35.4466 133.676 35.5184 133.328 35.5184ZM133.676 34.5738C134.013 34.5738 134.281 34.4274 134.48 34.1347C134.684 33.8364 134.786 33.4359 134.786 32.9333C134.786 32.4251 134.684 32.0246 134.48 31.7318C134.281 31.4391 134.013 31.2927 133.676 31.2927C133.372 31.2927 133.132 31.4308 132.955 31.707C132.784 31.9776 132.698 32.3864 132.698 32.9333C132.698 33.4801 132.784 33.8916 132.955 34.1678C133.132 34.4385 133.372 34.5738 133.676 34.5738ZM137.357 35.4189V30.4476H138.699V35.4189H137.357ZM138.028 29.8759C137.79 29.8759 137.611 29.8151 137.489 29.6936C137.368 29.5665 137.307 29.4036 137.307 29.2047C137.307 29.0059 137.368 28.8457 137.489 28.7241C137.611 28.5971 137.79 28.5336 138.028 28.5336C138.265 28.5336 138.445 28.5971 138.566 28.7241C138.688 28.8457 138.749 29.0059 138.749 29.2047C138.749 29.4036 138.688 29.5665 138.566 29.6936C138.445 29.8151 138.265 29.8759 138.028 29.8759Z" fill="#1F2937"/>
</svg>
