<svg width="44" height="44" viewBox="0 0 44 44" fill="none" xmlns="http://www.w3.org/2000/svg">
<g filter="url(#filter0_i_1_2868)">
<g clip-path="url(#clip0_1_2868)">
<rect x="0.73288" y="0.891235" width="42.364" height="42.364" rx="7.06066" fill="black" fill-opacity="0.1"/>
<g opacity="0.4" filter="url(#filter1_f_1_2868)">
<ellipse cx="21.9298" cy="44.2463" rx="26.8757" ry="12.4351" fill="url(#paint0_linear_1_2868)"/>
</g>
<path d="M21.9147 10.7109C19.6675 10.7109 17.4707 11.3773 15.6022 12.6258C13.7337 13.8743 12.2774 15.6489 11.4174 17.725C10.5574 19.8012 10.3324 22.0858 10.7708 24.2899C11.2092 26.4939 12.2914 28.5185 13.8804 30.1075C15.4694 31.6966 17.494 32.7787 19.6981 33.2171C21.9021 33.6555 24.1867 33.4305 26.2629 32.5706C28.3391 31.7106 30.1136 30.2542 31.3621 28.3857C32.6106 26.5172 33.277 24.3204 33.277 22.0732C33.2738 19.0607 32.0757 16.1725 29.9456 14.0424C27.8154 11.9122 24.9272 10.7141 21.9147 10.7109ZM14.5293 15.9245L16.3942 17.7894C15.6221 18.7772 15.1314 19.9553 14.9739 21.1992H12.3409C12.5166 19.2592 13.28 17.419 14.5293 15.9245ZM12.3409 22.9472H14.9794C15.1368 24.191 15.6276 25.3692 16.3997 26.357L14.5293 28.2219C13.28 26.7274 12.5166 24.8872 12.3409 22.9472ZM21.0407 31.647C19.1011 31.4723 17.261 30.71 15.766 29.4619L17.6309 27.597C18.6197 28.366 19.7978 28.8537 21.0407 29.0085V31.647ZM21.0407 15.1378C19.7969 15.2953 18.6187 15.786 17.6309 16.5581L15.766 14.6877C17.261 13.4397 19.1011 12.6774 21.0407 12.5027V15.1378ZM31.4885 21.1992H28.8501C28.6942 19.9559 28.2054 18.7778 27.4353 17.7894L29.3002 15.9245C30.5494 17.419 31.3129 19.2592 31.4885 21.1992ZM22.7888 12.4994C24.7284 12.6741 26.5685 13.4364 28.0635 14.6845L26.1985 16.5527C25.2107 15.7806 24.0326 15.2898 22.7888 15.1324V12.4994ZM22.7888 31.647V29.0085C24.032 28.8527 25.2101 28.3639 26.1985 27.5937L28.0635 29.4587C26.5689 30.7079 24.7287 31.4713 22.7888 31.647ZM29.3002 28.2219L27.4353 26.357C28.2054 25.3686 28.6942 24.1905 28.8501 22.9472H31.4885C31.3129 24.8872 30.5494 26.7274 29.3002 28.2219Z" fill="url(#paint1_linear_1_2868)"/>
</g>
</g>
<defs>
<filter id="filter0_i_1_2868" x="-2.09138" y="-1.93303" width="48.0125" height="48.0124" filterUnits="userSpaceOnUse" color-interpolation-filters="sRGB">
<feFlood flood-opacity="0" result="BackgroundImageFix"/>
<feBlend mode="normal" in="SourceGraphic" in2="BackgroundImageFix" result="shape"/>
<feColorMatrix in="SourceAlpha" type="matrix" values="0 0 0 0 0 0 0 0 0 0 0 0 0 0 0 0 0 0 127 0" result="hardAlpha"/>
<feMorphology radius="45.1882" operator="erode" in="SourceAlpha" result="effect1_innerShadow_1_2868"/>
<feOffset dy="-2.82426"/>
<feGaussianBlur stdDeviation="1.41213"/>
<feComposite in2="hardAlpha" operator="arithmetic" k2="-1" k3="1"/>
<feColorMatrix type="matrix" values="0 0 0 0 1 0 0 0 0 1 0 0 0 0 1 0 0 0 0.05 0"/>
<feBlend mode="normal" in2="shape" result="effect1_innerShadow_1_2868"/>
</filter>
<filter id="filter1_f_1_2868" x="-32.4327" y="4.32433" width="108.725" height="79.8439" filterUnits="userSpaceOnUse" color-interpolation-filters="sRGB">
<feFlood flood-opacity="0" result="BackgroundImageFix"/>
<feBlend mode="normal" in="SourceGraphic" in2="BackgroundImageFix" result="shape"/>
<feGaussianBlur stdDeviation="13.7434" result="effect1_foregroundBlur_1_2868"/>
</filter>
<linearGradient id="paint0_linear_1_2868" x1="-10.5159" y1="45.6637" x2="32.9308" y2="45.6637" gradientUnits="userSpaceOnUse">
<stop stop-color="#8F5AF3"/>
<stop offset="1" stop-color="#ADEEFF"/>
</linearGradient>
<linearGradient id="paint1_linear_1_2868" x1="31.5095" y1="22.1367" x2="10.5525" y2="22.1367" gradientUnits="userSpaceOnUse">
<stop stop-color="#8F5AF3"/>
<stop offset="1" stop-color="#ADEEFF"/>
</linearGradient>
<clipPath id="clip0_1_2868">
<rect x="0.73288" y="0.891235" width="42.364" height="42.364" rx="7.06066" fill="white"/>
</clipPath>
</defs>
</svg>
