<svg width="44" height="44" viewBox="0 0 44 44" fill="none" xmlns="http://www.w3.org/2000/svg">
<g filter="url(#filter0_i_1_2877)">
<g clip-path="url(#clip0_1_2877)">
<rect x="0.832642" y="0.891235" width="42.364" height="42.364" rx="7.06066" fill="black" fill-opacity="0.1"/>
<g opacity="0.4" filter="url(#filter1_f_1_2877)">
<ellipse cx="22.0296" cy="44.2463" rx="26.8757" ry="12.4351" fill="url(#paint0_linear_1_2877)"/>
</g>
<path d="M30.2621 17.677L24.8703 12.2852C24.7987 12.2137 24.7138 12.157 24.6203 12.1184C24.5267 12.0797 24.4265 12.0599 24.3254 12.0599H15.0823C14.6737 12.0599 14.2819 12.2222 13.993 12.5111C13.7041 12.8 13.5418 13.1919 13.5418 13.6004V30.546C13.5418 30.9546 13.7041 31.3464 13.993 31.6353C14.2819 31.9242 14.6737 32.0865 15.0823 32.0865H28.9469C29.3555 32.0865 29.7473 31.9242 30.0362 31.6353C30.3251 31.3464 30.4874 30.9546 30.4874 30.546V18.222C30.4875 18.1208 30.4676 18.0206 30.429 17.9271C30.3903 17.8336 30.3336 17.7486 30.2621 17.677ZM25.0956 26.6948H18.9336C18.7293 26.6948 18.5334 26.6136 18.3889 26.4692C18.2445 26.3247 18.1633 26.1288 18.1633 25.9245C18.1633 25.7202 18.2445 25.5243 18.3889 25.3798C18.5334 25.2354 18.7293 25.1542 18.9336 25.1542H25.0956C25.2999 25.1542 25.4958 25.2354 25.6403 25.3798C25.7847 25.5243 25.8659 25.7202 25.8659 25.9245C25.8659 26.1288 25.7847 26.3247 25.6403 26.4692C25.4958 26.6136 25.2999 26.6948 25.0956 26.6948ZM25.0956 23.6137H18.9336C18.7293 23.6137 18.5334 23.5326 18.3889 23.3881C18.2445 23.2437 18.1633 23.0478 18.1633 22.8435C18.1633 22.6392 18.2445 22.4433 18.3889 22.2988C18.5334 22.1544 18.7293 22.0732 18.9336 22.0732H25.0956C25.2999 22.0732 25.4958 22.1544 25.6403 22.2988C25.7847 22.4433 25.8659 22.6392 25.8659 22.8435C25.8659 23.0478 25.7847 23.2437 25.6403 23.3881C25.4958 23.5326 25.2999 23.6137 25.0956 23.6137ZM24.3254 18.222V13.9856L28.5618 18.222H24.3254Z" fill="url(#paint1_linear_1_2877)"/>
</g>
</g>
<defs>
<filter id="filter0_i_1_2877" x="-1.99162" y="-1.93303" width="48.0125" height="48.0124" filterUnits="userSpaceOnUse" color-interpolation-filters="sRGB">
<feFlood flood-opacity="0" result="BackgroundImageFix"/>
<feBlend mode="normal" in="SourceGraphic" in2="BackgroundImageFix" result="shape"/>
<feColorMatrix in="SourceAlpha" type="matrix" values="0 0 0 0 0 0 0 0 0 0 0 0 0 0 0 0 0 0 127 0" result="hardAlpha"/>
<feMorphology radius="45.1882" operator="erode" in="SourceAlpha" result="effect1_innerShadow_1_2877"/>
<feOffset dy="-2.82426"/>
<feGaussianBlur stdDeviation="1.41213"/>
<feComposite in2="hardAlpha" operator="arithmetic" k2="-1" k3="1"/>
<feColorMatrix type="matrix" values="0 0 0 0 1 0 0 0 0 1 0 0 0 0 1 0 0 0 0.05 0"/>
<feBlend mode="normal" in2="shape" result="effect1_innerShadow_1_2877"/>
</filter>
<filter id="filter1_f_1_2877" x="-32.3329" y="4.32433" width="108.725" height="79.8439" filterUnits="userSpaceOnUse" color-interpolation-filters="sRGB">
<feFlood flood-opacity="0" result="BackgroundImageFix"/>
<feBlend mode="normal" in="SourceGraphic" in2="BackgroundImageFix" result="shape"/>
<feGaussianBlur stdDeviation="13.7434" result="effect1_foregroundBlur_1_2877"/>
</filter>
<linearGradient id="paint0_linear_1_2877" x1="-10.4162" y1="45.6637" x2="33.0305" y2="45.6637" gradientUnits="userSpaceOnUse">
<stop stop-color="#8F5AF3"/>
<stop offset="1" stop-color="#ADEEFF"/>
</linearGradient>
<linearGradient id="paint1_linear_1_2877" x1="29.1694" y1="22.1292" x2="13.5418" y2="22.1292" gradientUnits="userSpaceOnUse">
<stop stop-color="#8F5AF3"/>
<stop offset="1" stop-color="#ADEEFF"/>
</linearGradient>
<clipPath id="clip0_1_2877">
<rect x="0.832642" y="0.891235" width="42.364" height="42.364" rx="7.06066" fill="white"/>
</clipPath>
</defs>
</svg>
