<svg width="42" height="43" viewBox="0 0 42 43" fill="none" xmlns="http://www.w3.org/2000/svg">
<g filter="url(#filter0_i_1_135)">
<g clip-path="url(#clip0_1_135)">
<rect x="0.210846" y="0.860352" width="41.7931" height="41.7931" rx="6.96552" fill="black" fill-opacity="0.1"/>
<g opacity="0.4" filter="url(#filter1_f_1_135)">
<ellipse cx="21.122" cy="43.6308" rx="26.5135" ry="12.2675" fill="url(#paint0_linear_1_135)"/>
</g>
<path d="M21.1074 10.5479C18.8904 10.5479 16.7233 11.2053 14.8799 12.4369C13.0366 13.6686 11.5999 15.4192 10.7515 17.4674C9.9031 19.5157 9.68112 21.7694 10.1136 23.9438C10.5461 26.1182 11.6137 28.1154 13.1813 29.6831C14.749 31.2507 16.7462 32.3183 18.9206 32.7508C21.095 33.1833 23.3488 32.9613 25.397 32.1129C27.4452 31.2645 29.1958 29.8278 30.4275 27.9845C31.6591 26.1411 32.3166 23.974 32.3166 21.757C32.3134 18.7851 31.1314 15.9358 29.03 13.8344C26.9286 11.733 24.0793 10.551 21.1074 10.5479ZM13.8214 15.6911L15.6613 17.5309C14.8996 18.5054 14.4154 19.6677 14.2601 20.8948H11.6626C11.8359 18.9809 12.5891 17.1656 13.8214 15.6911ZM11.6626 22.6192H14.2655C14.4208 23.8463 14.9049 25.0086 15.6666 25.9831L13.8214 27.8229C12.5891 26.3485 11.8359 24.5331 11.6626 22.6192ZM20.2452 31.2018C18.3317 31.0294 16.5164 30.2774 15.0415 29.0462L16.8813 27.2064C17.8568 27.965 19.0189 28.4461 20.2452 28.5989V31.2018ZM20.2452 14.9151C19.0181 15.0704 17.8558 15.5546 16.8813 16.3163L15.0415 14.4711C16.5164 13.2398 18.3317 12.4878 20.2452 12.3154V14.9151ZM30.5522 20.8948H27.9493C27.7955 19.6682 27.3133 18.506 26.5535 17.5309L28.3933 15.6911C29.6257 17.1656 30.3789 18.9809 30.5522 20.8948ZM21.9696 12.3122C23.8831 12.4846 25.6984 13.2366 27.1733 14.4678L25.3335 16.3109C24.359 15.5492 23.1967 15.065 21.9696 14.9097V12.3122ZM21.9696 31.2018V28.5989C23.1962 28.4452 24.3584 27.9629 25.3335 27.2031L27.1733 29.043C25.6988 30.2754 23.8835 31.0285 21.9696 31.2018ZM28.3933 27.8229L26.5535 25.9831C27.3133 25.008 27.7955 23.8458 27.9493 22.6192H30.5522C30.3789 24.5331 29.6257 26.3485 28.3933 27.8229Z" fill="url(#paint1_linear_1_135)"/>
</g>
</g>
<defs>
<filter id="filter0_i_1_135" x="-2.57536" y="-1.92586" width="47.3655" height="47.3656" filterUnits="userSpaceOnUse" color-interpolation-filters="sRGB">
<feFlood flood-opacity="0" result="BackgroundImageFix"/>
<feBlend mode="normal" in="SourceGraphic" in2="BackgroundImageFix" result="shape"/>
<feColorMatrix in="SourceAlpha" type="matrix" values="0 0 0 0 0 0 0 0 0 0 0 0 0 0 0 0 0 0 127 0" result="hardAlpha"/>
<feMorphology radius="44.5793" operator="erode" in="SourceAlpha" result="effect1_innerShadow_1_135"/>
<feOffset dy="-2.78621"/>
<feGaussianBlur stdDeviation="1.3931"/>
<feComposite in2="hardAlpha" operator="arithmetic" k2="-1" k3="1"/>
<feColorMatrix type="matrix" values="0 0 0 0 1 0 0 0 0 1 0 0 0 0 1 0 0 0 0.05 0"/>
<feBlend mode="normal" in2="shape" result="effect1_innerShadow_1_135"/>
</filter>
<filter id="filter1_f_1_135" x="-32.5079" y="4.24683" width="107.26" height="78.7681" filterUnits="userSpaceOnUse" color-interpolation-filters="sRGB">
<feFlood flood-opacity="0" result="BackgroundImageFix"/>
<feBlend mode="normal" in="SourceGraphic" in2="BackgroundImageFix" result="shape"/>
<feGaussianBlur stdDeviation="13.5582" result="effect1_foregroundBlur_1_135"/>
</filter>
<linearGradient id="paint0_linear_1_135" x1="-10.8865" y1="45.0292" x2="31.9747" y2="45.0292" gradientUnits="userSpaceOnUse">
<stop stop-color="#8F5AF3"/>
<stop offset="1" stop-color="#ADEEFF"/>
</linearGradient>
<linearGradient id="paint1_linear_1_135" x1="12.5987" y1="8.27099" x2="33.0453" y2="9.2479" gradientUnits="userSpaceOnUse">
<stop offset="0.359455" stop-color="white"/>
<stop offset="1" stop-color="#999999"/>
</linearGradient>
<clipPath id="clip0_1_135">
<rect x="0.210846" y="0.860352" width="41.7931" height="41.7931" rx="6.96552" fill="white"/>
</clipPath>
</defs>
</svg>
