<svg width="23" height="23" viewBox="0 0 23 23" fill="none" xmlns="http://www.w3.org/2000/svg">
<g clip-path="url(#clip0_1_2968)">
<path d="M22.6056 6.89332C22.6056 4.95973 21.1834 3.40426 19.426 3.40426C17.0455 3.29297 14.6178 3.25 12.1367 3.25H11.3633C8.8883 3.25 6.45627 3.29297 4.0758 3.40469C2.32267 3.40469 0.900408 4.96875 0.900408 6.90234C0.792986 8.4316 0.747439 9.96129 0.750017 11.491C0.74572 13.0207 0.794418 14.5518 0.896111 16.0843C0.896111 18.0179 2.31838 19.5863 4.0715 19.5863C6.57228 19.7023 9.13752 19.7539 11.7457 19.7496C14.3582 19.7582 16.9163 19.7037 19.4199 19.5863C21.1774 19.5863 22.5996 18.0179 22.5996 16.0843C22.7028 14.5504 22.75 13.0207 22.7457 11.4867C22.7555 9.95699 22.7088 8.42587 22.6056 6.89332ZM9.64455 15.7062V7.26285L15.875 11.4824L9.64455 15.7062Z" fill="#7A7B85"/>
</g>
<defs>
<clipPath id="clip0_1_2968">
<rect width="22" height="22" fill="white" transform="translate(0.75 0.5)"/>
</clipPath>
</defs>
</svg>
