<svg width="22" height="23" viewBox="0 0 22 23" fill="none" xmlns="http://www.w3.org/2000/svg">
<path d="M15.0103 3.47902C16.073 3.4822 17.0913 3.90577 17.8428 4.65724C18.5942 5.4087 19.0178 6.427 19.021 7.48973V15.5103C19.0178 16.573 18.5942 17.5913 17.8428 18.3428C17.0913 19.0942 16.073 19.5178 15.0103 19.521H6.98973C5.927 19.5178 4.9087 19.0942 4.15724 18.3428C3.40577 17.5913 2.9822 16.573 2.97902 15.5103V7.48973C2.9822 6.427 3.40577 5.4087 4.15724 4.65724C4.9087 3.90577 5.927 3.4822 6.98973 3.47902H15.0103ZM15.0103 1.875H6.98973C3.90156 1.875 1.375 4.40156 1.375 7.48973V15.5103C1.375 18.5984 3.90156 21.125 6.98973 21.125H15.0103C18.0984 21.125 20.625 18.5984 20.625 15.5103V7.48973C20.625 4.40156 18.0984 1.875 15.0103 1.875Z" fill="#7A7B85"/>
<path d="M16.2134 7.48926C15.9754 7.48926 15.7428 7.4187 15.545 7.2865C15.3471 7.15429 15.1929 6.96639 15.1019 6.74655C15.0108 6.52671 14.987 6.2848 15.0334 6.05142C15.0798 5.81803 15.1944 5.60366 15.3627 5.4354C15.5309 5.26714 15.7453 5.15255 15.9787 5.10613C16.2121 5.0597 16.454 5.08353 16.6738 5.17459C16.8937 5.26565 17.0816 5.41986 17.2138 5.61771C17.346 5.81557 17.4165 6.04818 17.4165 6.28613C17.4169 6.44423 17.386 6.60083 17.3256 6.74695C17.2653 6.89307 17.1767 7.02584 17.0649 7.13763C16.9531 7.24942 16.8203 7.33803 16.6742 7.39837C16.5281 7.45871 16.3715 7.4896 16.2134 7.48926ZM11 8.29105C11.6346 8.29105 12.2549 8.47923 12.7825 8.83178C13.3102 9.18433 13.7214 9.68543 13.9642 10.2717C14.2071 10.858 14.2706 11.5031 14.1468 12.1255C14.023 12.7479 13.7175 13.3196 13.2687 13.7683C12.82 14.217 12.2483 14.5226 11.6259 14.6464C11.0036 14.7702 10.3584 14.7066 9.77217 14.4638C9.1859 14.2209 8.6848 13.8097 8.33225 13.2821C7.9797 12.7544 7.79153 12.1341 7.79153 11.4995C7.79244 10.6489 8.13076 9.83331 8.73227 9.2318C9.33378 8.63029 10.1493 8.29196 11 8.29105ZM11 6.68703C10.0482 6.68703 9.11773 6.96928 8.32632 7.49808C7.53491 8.02689 6.91808 8.7785 6.55383 9.65787C6.18959 10.5372 6.09428 11.5049 6.27997 12.4384C6.46566 13.3719 6.92401 14.2294 7.59705 14.9025C8.27009 15.5755 9.1276 16.0339 10.0611 16.2196C10.9947 16.4053 11.9623 16.3099 12.8417 15.9457C13.721 15.5815 14.4726 14.9646 15.0015 14.1732C15.5303 13.3818 15.8125 12.4514 15.8125 11.4995C15.8125 10.2232 15.3055 8.9991 14.403 8.09658C13.5004 7.19406 12.2764 6.68703 11 6.68703Z" fill="#7A7B85"/>
</svg>
