<svg width="391" height="162" viewBox="0 0 391 162" fill="none" xmlns="http://www.w3.org/2000/svg">
<path d="M-30.5132 0.775146H45.7996C49.9722 0.775146 53.3547 4.15769 53.3547 8.33026V62.8199C53.3547 66.9924 56.7373 70.375 60.9098 70.375H322.806C326.978 70.375 330.361 73.7575 330.361 77.9301V153.228C330.361 157.4 333.743 160.783 337.916 160.783H465.034" stroke="url(#paint0_radial_1_166)" stroke-width="0.944389"/>
<g filter="url(#filter0_ii_1_166)">
<rect x="91.4289" y="35.3816" width="173.7" height="52.4171" rx="26.2086" fill="#161F21"/>
<rect x="91.7929" y="35.7456" width="172.972" height="51.6891" rx="25.8446" stroke="#4D4F5C" stroke-width="0.728016"/>
<path fill-rule="evenodd" clip-rule="evenodd" d="M120.008 49.9092C118.067 50.1105 116.513 55.2742 116.513 61.6147C116.513 67.9553 118.067 73.1189 120.008 73.3203V73.3262C113.695 73.3262 108.577 68.0827 108.577 61.6145C108.577 55.1463 113.695 49.9028 120.008 49.9028V49.9092Z" fill="url(#paint1_linear_1_166)"/>
<path fill-rule="evenodd" clip-rule="evenodd" d="M123.146 72.4767C123.99 72.4767 124.736 70.6386 125.186 67.8285C125.508 69.4243 125.954 70.4125 126.447 70.4125C127.119 70.4125 127.703 68.5808 128.006 65.8779C128.316 66.9554 128.743 67.6211 129.215 67.6211C130.164 67.6211 130.933 64.9314 130.933 61.6135C130.933 58.2956 130.164 55.606 129.215 55.606C128.738 55.606 128.307 56.2859 127.996 57.3837C127.691 54.7286 127.112 52.936 126.447 52.936C125.96 52.936 125.518 53.9027 125.197 55.4677C124.748 52.6198 123.997 50.7524 123.146 50.7524C121.772 50.7524 120.658 55.6156 120.658 61.6146C120.658 67.6136 121.772 72.4767 123.146 72.4767Z" fill="url(#paint2_linear_1_166)"/>
<path d="M144.287 55.1199H146.629L150.702 65.065H150.852L154.925 55.1199H157.268V67.9136H155.431V58.6556H155.313L151.54 67.8948H150.015L146.242 58.6494H146.123V67.9136H144.287V55.1199ZM163.966 68.1072C163.067 68.1072 162.282 67.9011 161.611 67.4888C160.941 67.0765 160.42 66.4997 160.049 65.7584C159.679 65.0171 159.493 64.1508 159.493 63.1597C159.493 62.1643 159.679 61.2939 160.049 60.5485C160.42 59.803 160.941 59.2241 161.611 58.8118C162.282 58.3995 163.067 58.1934 163.966 58.1934C164.866 58.1934 165.651 58.3995 166.321 58.8118C166.992 59.2241 167.512 59.803 167.883 60.5485C168.254 61.2939 168.439 62.1643 168.439 63.1597C168.439 64.1508 168.254 65.0171 167.883 65.7584C167.512 66.4997 166.992 67.0765 166.321 67.4888C165.651 67.9011 164.866 68.1072 163.966 68.1072ZM163.972 66.5393C164.556 66.5393 165.039 66.3852 165.422 66.077C165.805 65.7688 166.088 65.3586 166.271 64.8463C166.459 64.3341 166.552 63.7698 166.552 63.1534C166.552 62.5412 166.459 61.979 166.271 61.4668C166.088 60.9503 165.805 60.536 165.422 60.2236C165.039 59.9113 164.556 59.7551 163.972 59.7551C163.385 59.7551 162.898 59.9113 162.511 60.2236C162.128 60.536 161.842 60.9503 161.655 61.4668C161.472 61.979 161.38 62.5412 161.38 63.1534C161.38 63.7698 161.472 64.3341 161.655 64.8463C161.842 65.3586 162.128 65.7688 162.511 66.077C162.898 66.3852 163.385 66.5393 163.972 66.5393ZM174.566 68.1072C173.666 68.1072 172.881 67.9011 172.211 67.4888C171.54 67.0765 171.02 66.4997 170.649 65.7584C170.278 65.0171 170.093 64.1508 170.093 63.1597C170.093 62.1643 170.278 61.2939 170.649 60.5485C171.02 59.803 171.54 59.2241 172.211 58.8118C172.881 58.3995 173.666 58.1934 174.566 58.1934C175.465 58.1934 176.25 58.3995 176.921 58.8118C177.591 59.2241 178.112 59.803 178.483 60.5485C178.853 61.2939 179.038 62.1643 179.038 63.1597C179.038 64.1508 178.853 65.0171 178.483 65.7584C178.112 66.4997 177.591 67.0765 176.921 67.4888C176.25 67.9011 175.465 68.1072 174.566 68.1072ZM174.572 66.5393C175.155 66.5393 175.638 66.3852 176.021 66.077C176.404 65.7688 176.688 65.3586 176.871 64.8463C177.058 64.3341 177.152 63.7698 177.152 63.1534C177.152 62.5412 177.058 61.979 176.871 61.4668C176.688 60.9503 176.404 60.536 176.021 60.2236C175.638 59.9113 175.155 59.7551 174.572 59.7551C173.985 59.7551 173.497 59.9113 173.11 60.2236C172.727 60.536 172.442 60.9503 172.254 61.4668C172.071 61.979 171.979 62.5412 171.979 63.1534C171.979 63.7698 172.071 64.3341 172.254 64.8463C172.442 65.3586 172.727 65.7688 173.11 66.077C173.497 66.3852 173.985 66.5393 174.572 66.5393ZM182.991 62.2164V67.9136H181.123V58.3183H182.916V59.88H183.035C183.256 59.372 183.601 58.9638 184.072 58.6556C184.547 58.3475 185.144 58.1934 185.865 58.1934C186.519 58.1934 187.091 58.3308 187.583 58.6057C188.074 58.8764 188.455 59.2803 188.726 59.8176C188.997 60.3548 189.132 61.0191 189.132 61.8103V67.9136H187.264V62.0352C187.264 61.3397 187.083 60.7963 186.721 60.4048C186.358 60.0091 185.861 59.8113 185.228 59.8113C184.795 59.8113 184.409 59.905 184.072 60.0924C183.739 60.2798 183.474 60.5547 183.279 60.917C183.087 61.2752 182.991 61.7083 182.991 62.2164ZM202.413 59.2803H200.464C200.389 58.8639 200.249 58.4974 200.045 58.1809C199.841 57.8644 199.591 57.5958 199.296 57.375C199 57.1543 198.669 56.9877 198.302 56.8753C197.94 56.7628 197.555 56.7066 197.147 56.7066C196.41 56.7066 195.75 56.8919 195.166 57.2626C194.588 57.6332 194.129 58.1767 193.792 58.893C193.459 59.6093 193.292 60.4839 193.292 61.5167C193.292 62.5579 193.459 63.4366 193.792 64.1529C194.129 64.8692 194.59 65.4106 195.173 65.7771C195.756 66.1436 196.412 66.3269 197.14 66.3269C197.544 66.3269 197.928 66.2727 198.29 66.1644C198.656 66.052 198.987 65.8875 199.283 65.6709C199.579 65.4544 199.829 65.1899 200.033 64.8776C200.241 64.5611 200.385 64.1987 200.464 63.7906L202.413 63.7969C202.309 64.4257 202.107 65.0046 201.807 65.5335C201.511 66.0582 201.13 66.5122 200.664 66.8953C200.201 67.2743 199.673 67.5679 199.077 67.7761C198.481 67.9844 197.832 68.0885 197.128 68.0885C196.02 68.0885 195.033 67.8261 194.167 67.3014C193.301 66.7725 192.618 66.0166 192.118 65.0337C191.622 64.0509 191.375 62.8786 191.375 61.5167C191.375 60.1507 191.624 58.9784 192.124 57.9997C192.624 57.0169 193.307 56.2631 194.173 55.7383C195.039 55.2094 196.024 54.945 197.128 54.945C197.807 54.945 198.44 55.0428 199.027 55.2386C199.618 55.4302 200.149 55.7134 200.62 56.0882C201.091 56.4588 201.48 56.9128 201.788 57.45C202.096 57.9831 202.305 58.5932 202.413 59.2803ZM206.441 62.2164V67.9136H204.573V55.1199H206.416V59.88H206.534C206.759 59.3636 207.103 58.9534 207.565 58.6494C208.027 58.3454 208.631 58.1934 209.377 58.1934C210.035 58.1934 210.609 58.3287 211.101 58.5994C211.596 58.8701 211.98 59.2741 212.25 59.8113C212.525 60.3444 212.663 61.0107 212.663 61.8103V67.9136H210.795V62.0352C210.795 61.3314 210.614 60.7858 210.251 60.3985C209.889 60.0071 209.385 59.8113 208.739 59.8113C208.298 59.8113 207.902 59.905 207.553 60.0924C207.207 60.2798 206.934 60.5547 206.734 60.917C206.538 61.2752 206.441 61.7083 206.441 62.2164ZM221.233 63.9343V58.3183H223.107V67.9136H221.271V66.2519H221.171C220.95 66.7641 220.596 67.191 220.109 67.5325C219.626 67.8698 219.024 68.0385 218.303 68.0385C217.687 68.0385 217.142 67.9032 216.667 67.6325C216.196 67.3576 215.826 66.9515 215.555 66.4143C215.288 65.8771 215.155 65.2128 215.155 64.4215V58.3183H217.023V64.1967C217.023 64.8505 217.204 65.3711 217.566 65.7584C217.929 66.1457 218.399 66.3394 218.978 66.3394C219.328 66.3394 219.676 66.2519 220.021 66.077C220.371 65.9021 220.661 65.6376 220.89 65.2836C221.123 64.9296 221.237 64.4799 221.233 63.9343ZM229.659 68.1072C228.73 68.1072 227.93 67.8969 227.26 67.4763C226.594 67.0515 226.081 66.4664 225.723 65.7209C225.365 64.9754 225.186 64.1217 225.186 63.1597C225.186 62.1852 225.369 61.3252 225.736 60.5797C226.102 59.8301 226.619 59.2449 227.285 58.8243C227.951 58.4037 228.736 58.1934 229.64 58.1934C230.369 58.1934 231.019 58.3287 231.589 58.5994C232.16 58.866 232.62 59.2408 232.97 59.7239C233.324 60.207 233.534 60.7713 233.601 61.4168H231.783C231.683 60.967 231.454 60.5797 231.096 60.2549C230.742 59.93 230.267 59.7676 229.671 59.7676C229.151 59.7676 228.695 59.905 228.303 60.1799C227.916 60.4506 227.614 60.8379 227.397 61.3418C227.181 61.8416 227.073 62.4329 227.073 63.1159C227.073 63.8156 227.179 64.4195 227.391 64.9275C227.604 65.4356 227.903 65.8292 228.291 66.1082C228.682 66.3872 229.142 66.5268 229.671 66.5268C230.025 66.5268 230.346 66.4622 230.633 66.3331C230.925 66.1998 231.168 66.0103 231.364 65.7646C231.564 65.5189 231.704 65.2232 231.783 64.8776H233.601C233.534 65.4981 233.332 66.052 232.995 66.5393C232.657 67.0265 232.205 67.4097 231.639 67.6887C231.077 67.9677 230.417 68.1072 229.659 68.1072ZM237.316 64.6589L237.303 62.3788H237.628L241.451 58.3183H243.688L239.327 62.941H239.034L237.316 64.6589ZM235.598 67.9136V55.1199H237.466V67.9136H235.598ZM241.658 67.9136L238.222 63.3533L239.509 62.0477L243.95 67.9136H241.658Z" fill="#CFD3DA"/>
</g>
<defs>
<filter id="filter0_ii_1_166" x="91.4289" y="29.7153" width="173.701" height="63.7499" filterUnits="userSpaceOnUse" color-interpolation-filters="sRGB">
<feFlood flood-opacity="0" result="BackgroundImageFix"/>
<feBlend mode="normal" in="SourceGraphic" in2="BackgroundImageFix" result="shape"/>
<feColorMatrix in="SourceAlpha" type="matrix" values="0 0 0 0 0 0 0 0 0 0 0 0 0 0 0 0 0 0 127 0" result="hardAlpha"/>
<feOffset dy="-5.66634"/>
<feGaussianBlur stdDeviation="3.11648"/>
<feComposite in2="hardAlpha" operator="arithmetic" k2="-1" k3="1"/>
<feColorMatrix type="matrix" values="0 0 0 0 0.670588 0 0 0 0 0.933333 0 0 0 0 0.509804 0 0 0 0.1 0"/>
<feBlend mode="lighten" in2="shape" result="effect1_innerShadow_1_166"/>
<feColorMatrix in="SourceAlpha" type="matrix" values="0 0 0 0 0 0 0 0 0 0 0 0 0 0 0 0 0 0 127 0" result="hardAlpha"/>
<feOffset dy="5.66634"/>
<feGaussianBlur stdDeviation="3.11648"/>
<feComposite in2="hardAlpha" operator="arithmetic" k2="-1" k3="1"/>
<feColorMatrix type="matrix" values="0 0 0 0 0.670588 0 0 0 0 0.933333 0 0 0 0 0.509804 0 0 0 0.1 0"/>
<feBlend mode="lighten" in2="effect1_innerShadow_1_166" result="effect2_innerShadow_1_166"/>
</filter>
<radialGradient id="paint0_radial_1_166" cx="0" cy="0" r="1" gradientUnits="userSpaceOnUse" gradientTransform="translate(217.059 63.1998) scale(217.331 867.93)">
<stop stop-color="#A6A7AD"/>
<stop offset="1" stop-color="#13161B"/>
</radialGradient>
<linearGradient id="paint1_linear_1_166" x1="107.392" y1="62.9495" x2="116.632" y2="62.9495" gradientUnits="userSpaceOnUse">
<stop stop-color="#8F5AF3"/>
<stop offset="1" stop-color="#ADEEFF"/>
</linearGradient>
<linearGradient id="paint2_linear_1_166" x1="130.134" y1="61.6753" x2="120.658" y2="61.6753" gradientUnits="userSpaceOnUse">
<stop stop-color="#8F5AF3"/>
<stop offset="1" stop-color="#ADEEFF"/>
</linearGradient>
</defs>
</svg>
