<svg width="12" height="13" viewBox="0 0 12 13" fill="none" xmlns="http://www.w3.org/2000/svg">
<path d="M7.95424 4.61176C7.95424 3.86459 7.73268 3.13419 7.31757 2.51294C6.90246 1.89169 6.31245 1.40748 5.62215 1.12155C4.93185 0.83562 4.17227 0.760807 3.43945 0.906573C2.70663 1.05234 2.0335 1.41214 1.50517 1.94047C0.976835 2.4688 0.617037 3.14194 0.471271 3.87475C0.325504 4.60757 0.400317 5.36716 0.686248 6.05746C0.972179 6.74775 1.45639 7.33776 2.07764 7.75287C2.69889 8.16798 3.42929 8.38954 4.17646 8.38954V4.61176H7.95424Z" fill="#D9D9D9"/>
<path d="M4.17516 8.38937C4.17516 9.13655 4.39672 9.86694 4.81183 10.4882C5.22693 11.1094 5.81694 11.5937 6.50724 11.8796C7.19754 12.1655 7.95712 12.2403 8.68994 12.0946C9.42276 11.9488 10.0959 11.589 10.6242 11.0607C11.1526 10.5323 11.5124 9.8592 11.6581 9.12638C11.8039 8.39356 11.7291 7.63398 11.4431 6.94368C11.1572 6.25338 10.673 5.66337 10.0518 5.24827C9.4305 4.83316 8.70011 4.6116 7.95293 4.6116L7.95293 8.38937L4.17516 8.38937Z" fill="#D9D9D9"/>
</svg>
