<svg width="12" height="11" viewBox="0 0 12 11" fill="none" xmlns="http://www.w3.org/2000/svg">
<path d="M11.7307 5.5C11.7307 4.77773 11.5885 4.06253 11.3121 3.39524C11.0356 2.72795 10.6305 2.12163 10.1198 1.61091C9.60908 1.10019 9.00276 0.695063 8.33547 0.418662C7.66818 0.142262 6.95298 -3.15714e-08 6.23071 0L6.23071 5.5H11.7307Z" fill="#D9D9D9"/>
<path d="M0.730713 5.5C0.730713 6.22227 0.872975 6.93747 1.14938 7.60476C1.42578 8.27205 1.8309 8.87836 2.34162 9.38909C2.85235 9.89981 3.45866 10.3049 4.12595 10.5813C4.79324 10.8577 5.50844 11 6.23071 11L6.23071 5.5L0.730713 5.5Z" fill="#D9D9D9"/>
</svg>
