<svg width="17" height="17" viewBox="0 0 17 17" fill="none" xmlns="http://www.w3.org/2000/svg">
<path d="M10.9542 6.61176C10.9542 5.86459 10.7327 5.13419 10.3176 4.51294C9.90246 3.89169 9.31245 3.40748 8.62215 3.12155C7.93185 2.83562 7.17227 2.76081 6.43945 2.90657C5.70663 3.05234 5.0335 3.41214 4.50517 3.94047C3.97684 4.4688 3.61704 5.14194 3.47127 5.87475C3.3255 6.60757 3.40032 7.36716 3.68625 8.05746C3.97218 8.74775 4.45639 9.33776 5.07764 9.75287C5.69889 10.168 6.42929 10.3895 7.17646 10.3895V6.61176H10.9542Z" fill="#D9D9D9"/>
<path d="M7.17516 10.3894C7.17516 11.1365 7.39672 11.8669 7.81183 12.4882C8.22693 13.1094 8.81694 13.5937 9.50724 13.8796C10.1975 14.1655 10.9571 14.2403 11.6899 14.0946C12.4228 13.9488 13.0959 13.589 13.6242 13.0607C14.1526 12.5323 14.5124 11.8592 14.6581 11.1264C14.8039 10.3936 14.7291 9.63398 14.4431 8.94368C14.1572 8.25338 13.673 7.66337 13.0518 7.24827C12.4305 6.83316 11.7001 6.6116 10.9529 6.6116L10.9529 10.3894L7.17516 10.3894Z" fill="#D9D9D9"/>
</svg>
