<svg width="13" height="12" viewBox="0 0 13 12" fill="none" xmlns="http://www.w3.org/2000/svg">
<path d="M6.39738 0C5.65322 -8.87399e-09 4.91635 0.146573 4.22884 0.431349C3.54133 0.716126 2.91664 1.13353 2.39044 1.65973C1.86424 2.18593 1.44684 2.81062 1.16206 3.49813C0.877286 4.18564 0.730713 4.92251 0.730713 5.66667C0.730713 6.41082 0.877286 7.1477 1.16206 7.83521C1.44684 8.52272 1.86424 9.14741 2.39044 9.67361C2.91664 10.1998 3.54133 10.6172 4.22884 10.902C4.91635 11.1868 5.65322 11.3333 6.39738 11.3333L6.39738 5.66667V0Z" fill="#D9D9D9"/>
<path d="M12.0641 0C11.3199 -8.87399e-09 10.583 0.146573 9.89553 0.431349C9.20802 0.716126 8.58333 1.13353 8.05713 1.65973C7.53093 2.18593 7.11353 2.81062 6.82875 3.49813C6.54397 4.18564 6.3974 4.92251 6.3974 5.66667C6.3974 6.41082 6.54397 7.1477 6.82875 7.83521C7.11353 8.52272 7.53093 9.14741 8.05713 9.67361C8.58333 10.1998 9.20802 10.6172 9.89553 10.902C10.583 11.1868 11.3199 11.3333 12.0641 11.3333L12.0641 5.66667V0Z" fill="#D9D9D9"/>
</svg>
