<svg width="44" height="44" viewBox="0 0 44 44" fill="none" xmlns="http://www.w3.org/2000/svg">
<g filter="url(#filter0_i_1_2886)">
<g clip-path="url(#clip0_1_2886)">
<rect x="0.932617" y="0.891235" width="42.364" height="42.364" rx="7.06066" fill="black" fill-opacity="0.1"/>
<g opacity="0.4" filter="url(#filter1_f_1_2886)">
<ellipse cx="22.1298" cy="44.2463" rx="26.8757" ry="12.4351" fill="url(#paint0_linear_1_2886)"/>
</g>
<path d="M30.6281 13.1406H13.6011C13.1905 13.1406 12.7968 13.2975 12.5065 13.5767C12.2162 13.8559 12.0532 14.2345 12.0532 14.6294V27.284C12.0532 27.6788 12.2162 28.0575 12.5065 28.3367C12.7968 28.6159 13.1905 28.7727 13.6011 28.7727H15.149V30.2615C15.149 30.4589 15.2305 30.6483 15.3757 30.7879C15.5208 30.9275 15.7177 31.0059 15.9229 31.0059C16.1282 31.0059 16.3251 30.9275 16.4702 30.7879C16.6154 30.6483 16.6969 30.4589 16.6969 30.2615V28.7727H27.5323V30.2615C27.5323 30.4589 27.6138 30.6483 27.759 30.7879C27.9041 30.9275 28.101 31.0059 28.3063 31.0059C28.5115 31.0059 28.7084 30.9275 28.8535 30.7879C28.9987 30.6483 29.0802 30.4589 29.0802 30.2615V28.7727H30.6281C31.0387 28.7727 31.4324 28.6159 31.7227 28.3367C32.013 28.0575 32.176 27.6788 32.176 27.284V14.6294C32.176 14.2345 32.013 13.8559 31.7227 13.5767C31.4324 13.2975 31.0387 13.1406 30.6281 13.1406ZM29.8542 22.0733H27.0573C26.867 22.8762 26.3758 23.5836 25.6776 24.0603C24.9794 24.5371 24.123 24.7497 23.2721 24.6576C22.4212 24.5655 21.6354 24.1752 21.0648 23.5611C20.4942 22.9471 20.1788 22.1524 20.1788 21.3289C20.1788 20.5053 20.4942 19.7106 21.0648 19.0966C21.6354 18.4826 22.4212 18.0922 23.2721 18.0001C24.123 17.9081 24.9794 18.1207 25.6776 18.5974C26.3758 19.0741 26.867 19.7815 27.0573 20.5845H29.8542C30.0594 20.5845 30.2563 20.6629 30.4014 20.8025C30.5466 20.9421 30.6281 21.1314 30.6281 21.3289C30.6281 21.5263 30.5466 21.7156 30.4014 21.8552C30.2563 21.9948 30.0594 22.0733 29.8542 22.0733ZM25.5974 21.3289C25.5974 21.6969 25.4839 22.0567 25.2713 22.3628C25.0587 22.6688 24.7565 22.9073 24.403 23.0482C24.0494 23.189 23.6604 23.2259 23.285 23.1541C22.9097 23.0823 22.5649 22.905 22.2943 22.6448C22.0237 22.3845 21.8395 22.0529 21.7648 21.6919C21.6901 21.3309 21.7285 20.9568 21.8749 20.6167C22.0214 20.2767 22.2694 19.986 22.5875 19.7815C22.9057 19.577 23.2798 19.4679 23.6625 19.4679C23.9166 19.4679 24.1682 19.516 24.403 19.6096C24.6377 19.7031 24.851 19.8402 25.0307 20.013C25.2104 20.1858 25.3529 20.3909 25.4501 20.6167C25.5474 20.8425 25.5974 21.0845 25.5974 21.3289Z" fill="url(#paint1_linear_1_2886)"/>
</g>
</g>
<defs>
<filter id="filter0_i_1_2886" x="-1.89165" y="-1.93303" width="48.0125" height="48.0124" filterUnits="userSpaceOnUse" color-interpolation-filters="sRGB">
<feFlood flood-opacity="0" result="BackgroundImageFix"/>
<feBlend mode="normal" in="SourceGraphic" in2="BackgroundImageFix" result="shape"/>
<feColorMatrix in="SourceAlpha" type="matrix" values="0 0 0 0 0 0 0 0 0 0 0 0 0 0 0 0 0 0 127 0" result="hardAlpha"/>
<feMorphology radius="45.1882" operator="erode" in="SourceAlpha" result="effect1_innerShadow_1_2886"/>
<feOffset dy="-2.82426"/>
<feGaussianBlur stdDeviation="1.41213"/>
<feComposite in2="hardAlpha" operator="arithmetic" k2="-1" k3="1"/>
<feColorMatrix type="matrix" values="0 0 0 0 1 0 0 0 0 1 0 0 0 0 1 0 0 0 0.05 0"/>
<feBlend mode="normal" in2="shape" result="effect1_innerShadow_1_2886"/>
</filter>
<filter id="filter1_f_1_2886" x="-32.2327" y="4.32433" width="108.725" height="79.8439" filterUnits="userSpaceOnUse" color-interpolation-filters="sRGB">
<feFlood flood-opacity="0" result="BackgroundImageFix"/>
<feBlend mode="normal" in="SourceGraphic" in2="BackgroundImageFix" result="shape"/>
<feGaussianBlur stdDeviation="13.7434" result="effect1_foregroundBlur_1_2886"/>
</filter>
<linearGradient id="paint0_linear_1_2886" x1="-10.3159" y1="45.6637" x2="33.1307" y2="45.6637" gradientUnits="userSpaceOnUse">
<stop stop-color="#8F5AF3"/>
<stop offset="1" stop-color="#ADEEFF"/>
</linearGradient>
<linearGradient id="paint1_linear_1_2886" x1="30.6109" y1="22.1232" x2="12.0532" y2="22.1232" gradientUnits="userSpaceOnUse">
<stop stop-color="#8F5AF3"/>
<stop offset="1" stop-color="#ADEEFF"/>
</linearGradient>
<clipPath id="clip0_1_2886">
<rect x="0.932617" y="0.891235" width="42.364" height="42.364" rx="7.06066" fill="white"/>
</clipPath>
</defs>
</svg>
