<svg width="42" height="43" viewBox="0 0 42 43" fill="none" xmlns="http://www.w3.org/2000/svg">
<g filter="url(#filter0_i_1_145)">
<g clip-path="url(#clip0_1_145)">
<rect x="0.210846" y="0.309814" width="41.7931" height="41.7931" rx="6.96552" fill="black" fill-opacity="0.1"/>
<g opacity="0.4" filter="url(#filter1_f_1_145)">
<ellipse cx="21.122" cy="43.0821" rx="26.5135" ry="12.2675" fill="url(#paint0_linear_1_145)"/>
</g>
<path d="M21.1074 9.99719C18.8904 9.99719 16.7233 10.6546 14.8799 11.8863C13.0366 13.118 11.5999 14.8686 10.7515 16.9168C9.9031 18.965 9.68112 21.2188 10.1136 23.3931C10.5461 25.5675 11.6137 27.5648 13.1813 29.1324C14.749 30.7 16.7462 31.7676 18.9206 32.2001C21.095 32.6326 23.3488 32.4106 25.397 31.5623C27.4452 30.7139 29.1958 29.2772 30.4275 27.4338C31.6591 25.5905 32.3166 23.4233 32.3166 21.2063C32.3134 18.2345 31.1314 15.3852 29.03 13.2837C26.9286 11.1823 24.0793 10.0003 21.1074 9.99719ZM13.8214 15.1405L15.6613 16.9803C14.8996 17.9548 14.4154 19.117 14.2601 20.3441H11.6626C11.8359 18.4303 12.5891 16.6149 13.8214 15.1405ZM11.6626 22.0686H14.2655C14.4208 23.2957 14.9049 24.4579 15.6666 25.4324L13.8214 27.2722C12.5891 25.7978 11.8359 23.9824 11.6626 22.0686ZM20.2452 30.6511C18.3317 30.4788 16.5164 29.7268 15.0415 28.4955L16.8813 26.6557C17.8568 27.4143 19.0189 27.8954 20.2452 28.0482V30.6511ZM20.2452 14.3645C19.0181 14.5198 17.8558 15.0039 16.8813 15.7656L15.0415 13.9204C16.5164 12.6892 18.3317 11.9372 20.2452 11.7648V14.3645ZM30.5522 20.3441H27.9493C27.7955 19.1176 27.3133 17.9554 26.5535 16.9803L28.3933 15.1405C29.6257 16.6149 30.3789 18.4303 30.5522 20.3441ZM21.9696 11.7616C23.8831 11.9339 25.6984 12.6859 27.1733 13.9172L25.3335 15.7602C24.359 14.9985 23.1967 14.5144 21.9696 14.3591V11.7616ZM21.9696 30.6511V28.0482C23.1962 27.8945 24.3584 27.4123 25.3335 26.6525L27.1733 28.4923C25.6988 29.7247 23.8835 30.4778 21.9696 30.6511ZM28.3933 27.2722L26.5535 25.4324C27.3133 24.4573 27.7955 23.2951 27.9493 22.0686H30.5522C30.3789 23.9824 29.6257 25.7978 28.3933 27.2722Z" fill="url(#paint1_linear_1_145)"/>
</g>
</g>
<defs>
<filter id="filter0_i_1_145" x="-2.57536" y="-2.47639" width="47.3655" height="47.3656" filterUnits="userSpaceOnUse" color-interpolation-filters="sRGB">
<feFlood flood-opacity="0" result="BackgroundImageFix"/>
<feBlend mode="normal" in="SourceGraphic" in2="BackgroundImageFix" result="shape"/>
<feColorMatrix in="SourceAlpha" type="matrix" values="0 0 0 0 0 0 0 0 0 0 0 0 0 0 0 0 0 0 127 0" result="hardAlpha"/>
<feMorphology radius="44.5793" operator="erode" in="SourceAlpha" result="effect1_innerShadow_1_145"/>
<feOffset dy="-2.78621"/>
<feGaussianBlur stdDeviation="1.3931"/>
<feComposite in2="hardAlpha" operator="arithmetic" k2="-1" k3="1"/>
<feColorMatrix type="matrix" values="0 0 0 0 1 0 0 0 0 1 0 0 0 0 1 0 0 0 0.05 0"/>
<feBlend mode="normal" in2="shape" result="effect1_innerShadow_1_145"/>
</filter>
<filter id="filter1_f_1_145" x="-32.5079" y="3.69812" width="107.26" height="78.7679" filterUnits="userSpaceOnUse" color-interpolation-filters="sRGB">
<feFlood flood-opacity="0" result="BackgroundImageFix"/>
<feBlend mode="normal" in="SourceGraphic" in2="BackgroundImageFix" result="shape"/>
<feGaussianBlur stdDeviation="13.5582" result="effect1_foregroundBlur_1_145"/>
</filter>
<linearGradient id="paint0_linear_1_145" x1="-10.8865" y1="44.4805" x2="31.9747" y2="44.4805" gradientUnits="userSpaceOnUse">
<stop stop-color="#8F5AF3"/>
<stop offset="1" stop-color="#ADEEFF"/>
</linearGradient>
<linearGradient id="paint1_linear_1_145" x1="12.5987" y1="7.72033" x2="33.0453" y2="8.69724" gradientUnits="userSpaceOnUse">
<stop offset="0.359455" stop-color="white"/>
<stop offset="1" stop-color="#999999"/>
</linearGradient>
<clipPath id="clip0_1_145">
<rect x="0.210846" y="0.309814" width="41.7931" height="41.7931" rx="6.96552" fill="white"/>
</clipPath>
</defs>
</svg>
