<svg width="43" height="43" viewBox="0 0 43 43" fill="none" xmlns="http://www.w3.org/2000/svg">
<g filter="url(#filter0_i_1_161)">
<g clip-path="url(#clip0_1_161)">
<rect x="0.743896" y="0.434448" width="41.7931" height="41.7931" rx="6.96552" fill="black" fill-opacity="0.1"/>
<g opacity="0.4" filter="url(#filter1_f_1_161)">
<ellipse cx="21.6551" cy="43.2059" rx="26.5135" ry="12.2675" fill="url(#paint0_linear_1_161)"/>
</g>
<path d="M30.0391 12.5189H13.2415C12.8365 12.5189 12.4481 12.6737 12.1617 12.9491C11.8753 13.2245 11.7144 13.5981 11.7144 13.9876V26.4717C11.7144 26.8612 11.8753 27.2348 12.1617 27.5102C12.4481 27.7856 12.8365 27.9404 13.2415 27.9404H14.7685V29.4091C14.7685 29.6039 14.849 29.7906 14.9922 29.9284C15.1353 30.0661 15.3296 30.1435 15.5321 30.1435C15.7346 30.1435 15.9288 30.0661 16.072 29.9284C16.2151 29.7906 16.2956 29.6039 16.2956 29.4091V27.9404H26.985V29.4091C26.985 29.6039 27.0654 29.7906 27.2086 29.9284C27.3518 30.0661 27.546 30.1435 27.7485 30.1435C27.951 30.1435 28.1452 30.0661 28.2884 29.9284C28.4316 29.7906 28.512 29.6039 28.512 29.4091V27.9404H30.0391C30.4441 27.9404 30.8325 27.7856 31.1189 27.5102C31.4053 27.2348 31.5661 26.8612 31.5661 26.4717V13.9876C31.5661 13.5981 31.4053 13.2245 31.1189 12.9491C30.8325 12.6737 30.4441 12.5189 30.0391 12.5189ZM29.2756 21.3312H26.5164C26.3286 22.1233 25.8441 22.8212 25.1553 23.2915C24.4665 23.7618 23.6217 23.9716 22.7822 23.8807C21.9428 23.7899 21.1676 23.4048 20.6046 22.799C20.0417 22.1933 19.7305 21.4093 19.7305 20.5968C19.7305 19.7844 20.0417 19.0004 20.6046 18.3946C21.1676 17.7889 21.9428 17.4038 22.7822 17.313C23.6217 17.2221 24.4665 17.4319 25.1553 17.9022C25.8441 18.3725 26.3286 19.0703 26.5164 19.8625H29.2756C29.4781 19.8625 29.6723 19.9398 29.8155 20.0776C29.9586 20.2153 30.0391 20.4021 30.0391 20.5968C30.0391 20.7916 29.9586 20.9784 29.8155 21.1161C29.6723 21.2538 29.4781 21.3312 29.2756 21.3312ZM25.0762 20.5968C25.0762 20.9599 24.9642 21.3149 24.7545 21.6168C24.5447 21.9187 24.2466 22.154 23.8978 22.293C23.549 22.4319 23.1652 22.4683 22.7949 22.3974C22.4247 22.3266 22.0845 22.1518 21.8176 21.895C21.5506 21.6382 21.3688 21.3111 21.2952 20.955C21.2215 20.5989 21.2593 20.2297 21.4038 19.8943C21.5483 19.5588 21.7929 19.2721 22.1069 19.0703C22.4208 18.8686 22.7898 18.7609 23.1673 18.7609C23.418 18.7609 23.6662 18.8084 23.8978 18.9007C24.1294 18.993 24.3398 19.1282 24.5171 19.2987C24.6943 19.4691 24.8349 19.6715 24.9309 19.8943C25.0268 20.117 25.0762 20.3557 25.0762 20.5968Z" fill="url(#paint1_linear_1_161)"/>
</g>
</g>
<defs>
<filter id="filter0_i_1_161" x="-2.04231" y="-2.35176" width="47.3655" height="47.3655" filterUnits="userSpaceOnUse" color-interpolation-filters="sRGB">
<feFlood flood-opacity="0" result="BackgroundImageFix"/>
<feBlend mode="normal" in="SourceGraphic" in2="BackgroundImageFix" result="shape"/>
<feColorMatrix in="SourceAlpha" type="matrix" values="0 0 0 0 0 0 0 0 0 0 0 0 0 0 0 0 0 0 127 0" result="hardAlpha"/>
<feMorphology radius="44.5793" operator="erode" in="SourceAlpha" result="effect1_innerShadow_1_161"/>
<feOffset dy="-2.78621"/>
<feGaussianBlur stdDeviation="1.3931"/>
<feComposite in2="hardAlpha" operator="arithmetic" k2="-1" k3="1"/>
<feColorMatrix type="matrix" values="0 0 0 0 1 0 0 0 0 1 0 0 0 0 1 0 0 0 0.05 0"/>
<feBlend mode="normal" in2="shape" result="effect1_innerShadow_1_161"/>
</filter>
<filter id="filter1_f_1_161" x="-31.9749" y="3.8219" width="107.26" height="78.7679" filterUnits="userSpaceOnUse" color-interpolation-filters="sRGB">
<feFlood flood-opacity="0" result="BackgroundImageFix"/>
<feBlend mode="normal" in="SourceGraphic" in2="BackgroundImageFix" result="shape"/>
<feGaussianBlur stdDeviation="13.5582" result="effect1_foregroundBlur_1_161"/>
</filter>
<linearGradient id="paint0_linear_1_161" x1="-10.3534" y1="44.6043" x2="32.5078" y2="44.6043" gradientUnits="userSpaceOnUse">
<stop stop-color="#8F5AF3"/>
<stop offset="1" stop-color="#ADEEFF"/>
</linearGradient>
<linearGradient id="paint1_linear_1_161" x1="14.1057" y1="10.7289" x2="32.2004" y2="11.7027" gradientUnits="userSpaceOnUse">
<stop offset="0.359455" stop-color="white"/>
<stop offset="1" stop-color="#999999"/>
</linearGradient>
<clipPath id="clip0_1_161">
<rect x="0.743896" y="0.434448" width="41.7931" height="41.7931" rx="6.96552" fill="white"/>
</clipPath>
</defs>
</svg>
