<svg width="43" height="44" viewBox="0 0 43 44" fill="none" xmlns="http://www.w3.org/2000/svg">
<mask id="mask0_9710_9823" style="mask-type:alpha" maskUnits="userSpaceOnUse" x="4" y="4" width="36" height="36">
<path opacity="0.9" d="M38.3967 37.3611C39.1153 37.1215 39.6001 36.449 39.6001 35.6914L39.6001 8.30849C39.6001 7.55094 39.1153 6.87837 38.3967 6.63881L31.3567 4.29214C30.217 3.91226 29.0401 4.76053 29.0401 5.96183L29.0401 38.0381C29.0401 39.2394 30.217 40.0877 31.3567 39.7078L38.3967 37.3611Z" fill="#52AEFF"/>
<path opacity="0.5" d="M26.0766 37.3611C26.7953 37.1215 27.28 36.449 27.28 35.6914L27.28 8.30849C27.28 7.55094 26.7953 6.87837 26.0766 6.63881L19.0366 4.29214C17.8969 3.91226 16.72 4.76053 16.72 5.96183L16.72 38.0381C16.72 39.2394 17.8969 40.0877 19.0366 39.7078L26.0766 37.3611Z" fill="#52AEFF"/>
<path opacity="0.23" d="M13.7565 37.3611C14.4752 37.1215 14.96 36.449 14.96 35.6914L14.96 8.30849C14.96 7.55094 14.4752 6.87837 13.7565 6.63881L6.71652 4.29214C5.57687 3.91226 4.39996 4.76053 4.39996 5.96183L4.39996 38.0381C4.39996 39.2394 5.57687 40.0877 6.71652 39.7078L13.7565 37.3611Z" fill="#52AEFF"/>
</mask>
<g mask="url(#mask0_9710_9823)">
<rect width="44" height="44" transform="matrix(4.37114e-08 -1 -1 -4.37114e-08 44 44)" fill="#10C59A"/>
</g>
</svg>
