<svg width="43" height="44" viewBox="0 0 43 44" fill="none" xmlns="http://www.w3.org/2000/svg">
<mask id="mask0_9710_9809" style="mask-type:alpha" maskUnits="userSpaceOnUse" x="3" y="3" width="38" height="38">
<rect opacity="0.23" width="9.42118" height="9.42118" rx="4.71059" transform="matrix(4.37114e-08 -1 -1 -4.37114e-08 39.0306 26.7106)" fill="#52AEFF"/>
<rect opacity="0.23" width="9.42118" height="9.42118" rx="4.71059" transform="matrix(4.37114e-08 -1 -1 -4.37114e-08 39.0306 14.3906)" fill="#52AEFF"/>
<rect opacity="0.23" width="9.42118" height="9.42118" rx="4.71059" transform="matrix(4.37114e-08 -1 -1 -4.37114e-08 14.3906 39.0306)" fill="#52AEFF"/>
<rect opacity="0.23" width="9.42118" height="9.42118" rx="4.71059" transform="matrix(4.37114e-08 -1 -1 -4.37114e-08 14.3906 26.7106)" fill="#52AEFF"/>
<path fill-rule="evenodd" clip-rule="evenodd" d="M39.6 34.32C39.6 37.236 37.236 39.6 34.32 39.6C31.7037 39.5999 29.5319 37.6972 29.113 35.2L27.207 35.2C26.788 37.6972 24.6162 39.6 22 39.6C19.0839 39.6 16.72 37.236 16.72 34.32C16.72 31.7037 18.6228 29.5319 21.12 29.113L21.12 27.207C18.6228 26.788 16.72 24.6162 16.72 22C16.72 19.3837 18.6228 17.2119 21.12 16.793L21.12 14.887C18.909 14.516 17.1639 12.771 16.793 10.56L14.887 10.56C14.468 13.0572 12.2962 14.96 9.68 14.96C6.76394 14.96 4.4 12.596 4.4 9.67998C4.4 6.76391 6.76394 4.39997 9.68 4.39997C12.2962 4.39997 14.468 6.30279 14.887 8.79998L16.793 8.79998C17.212 6.30279 19.3838 4.39997 22 4.39997C24.9161 4.39997 27.28 6.76391 27.28 9.67998C27.28 12.2962 25.3772 14.468 22.88 14.887L22.88 16.793C25.3772 17.2119 27.28 19.3837 27.28 22C27.28 24.6162 25.3772 26.788 22.88 27.207L22.88 29.113C25.091 29.4839 26.8361 31.229 27.207 33.44L29.113 33.44C29.5319 30.9428 31.7037 29.04 34.32 29.04C37.236 29.04 39.6 31.4039 39.6 34.32Z" fill="#52AEFF"/>
</mask>
<g mask="url(#mask0_9710_9809)">
<rect width="44" height="44" fill="#10C59A"/>
</g>
</svg>
