<svg width="29" height="30" viewBox="0 0 29 30" fill="none" xmlns="http://www.w3.org/2000/svg">
<path fill-rule="evenodd" clip-rule="evenodd" d="M14.8323 0.200019C12.3141 0.455636 10.2975 6.99497 10.2975 15.0246C10.2975 23.0541 12.3141 29.5935 14.8323 29.8491V29.8567C6.64064 29.8567 0 23.2161 0 15.0244C0 6.83277 6.64064 0.192123 14.8323 0.192123V0.200019Z" fill="url(#paint0_linear_1_234)"/>
<path fill-rule="evenodd" clip-rule="evenodd" d="M18.9043 28.7812C20.0001 28.7812 20.9683 26.4541 21.5518 22.8963C21.9695 24.9168 22.5485 26.168 23.1884 26.168C24.0599 26.168 24.8185 23.8467 25.2105 20.4218C25.6134 21.7885 26.1685 22.6331 26.7814 22.6331C28.0122 22.6331 29.01 19.2267 29.01 15.0248C29.01 10.8228 28.0122 7.41651 26.7814 7.41651C26.162 7.41651 25.6017 8.27898 25.1977 9.6713C24.8023 6.30669 24.0506 4.03486 23.1884 4.03486C22.5556 4.03486 21.9824 5.25838 21.5658 7.23943C20.9839 3.63309 20.0089 1.26842 18.9043 1.26842C17.1217 1.26842 15.6766 7.42736 15.6766 15.0248C15.6766 22.6222 17.1217 28.7812 18.9043 28.7812Z" fill="url(#paint1_linear_1_234)"/>
<defs>
<linearGradient id="paint0_linear_1_234" x1="-1.53703" y1="16.7151" x2="10.4518" y2="16.7151" gradientUnits="userSpaceOnUse">
<stop stop-color="#8F5AF3"/>
<stop offset="1" stop-color="#ADEEFF"/>
</linearGradient>
<linearGradient id="paint1_linear_1_234" x1="27.973" y1="15.1016" x2="15.6766" y2="15.1016" gradientUnits="userSpaceOnUse">
<stop stop-color="#8F5AF3"/>
<stop offset="1" stop-color="#ADEEFF"/>
</linearGradient>
</defs>
</svg>
